<?xml version="1.0" encoding="UTF-8"?>
<svg width="1347px" height="559px" viewBox="0 0 1347 559" version="1.1" xmlns="http://www.w3.org/2000/svg" xmlns:xlink="http://www.w3.org/1999/xlink">
    <!-- Generator: Sketch 52.6 (67491) - http://www.bohemiancoding.com/sketch -->
    <title>Home-Hero</title>
    <desc>Created with Sketch.</desc>
    <defs>
        <linearGradient x1="92.0266544%" y1="92.9036458%" x2="25.8310355%" y2="34.2050058%" id="linearGradient-1">
            <stop stop-color="#3C74AA" stop-opacity="0" offset="0%"></stop>
            <stop stop-color="#3473B0" offset="100%"></stop>
        </linearGradient>
        <linearGradient x1="92.0266544%" y1="92.9036458%" x2="26.9176553%" y2="35.1685605%" id="linearGradient-2">
            <stop stop-color="#3C74AA" stop-opacity="0" offset="0%"></stop>
            <stop stop-color="#E854BB" offset="100%"></stop>
        </linearGradient>
        <linearGradient x1="0%" y1="100%" x2="79.4556903%" y2="30.5199033%" id="linearGradient-3">
            <stop stop-color="#3C74AA" stop-opacity="0" offset="0%"></stop>
            <stop stop-color="#6FBBE3" offset="100%"></stop>
        </linearGradient>
        <linearGradient x1="31.4012097%" y1="94.3777902%" x2="50%" y2="0%" id="linearGradient-4">
            <stop stop-color="#8CC553" stop-opacity="0" offset="0%"></stop>
            <stop stop-color="#63AE12" offset="100%"></stop>
        </linearGradient>
    </defs>
    <g id="Website" stroke="none" stroke-width="1" fill="none" fill-rule="evenodd">
        <g id="DT-Home" transform="translate(-42.000000, -113.000000)">
            <g id="Home-Hero" transform="translate(42.000000, 113.000000)">
                <path d="M290.976703,63.918893 L290.310075,62.6827059 C291.667657,61.8134335 293.050878,60.9506107 294.422266,60.1178865 L295.06194,61.3698394 C293.699756,62.1975473 292.325081,63.054637 290.976703,63.918893" id="Fill-4" fill="#54A0E8"></path>
                <path d="M194.015971,225.461673 L192.421642,225.394942 C192.507024,223.826408 192.610759,222.25085 192.729655,220.710414 L194.322388,220.806648 C194.203492,222.336547 194.100555,223.902973 194.015971,225.461673" id="Fill-5" fill="#54A0E8"></path>
                <path d="M587.387504,279.626016 L586.150741,279.341804 C589.540575,264.682409 591.259606,249.533713 591.259606,234.316653 C591.259606,181.27153 570.551284,131.40148 532.949632,93.8930758 C495.347346,56.3840381 445.353317,35.7270703 392.176322,35.7270703 C360.163899,35.7270703 328.427511,43.4216864 300.399507,57.9772717 L299.813806,56.854982 C328.022025,42.2050812 359.960839,34.461092 392.176322,34.461092 C445.692174,34.461092 496.005387,55.2497215 533.846904,92.9973961 C571.688421,130.745704 592.528731,180.933514 592.528731,234.316653 C592.528731,249.629294 590.798913,264.873571 587.387504,279.626016" id="Fill-6" fill="#54A0E8"></path>
                <path d="M208.784413,156.093303 L207.627612,155.590587 C214.057437,140.590355 222.354148,126.372126 232.288402,113.331979 L233.287687,114.10446 C223.41644,127.062091 215.172654,141.189552 208.784413,156.093303" id="Fill-7" fill="#54A0E8"></path>
                <path d="M391.698653,435.467286 C338.216027,435.467286 287.934051,414.642446 250.116029,376.829019 C212.298641,339.015593 191.471269,288.739728 191.471269,235.264236 C191.471269,234.212278 191.479513,233.162222 191.495367,232.113434 L192.763705,232.132457 C192.74785,233.174904 192.739606,234.219253 192.739606,235.264236 C192.739606,288.401123 213.435071,338.35804 251.013378,375.932414 C288.591684,413.506153 338.555308,434.199103 391.698653,434.199103 C444.842633,434.199103 494.805622,413.506153 532.384563,375.932414 C544.20547,364.11231 554.481541,350.923202 562.927401,336.730961 L564.017537,337.379636 C555.517773,351.661919 545.176382,364.934727 533.281278,376.829019 C495.463255,414.642446 445.181279,435.467286 391.698653,435.467286" id="Fill-8" fill="#54A0E8"></path>
                <path d="M314.585298,62.0183897 L314.069403,60.887481 C329.436927,54.0753679 345.680405,49.3403076 362.348035,46.8143634 L362.538433,48.0401346 C345.982653,50.5493383 329.849141,55.2521578 314.585298,62.0183897" id="Fill-9" fill="#54A0E8"></path>
                <path d="M230.63573,136.138018 L229.486194,135.510984 C230.657305,133.809291 231.877634,132.102199 233.112121,130.436508 L234.23806,131.097144 C233.011663,132.752034 231.800099,134.447726 230.63573,136.138018" id="Fill-10" fill="#54A0E8"></path>
                <path d="M202.689529,252.068719 C202.182639,246.413463 201.925373,240.649758 201.925373,234.938692 C201.925373,201.538627 210.74564,168.688423 227.43289,139.939025 L228.535821,140.573235 C211.960648,169.130468 203.198966,201.761235 203.198966,234.938692 C203.198966,240.612339 203.454321,246.337992 203.958027,251.955829 L202.689529,252.068719" id="Fill-11" fill="#54A0E8"></path>
                <path d="M226.443817,329.989354 C225.540108,328.329228 224.645601,326.629806 223.783955,324.937278 L224.942674,324.287844 C225.799062,325.968652 226.687654,327.657043 227.585448,329.305448 L226.443817,329.989354" id="Fill-12" fill="#54A0E8"></path>
                <path d="M257.091704,368.949671 C246.127047,358.002663 236.519639,345.753951 228.535821,332.543883 L229.631201,331.889857 C237.561368,345.011662 247.104905,357.179097 257.997388,368.053718 L257.091704,368.949671" id="Fill-13" fill="#54A0E8"></path>
                <path d="M442.707133,418.362757 L442.369776,417.137322 C492.390308,403.252031 534.934565,368.716771 559.094477,322.38734 L560.216045,322.976541 C535.894733,369.617415 493.064388,404.384033 442.707133,418.362757" id="Fill-14" fill="#54A0E8"></path>
                <path d="M577.763352,274.874758 L576.372388,274.615918 C577.302306,270.940262 578.108424,267.190738 578.767264,263.471738 L580.173881,263.655491 C579.51006,267.39952 578.699673,271.174073 577.763352,274.874758" id="Fill-15" fill="#54A0E8"></path>
                <path d="M580.599431,259.670732 L579.223507,259.518715 C579.411638,258.306673 579.585191,257.089953 579.744165,255.869725 L581.124254,255.997186 C580.963891,257.225599 580.789645,258.449919 580.599431,259.670732" id="Fill-16" fill="#54A0E8"></path>
                <path d="M565.682231,161.794812 C561.279749,151.487871 555.923739,141.494004 549.76194,132.092141 L550.841916,131.38676 C557.044359,140.852397 562.436497,150.912615 566.868657,161.289128 L565.682231,161.794812" id="Fill-17" fill="#54A0E8"></path>
                <path d="M510.986356,88.6254358 C509.981156,87.7013968 508.957932,86.7814166 507.945522,85.890524 L508.685152,84.8244292 C509.704772,85.7207335 510.734605,86.6468018 511.747015,87.5776054 L510.986356,88.6254358" id="Fill-18" fill="#54A0E8"></path>
                <path d="M502.454916,81.9736743 C490.020606,72.8025362 476.520137,65.2117191 462.327612,59.4122757 L462.796974,58.2173832 C477.085391,64.0567207 490.676704,71.6983706 503.193657,80.9312801 L502.454916,81.9736743" id="Fill-19" fill="#54A0E8"></path>
                <path d="M457.150472,58.2173832 C453.853821,56.9502086 450.479399,55.7677278 447.121642,54.7035597 L447.479638,53.4661249 C450.860232,54.5374047 454.257492,55.7276437 457.575746,57.0038695 L457.150472,58.2173832" id="Fill-20" fill="#54A0E8"></path>
                <polyline id="Fill-22" fill="#93D3F5" points="539.307836 187.926733 630.543657 187.926733 539.307836 187.926733"></polyline>
                <polyline id="Fill-24" fill="#93D3F5" points="539.307836 197.429249 572.570896 197.429249 539.307836 197.429249"></polyline>
                <polyline id="Fill-26" fill="#FFFFFF" points="539.307836 207.882017 630.543657 207.882017 539.307836 207.882017"></polyline>
                <polyline id="Fill-28" fill="#FFFFFF" points="539.307836 217.384534 572.570896 217.384534 539.307836 217.384534"></polyline>
                <polyline id="Fill-33" fill="#FFFFFF" points="581.124254 197.429249 614.387313 197.429249 581.124254 197.429249"></polyline>
                <path d="M442.369776,391.755711 L439.284533,400.435489 C426.092896,437.544879 395.132542,464.652493 358.020747,473.542112 L342.474549,500.456419 C316.470899,545.548661 304.810457,515.104578 285.196308,526.28782 C263.443438,538.687503 253.352915,548.492791 232.347233,541.707939 C222.507465,538.528533 204.975538,512.458676 183.868284,549.497484 C199.009464,522.919558 232.649409,463.832207 263.444708,410.068453 L263.444708,391.755711 L442.369776,391.755711" id="Fill-36" fill="#FBEBC9"></path>
                <path d="M50.1173333,47 C57.568,49.5266667 63.4746667,55.432 66,62.884 C68.5266667,55.432 74.432,49.5266667 81.8826667,47 C74.432,44.4733333 68.5266667,38.568 66,31.1173333 C63.4746667,38.568 57.568,44.4733333 50.1173333,47 Z M67.3333333,71 L64.6666667,71 C64.6666667,58.5013333 54.4986667,48.3333333 42,48.3333333 L42,45.6666667 C42.0146667,45.6666667 42.0293333,45.6666667 42.044,45.6666667 C54.5226667,45.644 64.6666667,35.484 64.6666667,23 L67.3333333,23 C67.3333333,35.4986667 77.5013333,45.6666667 90,45.6666667 L90,48.3333333 C89.9853333,48.3333333 89.972,48.3333333 89.956,48.3333333 C77.4773333,48.3573333 67.3333333,58.516 67.3333333,71 Z" id="star-1" fill="#54A0E8" opacity="0.201520647"></path>
                <path d="M1317.088,203 C1322.676,204.895 1327.106,209.324 1329,214.913 C1330.895,209.324 1335.324,204.895 1340.912,203 C1335.324,201.105 1330.895,196.676 1329,191.088 C1327.106,196.676 1322.676,201.105 1317.088,203 Z M1330,221 L1328,221 C1328,211.626 1320.374,204 1311,204 L1311,202 C1311.011,202 1311.022,202 1311.033,202 C1320.392,201.983 1328,194.363 1328,185 L1330,185 C1330,194.374 1337.626,202 1347,202 L1347,204 C1346.989,204 1346.979,204 1346.967,204 C1337.608,204.018 1330,211.637 1330,221 Z" id="star-2" fill="#54A0E8"></path>
                <g id="dots" opacity="0.102981" transform="translate(1210.000000, 16.000000)" fill="#54A0E8">
                    <path d="M0,0 L4,0 L4,4 L0,4 L0,0 Z M0,36 L4,36 L4,40 L0,40 L0,36 Z M0,18 L4,18 L4,22 L0,22 L0,18 Z M0,54 L4,54 L4,58 L0,58 L0,54 Z M0,81 L4,81 L4,85 L0,85 L0,81 Z M0,9 L4,9 L4,13 L0,13 L0,9 Z M0,45 L4,45 L4,49 L0,49 L0,45 Z M0,72 L4,72 L4,76 L0,76 L0,72 Z M0,27 L4,27 L4,31 L0,31 L0,27 Z M0,63 L4,63 L4,67 L0,67 L0,63 Z M0,90 L4,90 L4,94 L0,94 L0,90 Z M36,0 L40,0 L40,4 L36,4 L36,0 Z M36,36 L40,36 L40,40 L36,40 L36,36 Z M36,18 L40,18 L40,22 L36,22 L36,18 Z M36,54 L40,54 L40,58 L36,58 L36,54 Z M36,81 L40,81 L40,85 L36,85 L36,81 Z M36,9 L40,9 L40,13 L36,13 L36,9 Z M36,45 L40,45 L40,49 L36,49 L36,45 Z M36,72 L40,72 L40,76 L36,76 L36,72 Z M36,27 L40,27 L40,31 L36,31 L36,27 Z M36,63 L40,63 L40,67 L36,67 L36,63 Z M36,90 L40,90 L40,94 L36,94 L36,90 Z M18,0 L22,0 L22,4 L18,4 L18,0 Z M18,36 L22,36 L22,40 L18,40 L18,36 Z M18,18 L22,18 L22,22 L18,22 L18,18 Z M18,54 L22,54 L22,58 L18,58 L18,54 Z M18,81 L22,81 L22,85 L18,85 L18,81 Z M18,9 L22,9 L22,13 L18,13 L18,9 Z M18,45 L22,45 L22,49 L18,49 L18,45 Z M18,72 L22,72 L22,76 L18,76 L18,72 Z M18,27 L22,27 L22,31 L18,31 L18,27 Z M18,63 L22,63 L22,67 L18,67 L18,63 Z M18,90 L22,90 L22,94 L18,94 L18,90 Z M54,0 L58,0 L58,4 L54,4 L54,0 Z M54,36 L58,36 L58,40 L54,40 L54,36 Z M54,18 L58,18 L58,22 L54,22 L54,18 Z M54,54 L58,54 L58,58 L54,58 L54,54 Z M54,81 L58,81 L58,85 L54,85 L54,81 Z M54,9 L58,9 L58,13 L54,13 L54,9 Z M54,45 L58,45 L58,49 L54,49 L54,45 Z M54,72 L58,72 L58,76 L54,76 L54,72 Z M54,27 L58,27 L58,31 L54,31 L54,27 Z M54,63 L58,63 L58,67 L54,67 L54,63 Z M54,90 L58,90 L58,94 L54,94 L54,90 Z M9,0 L13,0 L13,4 L9,4 L9,0 Z M9,36 L13,36 L13,40 L9,40 L9,36 Z M9,18 L13,18 L13,22 L9,22 L9,18 Z M9,54 L13,54 L13,58 L9,58 L9,54 Z M9,81 L13,81 L13,85 L9,85 L9,81 Z M9,9 L13,9 L13,13 L9,13 L9,9 Z M9,45 L13,45 L13,49 L9,49 L9,45 Z M9,72 L13,72 L13,76 L9,76 L9,72 Z M9,27 L13,27 L13,31 L9,31 L9,27 Z M9,63 L13,63 L13,67 L9,67 L9,63 Z M9,90 L13,90 L13,94 L9,94 L9,90 Z M45,0 L49,0 L49,4 L45,4 L45,0 Z M45,36 L49,36 L49,40 L45,40 L45,36 Z M45,18 L49,18 L49,22 L45,22 L45,18 Z M45,54 L49,54 L49,58 L45,58 L45,54 Z M45,81 L49,81 L49,85 L45,85 L45,81 Z M45,9 L49,9 L49,13 L45,13 L45,9 Z M45,45 L49,45 L49,49 L45,49 L45,45 Z M45,72 L49,72 L49,76 L45,76 L45,72 Z M45,27 L49,27 L49,31 L45,31 L45,27 Z M45,63 L49,63 L49,67 L45,67 L45,63 Z M45,90 L49,90 L49,94 L45,94 L45,90 Z M27,0 L31,0 L31,4 L27,4 L27,0 Z M27,36 L31,36 L31,40 L27,40 L27,36 Z M27,18 L31,18 L31,22 L27,22 L27,18 Z M27,54 L31,54 L31,58 L27,58 L27,54 Z M27,81 L31,81 L31,85 L27,85 L27,81 Z M27,9 L31,9 L31,13 L27,13 L27,9 Z M27,45 L31,45 L31,49 L27,49 L27,45 Z M27,72 L31,72 L31,76 L27,76 L27,72 Z M27,27 L31,27 L31,31 L27,31 L27,27 Z M27,63 L31,63 L31,67 L27,67 L27,63 Z M27,90 L31,90 L31,94 L27,94 L27,90 Z M63,0 L67,0 L67,4 L63,4 L63,0 Z M63,36 L67,36 L67,40 L63,40 L63,36 Z M63,18 L67,18 L67,22 L63,22 L63,18 Z M63,54 L67,54 L67,58 L63,58 L63,54 Z M63,81 L67,81 L67,85 L63,85 L63,81 Z M63,9 L67,9 L67,13 L63,13 L63,9 Z M63,45 L67,45 L67,49 L63,49 L63,45 Z M63,72 L67,72 L67,76 L63,76 L63,72 Z M63,27 L67,27 L67,31 L63,31 L63,27 Z M63,63 L67,63 L67,67 L63,67 L63,63 Z M63,90 L67,90 L67,94 L63,94 L63,90 Z M72,0 L76,0 L76,4 L72,4 L72,0 Z M72,36 L76,36 L76,40 L72,40 L72,36 Z M72,18 L76,18 L76,22 L72,22 L72,18 Z M72,54 L76,54 L76,58 L72,58 L72,54 Z M72,81 L76,81 L76,85 L72,85 L72,81 Z M72,9 L76,9 L76,13 L72,13 L72,9 Z M72,45 L76,45 L76,49 L72,49 L72,45 Z M72,72 L76,72 L76,76 L72,76 L72,72 Z M72,27 L76,27 L76,31 L72,31 L72,27 Z M72,63 L76,63 L76,67 L72,67 L72,63 Z M72,90 L76,90 L76,94 L72,94 L72,90 Z M81,0 L85,0 L85,4 L81,4 L81,0 Z M90,0 L94,0 L94,4 L90,4 L90,0 Z M99,0 L103,0 L103,4 L99,4 L99,0 Z M81,36 L85,36 L85,40 L81,40 L81,36 Z M90,36 L94,36 L94,40 L90,40 L90,36 Z M99,36 L103,36 L103,40 L99,40 L99,36 Z M81,18 L85,18 L85,22 L81,22 L81,18 Z M90,18 L94,18 L94,22 L90,22 L90,18 Z M99,18 L103,18 L103,22 L99,22 L99,18 Z M81,54 L85,54 L85,58 L81,58 L81,54 Z M90,54 L94,54 L94,58 L90,58 L90,54 Z M99,54 L103,54 L103,58 L99,58 L99,54 Z M81,81 L85,81 L85,85 L81,85 L81,81 Z M90,81 L94,81 L94,85 L90,85 L90,81 Z M99,81 L103,81 L103,85 L99,85 L99,81 Z M81,9 L85,9 L85,13 L81,13 L81,9 Z M90,9 L94,9 L94,13 L90,13 L90,9 Z M99,9 L103,9 L103,13 L99,13 L99,9 Z M81,45 L85,45 L85,49 L81,49 L81,45 Z M90,45 L94,45 L94,49 L90,49 L90,45 Z M99,45 L103,45 L103,49 L99,49 L99,45 Z M81,72 L85,72 L85,76 L81,76 L81,72 Z M90,72 L94,72 L94,76 L90,76 L90,72 Z M99,72 L103,72 L103,76 L99,76 L99,72 Z M81,27 L85,27 L85,31 L81,31 L81,27 Z M90,27 L94,27 L94,31 L90,31 L90,27 Z M99,27 L103,27 L103,31 L99,31 L99,27 Z M81,63 L85,63 L85,67 L81,67 L81,63 Z M90,63 L94,63 L94,67 L90,67 L90,63 Z M99,63 L103,63 L103,67 L99,67 L99,63 Z M81,90 L85,90 L85,94 L81,94 L81,90 Z M90,90 L94,90 L94,94 L90,94 L90,90 Z M99,90 L103,90 L103,94 L99,94 L99,90 Z" id="Combined-Shape"></path>
                </g>
                <g id="brust-1" transform="translate(0.000000, 380.000000)" fill="#A3E060">
                    <polygon id="Fill-99" points="28.4827586 8.13333333 30.5172414 8.13333333 30.5172414 0 28.4827586 0"></polygon>
                    <polygon id="Fill-100" points="28.4827586 61 30.5172414 61 30.5172414 52.8666667 28.4827586 52.8666667"></polygon>
                    <polyline id="Fill-101" points="18.2067083 12.2 14.2413793 5.30518248 16.3794985 4.06666667 20.3448276 10.9614842 18.2067083 12.2"></polyline>
                    <polyline id="Fill-102" points="44.6549842 56.9333333 40.6896552 50.0385158 42.8277744 48.8 46.7931034 55.6948175 44.6549842 56.9333333"></polyline>
                    <polyline id="Fill-103" points="8.93338653 20.3333333 2.03448276 16.3690115 3.27351002 14.2333333 10.1724138 18.1976551 8.93338653 20.3333333"></polyline>
                    <polyline id="Fill-104" points="55.7263013 46.7666667 48.8275862 42.8027767 50.0668021 40.6666667 56.9655172 44.6305567 55.7263013 46.7666667"></polyline>
                    <polygon id="Fill-105" points="0 30.5 8.13793103 30.5 8.13793103 28.4666667 0 28.4666667"></polygon>
                    <polygon id="Fill-106" points="50.862069 30.5 59 30.5 59 28.4666667 50.862069 28.4666667"></polygon>
                    <polyline id="Fill-107" points="3.27351002 46.7666667 2.03448276 44.6305567 8.93338653 40.6666667 10.1724138 42.8027767 3.27351002 46.7666667"></polyline>
                    <polyline id="Fill-108" points="50.0668021 20.3333333 48.8275862 18.1976551 55.7263013 14.2333333 56.9655172 16.3690115 50.0668021 20.3333333"></polyline>
                    <polyline id="Fill-109" points="16.3794985 56.9333333 14.2413793 55.6948175 18.2067083 48.8 20.3448276 50.0385158 16.3794985 56.9333333"></polyline>
                    <polyline id="Fill-110" points="42.8277744 12.2 40.6896552 10.9614842 44.6549842 4.06666667 46.7931034 5.30518248 42.8277744 12.2"></polyline>
                </g>
                <g id="burst-2" transform="translate(1264.000000, 460.000000)" fill="#A3E060">
                    <polygon id="Fill-99" points="18.8275862 5.33333333 20.1724138 5.33333333 20.1724138 0 18.8275862 0"></polygon>
                    <polygon id="Fill-100" points="18.8275862 40 20.1724138 40 20.1724138 34.6666667 18.8275862 34.6666667"></polygon>
                    <polyline id="Fill-101" points="12.0349428 8 9.4137931 3.47880818 10.8271262 2.66666667 13.4482759 7.18785848 12.0349428 8"></polyline>
                    <polyline id="Fill-102" points="29.5177014 37.3333333 26.8965517 32.8121415 28.3098848 32 30.9310345 36.5211918 29.5177014 37.3333333"></polyline>
                    <polyline id="Fill-103" points="5.90511991 13.3333333 1.34482759 10.733778 2.1638456 9.33333333 6.72413793 11.9328886 5.90511991 13.3333333"></polyline>
                    <polyline id="Fill-104" points="36.8360297 30.6666667 32.2758621 28.0673945 33.0950048 26.6666667 37.6551724 29.2659388 36.8360297 30.6666667"></polyline>
                    <polygon id="Fill-105" points="0 20 5.37931034 20 5.37931034 18.6666667 0 18.6666667"></polygon>
                    <polygon id="Fill-106" points="33.6206897 20 39 20 39 18.6666667 33.6206897 18.6666667"></polygon>
                    <polyline id="Fill-107" points="2.1638456 30.6666667 1.34482759 29.2659388 5.90511991 26.6666667 6.72413793 28.0673945 2.1638456 30.6666667"></polyline>
                    <polyline id="Fill-108" points="33.0950048 13.3333333 32.2758621 11.9328886 36.8360297 9.33333333 37.6551724 10.733778 33.0950048 13.3333333"></polyline>
                    <polyline id="Fill-109" points="10.8271262 37.3333333 9.4137931 36.5211918 12.0349428 32 13.4482759 32.8121415 10.8271262 37.3333333"></polyline>
                    <polyline id="Fill-110" points="28.3098848 8 26.8965517 7.18785848 29.5177014 2.66666667 30.9310345 3.47880818 28.3098848 8"></polyline>
                </g>
                <g id="Group-3" transform="translate(482.285448, 0.252033)" fill="#A3E060">
                    <polygon id="Fill-99" points="13.3052239 3.80100658 14.255597 3.80100658 14.255597 0 13.3052239 0"></polygon>
                    <polygon id="Fill-100" points="13.3052239 28.5075493 14.255597 28.5075493 14.255597 24.7065428 13.3052239 24.7065428"></polygon>
                    <polyline id="Fill-101" points="8.50494624 5.70150987 6.65261194 2.4793074 7.65139705 1.90050329 9.50373134 5.12270576 8.50494624 5.70150987"></polyline>
                    <polyline id="Fill-102" points="20.859797 26.6070461 19.0074627 23.3848436 20.0062478 22.8060395 21.8585821 26.0282419 20.859797 26.6070461"></polyline>
                    <polyline id="Fill-103" points="4.1730757 9.50251645 0.950373134 7.64984268 1.52916311 6.65176151 4.75186567 8.50443528 4.1730757 9.50251645"></polyline>
                    <polyline id="Fill-104" points="26.0315697 21.8557878 22.8089552 20.0033159 23.3878333 19.0050329 26.6104478 20.8575049 26.0315697 21.8557878"></polyline>
                    <polygon id="Fill-105" points="0 14.2537747 3.80149254 14.2537747 3.80149254 13.303523 0 13.303523"></polygon>
                    <polygon id="Fill-106" points="23.7593284 14.2537747 27.5608209 14.2537747 27.5608209 13.303523 23.7593284 13.303523"></polygon>
                    <polyline id="Fill-107" points="1.52916311 21.8557878 0.950373134 20.8575049 4.1730757 19.0050329 4.75186567 20.0033159 1.52916311 21.8557878"></polyline>
                    <polyline id="Fill-108" points="23.3878333 9.50251645 22.8089552 8.50443528 26.0315697 6.65176151 26.6104478 7.64984268 23.3878333 9.50251645"></polyline>
                    <polyline id="Fill-109" points="7.65139705 26.6070461 6.65261194 26.0282419 8.50494624 22.8060395 9.50373134 23.3848436 7.65139705 26.6070461"></polyline>
                    <polyline id="Fill-110" points="20.0062478 5.70150987 19.0074627 5.12270576 20.859797 1.90050329 21.8585821 2.4793074 20.0062478 5.70150987"></polyline>
                </g>
                <g id="Group-3-Copy" transform="translate(624.313433, 267.640000)" fill="#A3E060">
                    <polygon id="Fill-99" points="23.1609453 6.65176151 24.8152985 6.65176151 24.8152985 0 23.1609453 0"></polygon>
                    <polygon id="Fill-100" points="23.1609453 49.8882114 24.8152985 49.8882114 24.8152985 43.2364498 23.1609453 43.2364498"></polygon>
                    <polyline id="Fill-101" points="14.8049064 9.97764227 11.5804726 4.33878795 13.3190986 3.32588076 16.5435323 8.96473508 14.8049064 9.97764227"></polyline>
                    <polyline id="Fill-102" points="36.3114985 46.5623306 33.0870647 40.9234763 34.8256906 39.9105691 38.0501244 45.5494234 36.3114985 46.5623306"></polyline>
                    <polyline id="Fill-103" points="7.26424288 16.6294038 1.65435323 13.3872247 2.66187652 11.6405826 8.27176617 14.8827617 7.26424288 16.6294038"></polyline>
                    <polyline id="Fill-104" points="45.3142138 38.2476287 39.7044776 35.0058028 40.7121543 33.2588076 46.3218905 36.5006335 45.3142138 38.2476287"></polyline>
                    <polygon id="Fill-105" points="0 24.9441057 6.61741294 24.9441057 6.61741294 23.2811653 0 23.2811653"></polygon>
                    <polygon id="Fill-106" points="41.3588308 24.9441057 47.9762438 24.9441057 47.9762438 23.2811653 41.3588308 23.2811653"></polygon>
                    <polyline id="Fill-107" points="2.66187652 38.2476287 1.65435323 36.5006335 7.26424288 33.2588076 8.27176617 35.0058028 2.66187652 38.2476287"></polyline>
                    <polyline id="Fill-108" points="40.7121543 16.6294038 39.7044776 14.8827617 45.3142138 11.6405826 46.3218905 13.3872247 40.7121543 16.6294038"></polyline>
                    <polyline id="Fill-109" points="13.3190986 46.5623306 11.5804726 45.5494234 14.8049064 39.9105691 16.5435323 40.9234763 13.3190986 46.5623306"></polyline>
                    <polyline id="Fill-110" points="34.8256906 9.97764227 33.0870647 8.96473508 36.3114985 3.32588076 38.0501244 4.33878795 34.8256906 9.97764227"></polyline>
                </g>
                <path d="M491.803431,201.20027 L395.25494,295.780294 L372.992537,273.26079 L469.542298,178.685189 C475.788086,172.566884 485.834416,172.646499 491.98181,178.863373 C498.129839,185.080248 498.049854,195.081334 491.803431,201.20027" id="Fill-37" fill="#FBEBC9"></path>
                <path d="M351.133955,391.755711 L351.133955,426.733057 C351.133955,426.733057 395.327973,431.538815 413.858582,391.755711 L351.133955,391.755711" id="Fill-38" fill="#F4E3BF"></path>
                <path d="M450.246541,391.755711 L332.803086,391.755711 C326.130637,391.755711 320.722015,386.333475 320.722015,379.644232 L320.722015,124.493206 C320.722015,117.803962 326.130637,112.381727 332.803086,112.381727 L450.246541,112.381727 C456.91899,112.381727 462.327612,117.803962 462.327612,124.493206 L462.327612,379.644232 C462.327612,386.333475 456.91899,391.755711 450.246541,391.755711" id="Fill-39" fill="#CCCDCD"></path>
                <path d="M333.150557,386.054201 C329.441572,386.054201 326.424254,383.043013 326.424254,379.341565 L326.424254,124.795873 C326.424254,121.094424 329.441572,118.083237 333.150557,118.083237 L450.849443,118.083237 C454.558428,118.083237 457.575746,121.094424 457.575746,124.795873 L457.575746,379.341565 C457.575746,383.043013 454.558428,386.054201 450.849443,386.054201 L333.150557,386.054201" id="Fill-40" fill="#FFFFFF"></path>
                <path d="M333.150557,386.054201 L450.849443,386.054201 C454.564139,386.054201 457.575746,383.044627 457.575746,379.33244 L457.575746,356.5964 L326.424254,356.5964 L326.424254,379.33244 C326.424254,383.044627 329.435861,386.054201 333.150557,386.054201" id="Fill-45" fill="#F2F1F3"></path>
                <path d="M333.150557,118.083237 L450.849443,118.083237 C454.564139,118.083237 457.575746,121.09281 457.575746,124.804998 L457.575746,147.541038 L326.424254,147.541038 L326.424254,124.804998 C326.424254,121.09281 329.435861,118.083237 333.150557,118.083237" id="Fill-46" fill="#F2F1F3"></path>
                <path d="M370.141418,336.641437 C370.141418,344.513669 363.758882,350.89489 355.885821,350.89489 C348.01276,350.89489 341.630224,344.513669 341.630224,336.641437 C341.630224,328.769205 348.01276,322.38734 355.885821,322.38734 C363.758882,322.38734 370.141418,328.769205 370.141418,336.641437" id="Fill-47" fill="#A3E060"></path>
                <path d="M355.410634,343.292877 C352.003976,343.292877 349.233209,340.735241 349.233209,337.591367 L350.538942,337.591367 C350.538942,340.070677 352.724088,342.087866 355.410634,342.087866 C358.096528,342.087866 360.282326,340.070677 360.282326,337.591367 L361.58806,337.591367 C361.58806,340.735241 358.81664,343.292877 355.410634,343.292877" id="Fill-48" fill="#FFFFFF"></path>
                <path d="M355.885821,339.49187 C354.311379,339.49187 353.034701,338.26736 353.034701,336.757254 L353.034701,330.823467 C353.034701,329.31336 354.311379,328.08885 355.885821,328.08885 C357.460262,328.08885 358.73694,329.31336 358.73694,330.823467 L358.73694,336.757254 C358.73694,338.26736 357.460262,339.49187 355.885821,339.49187" id="Fill-49" fill="#FFFFFF"></path>
                <polygon id="Fill-50" fill="#FFFFFF" points="354.935448 345.19338 355.885821 345.19338 355.885821 342.342625 354.935448 342.342625"></polygon>
                <path d="M420.29893,128.536005 L364.651443,128.536005 C359.285617,128.536005 354.935448,124.288385 354.935448,119.049052 L354.935448,114.28223 L430.014925,114.28223 L430.014925,119.049052 C430.014925,124.288385 425.664756,128.536005 420.29893,128.536005" id="Fill-52" fill="#CCCDCD"></path>
                <path d="M496.541045,189.827236 C496.541045,198.487145 489.520277,205.506388 480.859888,205.506388 C472.199499,205.506388 465.178731,198.487145 465.178731,189.827236 C465.178731,181.167954 472.199499,174.148084 480.859888,174.148084 C489.520277,174.148084 496.541045,181.167954 496.541045,189.827236" id="Fill-53" fill="#FCE8BD"></path>
                <polyline id="Fill-54" fill="#EDD5A1" points="309.455639 559 308.367164 558.348112 314.881674 546.646729 315.970149 547.298616 309.455639 559"></polyline>
                <polyline id="Fill-55" fill="#EDD5A1" points="321.811364 537.144212 320.722015 536.513586 350.994979 483.93012 352.084328 484.560746 321.811364 537.144212"></polyline>
                <polyline id="Fill-56" fill="#EDD5A1" points="182.116988 555.198993 181.017164 554.570106 263.550176 409.810492 264.65 410.440649 182.116988 555.198993"></polyline>
                <path d="M443.320149,336.641437 C443.320149,344.513669 436.937613,350.89489 429.064552,350.89489 C421.191491,350.89489 414.808955,344.513669 414.808955,336.641437 C414.808955,328.769205 421.191491,322.38734 429.064552,322.38734 C436.937613,322.38734 443.320149,328.769205 443.320149,336.641437" id="Fill-57" fill="#E6657B"></path>
                <path d="M428.421398,344.983212 C428.758315,345.352262 429.164853,345.645692 429.614904,345.845405 L429.615525,345.845405 C430.627519,346.293952 431.781242,346.233844 432.745371,345.683178 L433.816418,345.071112 L431.572378,340.826717 L430.375142,341.271386 C429.886551,341.452356 429.349473,341.433613 428.873936,341.218388 C428.459938,341.030955 428.116805,340.706501 427.899239,340.294794 L426.04744,336.792377 C425.829874,336.38067 425.749685,335.905624 425.819306,335.442211 L425.819928,335.441565 C425.899495,334.908349 426.171763,334.42684 426.581409,334.095277 L427.583457,333.282204 L425.340039,329.039102 L424.268992,329.651169 C423.304862,330.201835 422.637867,331.182305 422.459462,332.310782 C422.379895,332.813621 422.400409,333.327446 422.519759,333.821236 L422.519759,333.821883 C423.53051,338.008108 425.5632,341.853076 428.421398,344.983212" id="Fill-58" fill="#FFFFFF"></path>
                <path d="M406.255597,336.641437 C406.255597,344.513669 399.873061,350.89489 392,350.89489 C384.126939,350.89489 377.744403,344.513669 377.744403,336.641437 C377.744403,328.769205 384.126939,322.38734 392,322.38734 C399.873061,322.38734 406.255597,328.769205 406.255597,336.641437" id="Fill-60" fill="#93CCF5"></path>
                <polygon id="Fill-61" fill="#FFFFFF" points="384.397015 342.342625 395.801493 342.342625 395.801493 331.889857 384.397015 331.889857"></polygon>
                <polyline id="Fill-62" fill="#FFFFFF" points="393.900746 337.115919 399.602985 342.342625 399.602985 331.889857 393.900746 337.115919"></polyline>
                <polygon id="Path-4" fill="url(#linearGradient-1)" opacity="0.200897507" points="296.307692 58 385 200 261 108.310486"></polygon>
                <polygon id="Path-4-Copy-4" fill="url(#linearGradient-2)" opacity="0.200409226" transform="translate(500.672188, 207.093621) rotate(110.000000) translate(-500.672188, -207.093621) " points="500.440812 109.988807 554.538932 304.198434 446.805444 144.160014"></polygon>
                <polygon id="Path-4-Copy" fill="url(#linearGradient-3)" opacity="0.200409226" points="511 80 395 200 551.308333 129.933333"></polygon>
                <g id="Group-5-Copy" transform="translate(352.000000, 157.000000)">
                    <path d="M0,47.9430916 L69.9041566,47.9430916 C76.2360832,47.9430916 81.3692308,42.787715 81.3692308,36.4275309 L81.3692308,11.5155607 C81.3692308,5.1557514 76.2360832,0 69.9041566,0 L18.2753185,0 C11.9433919,0 6.81024435,5.1557514 6.81024435,11.5155607 L6.81024435,37.4194828 C6.81024435,41.9707694 4.14106733,46.0952206 0,47.9430916" id="Fill-21" stroke="#93D3F5" stroke-width="1.05597015" fill="#FFFFFF"></path>
                    <polygon id="Fill-23" fill="#93D3F5" points="17.2770285 13.5368729 70.7800843 13.5368729 70.7800843 12.9728366 17.2770285 12.9728366"></polygon>
                    <polygon id="Fill-25" fill="#93D3F5" points="17.2770285 19.1772367 36.7833509 19.1772367 36.7833509 18.6132003 17.2770285 18.6132003"></polygon>
                    <polygon id="Fill-27" fill="#93D3F5" points="17.2770285 25.3816367 70.7800843 25.3816367 70.7800843 24.8176004 17.2770285 24.8176004"></polygon>
                    <polygon id="Fill-29" fill="#93D3F5" points="17.2770285 31.0220005 36.7833509 31.0220005 36.7833509 30.4579641 17.2770285 30.4579641"></polygon>
                    <polygon id="Fill-34" fill="#93D3F5" points="41.7992624 19.1772367 61.3055848 19.1772367 61.3055848 18.6132003 41.7992624 18.6132003"></polygon>
                </g>
                <g id="Group-5-Copy-2" transform="translate(403.000000, 233.000000) scale(-1, 1) translate(-403.000000, -233.000000) translate(362.000000, 214.000000)">
                    <path d="M70.4460493,38 C76.8270606,38 82,32.8922695 82,26.5908665 L82,11.4091335 C82,5.10810177 76.8270606,2.84217094e-14 70.4460493,2.84217094e-14 L18.4169876,2.84217094e-14 C12.0359763,2.84217094e-14 6.86303694,5.10810177 6.86303694,11.4091335 L6.86303694,27.5736507 C6.86303694,32.0828741 4.17316863,36.169207 0,38 L70.4460493,38 Z" id="Fill-21" stroke="#93D3F5" stroke-width="0.559808833" fill="#93D3F5"></path>
                    <polygon id="Fill-25" fill="#FFFFFF" points="26.9458426 9.5 46.6033769 9.5 46.6033769 8.94117647 26.9458426 8.94117647"></polygon>
                    <polygon id="Fill-27" fill="#FFFFFF" points="17.4109589 15.6470588 71.3287671 15.6470588 71.3287671 15.0882353 17.4109589 15.0882353"></polygon>
                    <polygon id="Fill-29" fill="#FFFFFF" points="51.7365403 21.2352941 71.3940745 21.2352941 71.3940745 20.6764706 51.7365403 20.6764706"></polygon>
                    <polygon id="Fill-34" fill="#FFFFFF" points="51.6581714 9.5 71.3157056 9.5 71.3157056 8.94117647 51.6581714 8.94117647"></polygon>
                </g>
                <polygon id="Path-4-Copy-5" fill="url(#linearGradient-3)" opacity="0.200409226" transform="translate(286.456583, 197.250000) rotate(-120.000000) translate(-286.456583, -197.250000) " points="322.586138 118.355694 210.018695 276.144306 362.894471 168.289028"></polygon>
                <path d="M616.675,208.425727 C616.675,226.00733 602.420715,240.259157 584.8375,240.259157 C567.254285,240.259157 553,226.00733 553,208.425727 C553,190.84476 567.254285,176.592297 584.8375,176.592297 C602.420715,176.592297 616.675,190.84476 616.675,208.425727" id="Fill-80-Copy" fill="#E854BB"></path>
                <polygon id="Path-4-Copy-2" fill="url(#linearGradient-4)" opacity="0.200409226" points="362 43 393.625 200 425.25 45"></polygon>
                <path d="M426.675,41.8334301 C426.675,59.4143969 412.421351,73.6668602 394.8375,73.6668602 C377.254285,73.6668602 363,59.4143969 363,41.8334301 C363,24.2524633 377.254285,10 394.8375,10 C412.421351,10 426.675,24.2524633 426.675,41.8334301" id="Fill-93" fill="#00B800"></path>
                <path d="M563.675,103.83343 C563.675,121.415034 549.420715,135.66686 531.8375,135.66686 C514.254285,135.66686 500,121.415034 500,103.83343 C500,86.2524633 514.254285,72 531.8375,72 C549.420715,72 563.675,86.2524633 563.675,103.83343" id="Fill-80" fill="#0091F5"></path>
                <path d="M548,93.875 C547.237284,95.0416725 546.220345,96.0833287 544.949153,97 L544.949153,97.75 C544.949153,102.125022 543.349592,106.093732 540.150424,109.65625 C536.951255,113.218768 532.703416,115 527.40678,115 C524.016932,115 520.88137,114.083342 518,112.25 C518.677969,112.333334 519.165253,112.375 519.461864,112.375 C522.300862,112.375 524.843209,111.500009 527.088983,109.75 C525.775417,109.708333 524.588988,109.302087 523.529661,108.53125 C522.470334,107.760413 521.750002,106.770839 521.368644,105.5625 C521.877121,105.645834 522.258473,105.6875 522.512712,105.6875 C522.936443,105.6875 523.487285,105.604168 524.165254,105.4375 C522.766942,105.145832 521.591106,104.447922 520.637712,103.34375 C519.684317,102.239578 519.207627,100.958341 519.207627,99.5 L519.207627,99.4375 C520.139835,99.9375025 521.072029,100.1875 522.004237,100.1875 C520.182194,99.0208275 519.271186,97.3333444 519.271186,95.125 C519.271186,94.0833281 519.546607,93.0833381 520.097458,92.125 C523.360186,96.0833531 527.576245,98.1874988 532.745763,98.4375 C532.661017,98.1458319 532.618644,97.6875031 532.618644,97.0625 C532.618644,95.3541581 533.211858,93.9166725 534.398305,92.75 C535.584752,91.5833275 537.046601,91 538.783898,91 C540.521195,91 542.004231,91.6458269 543.233051,92.9375 C544.504244,92.7291656 545.81779,92.2291706 547.173729,91.4375 C546.749998,92.8958406 545.83899,94.0208294 544.440678,94.8125 C545.754244,94.6874994 546.940673,94.3750025 548,93.875 Z" id="ion-social-twitter---Ionicons" fill="#FFFFFF"></path>
                <path d="M239.645149,174.83343 C239.645149,192.414397 225.391501,206.66686 207.807649,206.66686 C190.224435,206.66686 175.970149,192.414397 175.970149,174.83343 C175.970149,157.252463 190.224435,143 207.807649,143 C225.391501,143 239.645149,157.252463 239.645149,174.83343" id="Fill-93-Copy" fill="#93D3F5"></path>
                <path d="M306.962687,81.0508133 C306.962687,98.6324167 292.708401,112.884243 275.125187,112.884243 C257.541972,112.884243 243.287687,98.6324167 243.287687,81.0508133 C243.287687,63.4698465 257.541972,49.2173832 275.125187,49.2173832 C292.708401,49.2173832 306.962687,63.4698465 306.962687,81.0508133" id="Fill-86" fill="#0260AD"></path>
                <path d="M280.796715,66.191621 L280.796715,70.4072839 L278.289673,70.4072839 C276.325557,70.4072839 275.958284,71.3494207 275.958284,72.7067364 L275.958284,75.7247678 L280.637031,75.7247678 L280.014262,80.4514202 L275.958284,80.4514202 L275.958284,92.571451 L271.071947,92.571451 L271.071947,80.4514202 L267,80.4514202 L267,75.7247678 L271.071947,75.7247678 L271.071947,72.2436522 C271.071947,68.203642 273.547052,66 277.155915,66 C278.880505,66 280.365568,66.1277474 280.796715,66.191621 Z" id="facebook---FontAwesome" fill="#FFFFFF"></path>
                <path d="M173.469934,355.646148 C177.010391,356.846633 179.816526,359.652409 181.017164,363.193047 C182.217169,359.652409 185.023937,356.846633 188.564394,355.646148 C185.023937,354.445663 182.217169,351.639887 181.017164,348.099883 C179.816526,351.639887 177.010391,354.445663 173.469934,355.646148 Z M181.650746,367.049168 L180.383582,367.049168 C180.383582,361.111362 175.551885,356.279649 169.612687,356.279649 L169.612687,355.012647 C175.551885,355.012647 180.383582,350.181568 180.383582,344.243128 L181.650746,344.243128 C181.650746,350.181568 186.482443,355.012647 192.421642,355.012647 L192.421642,356.279649 C186.482443,356.279649 181.650746,361.111362 181.650746,367.049168 Z" id="Fill-123" fill="#54A0E8"></path>
                <path d="M283.713218,28.7595822 C287.253675,29.9600668 290.060443,32.7658431 291.260448,36.3064807 C292.461086,32.7658431 295.267221,29.9600668 298.807678,28.7595822 C295.267221,27.5590976 292.461086,24.7533212 291.260448,21.2133171 C290.060443,24.7533212 287.253675,27.5590976 283.713218,28.7595822 Z M291.89403,40.1626019 L290.626866,40.1626019 C290.626866,34.2241626 285.795169,29.3930833 279.85597,29.3930833 L279.85597,28.1260811 C279.86294,28.1260811 279.869909,28.1260811 279.876878,28.1260811 C285.806573,28.1153116 290.626866,23.2880332 290.626866,17.3565624 L291.89403,17.3565624 C291.89403,23.2950017 296.725727,28.1260811 302.664925,28.1260811 L302.664925,29.3930833 C302.657956,29.3930833 302.65162,29.3930833 302.644017,29.3930833 C296.714322,29.4044863 291.89403,34.2311311 291.89403,40.1626019 Z" id="Fill-124" fill="#54A0E8"></path>
                <path d="M195.747948,106.075511 C192.532015,106.075511 189.916113,108.691079 189.916113,111.906601 C189.916113,115.122123 192.532015,117.737691 195.747948,117.737691 C198.963881,117.737691 201.579783,115.122123 201.579783,111.906601 C201.579783,108.691079 198.963881,106.075511 195.747948,106.075511 Z M195.747948,119.033488 C191.817291,119.033488 188.620149,115.836108 188.620149,111.906601 C188.620149,107.976447 191.817291,104.779714 195.747948,104.779714 C199.677957,104.779714 202.875746,107.976447 202.875746,111.906601 C202.875746,115.836108 199.677957,119.033488 195.747948,119.033488 Z" id="Fill-125" fill="#54A0E8"></path>
                <polyline id="Fill-128" fill="#FFFFFF" points="169.612687 180.32472 221.883209 180.32472 169.612687 180.32472"></polyline>
                <polyline id="Fill-132" fill="#FFFFFF" points="231.38694 180.32472 257.997388 180.32472 231.38694 180.32472"></polyline>
                <g id="Group-4" transform="translate(253.000000, 219.000000)" fill="#54A0E8">
                    <polygon id="Fill-134" points="5.44179104 12.0385213 6.39216418 12.0385213 6.39216418 0.635501594 5.44179104 0.635501594"></polygon>
                    <polygon id="Fill-135" points="0.689925373 6.33701146 12.094403 6.33701146 12.094403 5.38675982 0.689925373 5.38675982"></polygon>
                </g>
                <g id="Group-6" transform="translate(526.298507, 252.702609)" fill="#54A0E8">
                    <polygon id="Fill-136" points="5.27985075 11.893791 6.23022388 11.893791 6.23022388 0.490771213 5.27985075 0.490771213"></polygon>
                    <polygon id="Fill-137" points="0.527985075 6.19228108 11.9324627 6.19228108 11.9324627 5.24202944 0.527985075 5.24202944"></polygon>
                </g>
                <path d="M462.802799,358.496903 C454.142409,358.496903 447.121642,351.477033 447.121642,342.817751 C447.121642,334.158469 454.142409,327.138599 462.802799,327.138599 C471.463188,327.138599 478.483955,334.158469 478.483955,342.817751 C478.483955,351.477033 471.463188,358.496903 462.802799,358.496903" id="Fill-150" fill="#FBEBC9"></path>
                <path d="M473.73209,342.817751 C473.73209,348.600831 469.114529,353.346567 463.277985,353.745645 C464.543342,350.33511 465.232333,346.653796 465.232333,342.817751 C465.232333,338.981705 464.543342,335.300391 463.277985,331.889857 C469.114529,332.289579 473.73209,337.041763 473.73209,342.817751" id="Fill-151" fill="#F4E3BF"></path>
                <path d="M463.277985,331.889857 C464.543342,335.300391 465.232333,338.981705 465.232333,342.817751 C465.232333,346.653796 464.543342,350.33511 463.277985,353.745645 C469.114529,353.345922 473.73209,348.600831 473.73209,342.817751 C473.73209,337.041118 469.114529,332.289579 463.277985,331.889857 Z M465.215771,333.525495 C469.3782,334.691782 472.407108,338.449172 472.407108,342.817751 C472.407108,347.186974 469.3782,350.944365 465.215771,352.110007 C466.106821,349.104352 466.557314,345.987807 466.557314,342.817751 C466.557314,339.647694 466.106821,336.531149 465.215771,333.525495 Z" id="Fill-152" fill="#FFFFFF"></path>
                <path d="M342.707326,337.268897 C347.876232,346.130497 350.735896,356.340326 350.735896,366.967917 L350.735896,391.755711 L263.699627,391.755711 L263.699627,345.00634 C263.699627,309.399166 277.984659,275.282006 303.351521,250.30622 L344.991261,209.307395 C352.260628,216.580869 355.885821,226.10076 355.885821,235.62065 C355.885821,245.241182 352.184707,254.862981 344.782481,262.147849 L320.804327,285.758316 L320.804327,315.671913 C330.047621,320.893927 337.532094,328.407298 342.707326,337.268897" id="Fill-153" fill="#FBEBC9"></path>
                <path d="M463.481636,285.327526 L450.719483,285.327526 C441.90913,285.327526 434.766791,278.307656 434.766791,269.648374 C434.766791,260.989092 441.90913,253.969222 450.719483,253.969222 L463.481636,253.969222 C472.291989,253.969222 479.434328,260.989092 479.434328,269.648374 C479.434328,278.307656 472.291989,285.327526 463.481636,285.327526" id="Fill-154" fill="#FBEBC9"></path>
                <path d="M463.481636,321.437089 L450.719483,321.437089 C441.90913,321.437089 434.766791,314.417219 434.766791,305.757937 C434.766791,297.098655 441.90913,290.078785 450.719483,290.078785 L463.481636,290.078785 C472.291989,290.078785 479.434328,297.098655 479.434328,305.757937 C479.434328,314.417219 472.291989,321.437089 463.481636,321.437089" id="Fill-155" fill="#FBEBC9"></path>
                <path d="M465.178731,305.757937 C465.178731,311.787563 460.209261,316.685831 454.091987,316.685831 L450.923134,316.685831 C452.175284,313.279542 452.860054,309.596199 452.860054,305.757937 C452.860054,301.920317 452.175284,298.243403 450.923134,294.830043 L454.091987,294.830043 C460.209261,294.830043 465.178731,299.734739 465.178731,305.757937" id="Fill-156" fill="#F4E3BF"></path>
                <path d="M454.091987,294.830043 L450.923134,294.830043 C452.175284,298.243403 452.860054,301.920317 452.860054,305.757937 C452.860054,309.595556 452.175284,313.278899 450.923134,316.685831 L454.091987,316.685831 C460.209261,316.685831 465.178731,311.787563 465.178731,305.757937 C465.178731,299.734739 460.209261,294.830043 454.091987,294.830043 Z M454.091987,296.115677 C459.486014,296.115677 463.874408,300.441195 463.874408,305.757937 C463.874408,311.074678 459.486014,315.400196 454.091987,315.400196 L452.729622,315.400196 C453.682429,312.285746 454.164377,309.050447 454.164377,305.757937 C454.164377,302.470569 453.681777,299.23527 452.728969,296.115677 L454.091987,296.115677 Z" id="Fill-157" fill="#FFFFFF"></path>
                <path d="M238.989925,287.703155 C238.989925,305.284122 224.73564,319.536585 207.152425,319.536585 C189.569211,319.536585 175.314925,305.284122 175.314925,287.703155 C175.314925,270.122189 189.569211,255.869725 207.152425,255.869725 C224.73564,255.869725 238.989925,270.122189 238.989925,287.703155" id="Fill-144" fill="#A3E060"></path>
                <path d="M589.675,320.83343 C589.675,338.414397 575.420714,352.66686 557.8375,352.66686 C540.254285,352.66686 526,338.414397 526,320.83343 C526,303.251827 540.254285,289 557.8375,289 C575.420714,289 589.675,303.251827 589.675,320.83343" id="Fill-138" fill="#115579"></path>
                <path d="M465.178731,269.648374 C465.178731,275.678 460.209261,280.576268 454.091987,280.576268 L450.923134,280.576268 C452.175284,277.169336 452.860054,273.485993 452.860054,269.648374 C452.860054,265.810755 452.175284,262.13384 450.923134,258.72048 L454.091987,258.72048 C460.209261,258.72048 465.178731,263.625176 465.178731,269.648374" id="Fill-158" fill="#F4E3BF"></path>
                <path d="M454.091987,258.72048 L450.923134,258.72048 C452.175284,262.13384 452.860054,265.810755 452.860054,269.648374 C452.860054,273.485993 452.175284,277.169336 450.923134,280.576268 L454.091987,280.576268 C460.209261,280.576268 465.178731,275.678 465.178731,269.648374 C465.178731,263.625176 460.209261,258.72048 454.091987,258.72048 Z M454.091987,260.006115 C459.486014,260.006115 463.874408,264.331632 463.874408,269.648374 C463.874408,274.965116 459.486014,279.290633 454.091987,279.290633 L452.729622,279.290633 C453.682429,276.176184 454.164377,272.940884 454.164377,269.648374 C454.164377,266.361007 453.681777,263.125707 452.728969,260.006115 L454.091987,260.006115 Z" id="Fill-159" fill="#FFFFFF"></path>
                <polygon id="Fill-160" fill="#EDD5A1" points="350.183582 416.462253 351.133955 416.462253 351.133955 378.452187 350.183582 378.452187"></polygon>
                <path d="M327.504252,234.964189 C327.483238,234.964189 327.462223,234.964189 327.441845,234.964189 C325.253782,234.947549 323.204542,234.075883 321.672388,232.508548 L322.579836,231.611282 C323.873824,232.934141 325.603388,233.67013 327.451397,233.684209 C327.468591,233.684209 327.485785,233.684209 327.504252,233.684209 C329.331247,233.684209 331.053169,232.976381 332.35862,231.686801 L345.719435,218.46845 C344.50441,216.54272 343.052493,214.726429 341.397436,213.063735 L342.297879,212.15815 C344.146525,214.01604 345.751912,216.058248 347.071372,218.229094 L347.332463,218.659167 L346.730045,219.264597 L333.251421,232.599426 C331.705894,234.125802 329.666843,234.964189 327.504252,234.964189" id="Fill-161" fill="#FFFFFF"></path>
                <path d="M264.019425,391.755711 L262.749254,391.755711 L262.749254,344.878647 C262.749254,327.025162 266.249212,309.622948 273.151325,293.156282 C280.053438,276.688982 290.009679,261.989957 302.742515,249.467319 L344.540691,208.357143 L345.431716,209.261591 L303.632906,250.371767 C278.458737,275.132062 264.019425,309.578519 264.019425,344.878647 L264.019425,391.755711" id="Fill-162" fill="#EDD5A1"></path>
                <g id="whatsapp-logo" transform="translate(378.430970, 23.298490)" fill="#FFFFFF" fill-rule="nonzero">
                    <path d="M33,16.0750333 C33,24.9531333 25.7477,32.1500667 16.7999333,32.1500667 C13.9593667,32.1500667 11.2907667,31.4240667 8.96903333,30.1499 L0,33 L2.92416667,24.3752667 C1.44906667,21.9530667 0.5995,19.1121333 0.5995,16.0750333 C0.5995,7.19693333 7.85253333,0 16.7999333,0 C25.7484333,0 33,7.19693333 33,16.0750333 Z M16.7999333,2.56006667 C9.28913333,2.56006667 3.17973333,8.6229 3.17973333,16.0750333 C3.17973333,19.0322 4.1437,21.7708333 5.77426667,23.9987 L4.07256667,29.018 L9.30673333,27.3544333 C11.4572333,28.7664667 14.0334333,29.59 16.8003,29.59 C24.31,29.59 30.4205,23.5279 30.4205,16.0757667 C30.4205,8.62363333 24.3103667,2.56006667 16.7999333,2.56006667 Z M24.9806333,19.7772667 C24.8805333,19.6133667 24.6161667,19.5143667 24.2194333,19.3174667 C23.8219667,19.1205667 21.8691,18.1668667 21.5061,18.0359667 C21.142,17.9047 20.8765333,17.8387 20.6121667,18.2328667 C20.3478,18.6274 19.5866,19.5143667 19.3545,19.7772667 C19.1227667,20.0409 18.8914,20.0739 18.4939333,19.8766333 C18.0972,19.6797333 16.8179,19.2632 15.301,17.9212 C14.1207,16.8769333 13.3235667,15.5877333 13.0918333,15.1928333 C12.8604667,14.7986667 13.0676333,14.5856333 13.266,14.3894667 C13.4449333,14.2127333 13.6634667,13.9293 13.8618333,13.6994 C14.0609333,13.4691333 14.1269333,13.3052333 14.2585667,13.0419667 C14.3916667,12.7790667 14.3253,12.5491667 14.2255667,12.3515333 C14.1265667,12.1546333 13.3316333,10.2157 13.0009,9.42663333 C12.6701667,8.6383 12.3398,8.76956667 12.1077,8.76956667 C11.8763333,8.76956667 11.6112333,8.73656667 11.3465,8.73656667 C11.0817667,8.73656667 10.6513,8.8352 10.2872,9.22936667 C9.92346667,9.6239 8.8979,10.5772333 8.8979,12.5158 C8.8979,14.4547333 10.3202,16.3280333 10.5193,16.5905667 C10.7176667,16.8531 13.2656333,20.9612333 17.3026333,22.539 C21.34,24.1160333 21.34,23.5898667 22.0682,23.5238667 C22.7956667,23.4582333 24.4170667,22.5709 24.7492667,21.6513 C25.0792667,20.7302333 25.0792667,19.9415333 24.9806333,19.7772667 Z" id="WhatsApp"></path>
                </g>
                <path d="M206.118215,177.762551 L205.437609,177.762551 C205.21074,177.762551 204.989029,177.757396 204.772472,177.747087 C204.555914,177.736778 204.303268,177.711006 204.014525,177.669769 C203.870153,177.834715 203.555634,178.113059 203.070957,178.504806 C202.586281,178.896554 202.013959,179.308914 201.353975,179.741899 C200.69399,180.174883 199.997923,180.566625 199.265753,180.917137 C198.533582,181.267648 197.847827,181.494446 197.208467,181.597537 L197.17753,181.597537 L197.115657,181.613001 C197.074408,181.62331 197.03316,181.628465 196.991911,181.628465 C196.785665,181.628465 196.615516,181.556302 196.481456,181.411974 C196.347397,181.267645 196.280368,181.092392 196.280368,180.886209 C196.280368,180.824354 196.285524,180.772809 196.295836,180.731573 C196.306149,180.690336 196.321617,180.6491 196.342241,180.607863 L196.311305,180.607863 C196.558799,180.195497 196.904255,179.561494 197.347682,178.705834 C197.791109,177.850174 198.012819,177.061536 198.012819,176.339895 L198.012819,176.27804 C197.167214,175.845056 196.424742,175.308988 195.785382,174.66982 C195.146022,174.030652 194.620105,173.32964 194.207614,172.566763 C193.795124,171.803885 193.485761,170.999783 193.279516,170.154433 C193.07327,169.309082 192.970149,168.474053 192.970149,167.649321 C192.970149,166.309131 193.305293,165.051433 193.97559,163.876189 C194.645886,162.700945 195.56882,161.680354 196.744418,160.814385 C197.920015,159.948416 199.291525,159.262868 200.858989,158.757719 C202.426452,158.252571 204.107325,158 205.901659,158 C207.675367,158 209.340772,158.252571 210.897924,158.757719 C212.455075,159.262868 213.811117,159.948416 214.96609,160.814385 C216.121063,161.680354 217.033684,162.700945 217.703981,163.876189 C218.374278,165.051433 218.709422,166.309131 218.709422,167.649321 C218.730046,169.154457 218.420683,170.530709 217.781323,171.778117 C217.141963,173.025524 216.255122,174.092506 215.120773,174.979093 C213.986424,175.86568 212.645851,176.551229 211.099012,177.035759 C209.552173,177.520289 207.891924,177.762551 206.118215,177.762551 Z M203.210172,175.628567 L204.292954,175.721349 C204.767318,175.783203 205.200427,175.81413 205.592292,175.81413 L206.180088,175.81413 C207.685678,175.81413 209.082969,175.613105 210.372001,175.211048 C211.661034,174.808991 212.774741,174.241996 213.713157,173.510046 C214.651572,172.778096 215.388888,171.91214 215.925125,170.912152 C216.461363,169.912164 216.729478,168.824564 216.729478,167.649321 C216.729478,166.577169 216.445895,165.577196 215.87872,164.649372 C215.311546,163.721548 214.543294,162.912291 213.573942,162.221578 C212.604589,161.530864 211.459946,160.984487 210.139976,160.58243 C208.820007,160.180373 207.407249,159.979348 205.901659,159.979348 C204.396069,159.979348 202.978154,160.180373 201.647873,160.58243 C200.317591,160.984487 199.152323,161.530864 198.152034,162.221578 C197.151745,162.912291 196.368025,163.721548 195.80085,164.649372 C195.233676,165.577196 194.950093,166.577169 194.950093,167.649321 C194.950093,168.927656 195.269769,170.216281 195.909129,171.515234 C196.548489,172.814188 197.548763,173.814161 198.909981,174.515183 L199.992763,175.071875 L199.899953,176.27804 L199.83808,176.819268 C199.796831,177.180088 199.600901,177.83471 199.250284,178.783152 C199.807146,178.453259 200.358844,178.066672 200.905394,177.623378 C201.451943,177.180084 201.797399,176.86566 201.941771,176.680095 L203.210172,175.628567 Z M224.649254,175.628567 C224.649254,177.071848 224.298642,178.34501 223.597408,179.448089 C222.896175,180.551169 221.813404,181.473824 220.349063,182.216084 C220.349063,182.236702 220.349063,182.252165 220.349063,182.262475 C220.349063,182.272784 220.349063,182.277938 220.349063,182.277938 C220.349063,182.917106 220.472808,183.659354 220.720302,184.504704 C220.967797,185.350055 221.194663,185.947977 221.400908,186.298488 C221.421533,186.339725 221.437001,186.380961 221.447313,186.422198 C221.457625,186.463434 221.462781,186.50467 221.462781,186.545907 C221.462781,186.731472 221.400909,186.886107 221.277162,187.009817 C221.153414,187.133526 220.998733,187.19538 220.813112,187.19538 C220.792488,187.19538 220.761551,187.19538 220.720302,187.19538 C220.679053,187.19538 220.658429,187.19538 220.658429,187.19538 C220.637805,187.19538 220.627492,187.19538 220.627492,187.19538 C219.534393,187.009816 218.430998,186.45313 217.317273,185.525306 C216.203549,184.597482 215.533263,183.989251 215.306393,183.700594 C215.058899,183.721213 214.842344,183.736676 214.656724,183.746985 C214.471103,183.757295 214.275173,183.762449 214.068928,183.762449 C213.965805,183.762449 213.86784,183.762449 213.77503,183.762449 C213.68222,183.762449 213.584255,183.762449 213.481132,183.762449 C212.47053,183.762449 211.516661,183.674823 210.619494,183.499567 C209.722327,183.324311 208.881891,183.066586 208.098159,182.726384 C207.314427,182.386182 206.602892,181.973822 205.963532,181.489292 C205.324172,181.004762 204.757006,180.463539 204.262018,179.865608 C204.303267,179.824371 204.844652,179.803753 205.88619,179.803753 C206.927729,179.803753 207.335057,179.814062 207.108187,179.834681 C207.953792,180.494467 208.892194,180.984144 209.92342,181.303728 C210.954646,181.623312 212.140538,181.783101 213.481132,181.783101 C213.481132,181.783101 213.682218,181.783101 214.084396,181.783101 C214.486574,181.783101 214.790781,181.762483 214.997027,181.721247 L216.048872,181.56661 C216.048872,181.56661 216.239646,181.824335 216.621199,182.339793 C217.002753,182.855251 217.678196,183.463482 218.647548,184.164504 C218.56505,183.855229 218.503178,183.246998 218.461929,182.339793 C218.42068,181.432587 218.400055,180.978991 218.400055,180.978991 L219.359091,180.515082 C220.534688,179.917151 221.380281,179.221293 221.895894,178.427488 C222.411507,177.633683 222.66931,176.700719 222.66931,175.628567 C222.66931,174.762598 222.519784,174.010041 222.220729,173.370873 C221.921673,172.731705 221.349351,172.113165 220.503746,171.515234 C220.606869,171.185341 220.704834,170.834835 220.797644,170.463706 C220.890454,170.092576 220.957483,169.731761 220.998732,169.38125 C222.298077,170.144127 223.231322,171.04101 223.798497,172.071926 C224.365671,173.102841 224.649254,174.288376 224.649254,175.628567 Z" id="Bubbles---simple-line-icons-Copy" fill="#FFFFFF"></path>
                <path d="M221.317444,273.455575 C221.853682,273.455575 222.317726,273.651446 222.709592,274.043194 C223.101458,274.434942 223.297388,274.898847 223.297388,275.434923 L223.297388,298.197423 C223.297388,298.733499 223.101458,299.197404 222.709592,299.589152 C222.317726,299.980899 221.853682,300.176771 221.317444,300.176771 L193.598228,300.176771 C193.06199,300.176771 192.597945,299.980899 192.206079,299.589152 C191.814214,299.197404 191.618284,298.733499 191.618284,298.197423 L191.618284,275.434923 C191.618284,274.898847 191.814214,274.434942 192.206079,274.043194 C192.597945,273.651446 193.06199,273.455575 193.598228,273.455575 L221.317444,273.455575 Z M221.317444,298.197423 L221.317444,296.372711 L221.271039,296.32632 C221.260727,296.316011 221.245259,296.310857 221.224634,296.310857 L214.727943,289.599631 L211.108358,292.877925 C210.881488,293.042872 210.639153,293.130498 210.381347,293.140808 C210.12354,293.151117 209.912142,293.053181 209.747146,292.846998 L201.54894,284.682188 L193.598228,292.383088 L193.598228,298.197423 L221.317444,298.197423 Z M221.317444,293.558326 L221.317444,275.434923 L193.598228,275.434923 L193.598228,289.599631 L200.837398,282.579131 C200.940521,282.47604 201.053954,282.403877 201.177701,282.36264 C201.301448,282.321403 201.435505,282.300785 201.579877,282.300785 C201.703624,282.300785 201.827369,282.331712 201.951116,282.393567 C202.074864,282.455422 202.188297,282.548203 202.291419,282.671913 L210.458688,290.774868 L214.20202,287.527501 C214.408265,287.362554 214.629976,287.290391 214.867158,287.31101 C215.10434,287.331628 215.315738,287.424409 215.501358,287.589355 L221.317444,293.558326 Z M214.38764,283.352314 C213.851402,283.352314 213.387358,283.161597 212.995492,282.780159 C212.603626,282.39872 212.407696,281.929661 212.407696,281.372966 C212.407696,280.83689 212.603626,280.372985 212.995492,279.981237 C213.387358,279.589489 213.851402,279.393618 214.38764,279.393618 C214.923877,279.393618 215.387922,279.589489 215.779788,279.981237 C216.171654,280.372985 216.367584,280.83689 216.367584,281.372966 C216.367584,281.929661 216.171654,282.39872 215.779788,282.780159 C215.387922,283.161597 214.923877,283.352314 214.38764,283.352314 Z" id="Picture---simple-line-icons-Copy" fill="#FFFFFF"></path>
                <path d="M590.307847,207.927602 C590.307847,205.370789 588.251915,203.285446 585.731165,203.285446 C583.210414,203.285446 581.154482,205.370789 581.154482,207.927602 C581.154482,210.484415 583.210414,212.569758 585.731165,212.569758 C588.251915,212.569758 590.307847,210.484415 590.307847,207.927602 Z M592.774965,207.927602 C592.774965,211.880688 589.628496,215.072171 585.731165,215.072171 C581.833833,215.072171 578.687364,211.880688 578.687364,207.927602 C578.687364,203.974516 581.833833,200.783033 585.731165,200.783033 C589.628496,200.783033 592.774965,203.974516 592.774965,207.927602 Z M594.705753,200.492899 C594.705753,201.417703 593.972768,202.161174 593.061007,202.161174 C592.149247,202.161174 591.416262,201.417703 591.416262,200.492899 C591.416262,199.568094 592.149247,198.824624 593.061007,198.824624 C593.972768,198.824624 594.705753,199.568094 594.705753,200.492899 Z M585.731165,196.503546 C583.728866,196.503546 579.438226,196.340345 577.632582,197.065682 C577.006864,197.31955 576.542044,197.627818 576.059347,198.11742 C575.57665,198.607023 575.27273,199.078492 575.022443,199.713162 C574.307336,201.544637 574.468235,205.896659 574.468235,207.927602 C574.468235,209.958545 574.307336,214.310567 575.022443,216.142042 C575.27273,216.776712 575.57665,217.248181 576.059347,217.737784 C576.542044,218.227386 577.006864,218.535654 577.632582,218.789522 C579.438226,219.514859 583.728866,219.351658 585.731165,219.351658 C587.733463,219.351658 592.024103,219.514859 593.829747,218.789522 C594.455465,218.535654 594.920285,218.227386 595.402982,217.737784 C595.885679,217.248181 596.189599,216.776712 596.439886,216.142042 C597.154993,214.310567 596.994094,209.958545 596.994094,207.927602 C596.994094,205.896659 597.154993,201.544637 596.439886,199.713162 C596.189599,199.078492 595.885679,198.607023 595.402982,198.11742 C594.920285,197.627818 594.455465,197.31955 593.829747,197.065682 C592.024103,196.340345 587.733463,196.503546 585.731165,196.503546 Z M599.461212,207.927602 C599.461212,209.849745 599.479089,211.753754 599.371823,213.675897 C599.264557,215.906308 598.763983,217.882851 597.154993,219.514859 C595.546003,221.146867 593.597337,221.654603 591.398385,221.763404 C589.503352,221.872204 587.626197,221.854071 585.731165,221.854071 C583.836132,221.854071 581.958977,221.872204 580.063945,221.763404 C577.864992,221.654603 575.916326,221.146867 574.307336,219.514859 C572.698346,217.882851 572.197772,215.906308 572.090506,213.675897 C571.98324,211.753754 572.001117,209.849745 572.001117,207.927602 C572.001117,206.005459 571.98324,204.10145 572.090506,202.179307 C572.197772,199.948896 572.698346,197.972353 574.307336,196.340345 C575.916326,194.708337 577.864992,194.200601 580.063945,194.0918 C581.958977,193.983 583.836132,194.001133 585.731165,194.001133 C587.626197,194.001133 589.503352,193.983 591.398385,194.0918 C593.597337,194.200601 595.546003,194.708337 597.154993,196.340345 C598.763983,197.972353 599.264557,199.948896 599.371823,202.179307 C599.479089,204.10145 599.461212,206.005459 599.461212,207.927602 Z" id="instagram---FontAwesome" fill="#FFFFFF"></path>
                <path d="M549.577455,307.501339 C551.962438,305.167101 554.829448,304 558.178571,304 C561.527695,304 564.394705,305.167101 566.779688,307.501339 C569.16467,309.835577 570.357143,312.651844 570.357143,315.950223 C570.357143,318.588927 569.342272,321.760398 567.3125,325.464732 C565.282728,329.169066 563.252986,332.213679 561.223214,334.598661 L558.178571,338.1 C557.823361,337.74479 557.379355,337.250041 556.84654,336.615737 C556.313725,335.981433 555.349598,334.750902 553.95413,332.924107 C552.558661,331.097312 551.32813,329.321289 550.2625,327.595982 C549.19687,325.870676 548.220057,323.91705 547.332031,321.735045 C546.444006,319.55304 546,317.624785 546,315.950223 C546,312.651844 547.192473,309.835577 549.577455,307.501339 Z M555.057813,318.994866 C555.920466,319.806775 556.960708,320.212723 558.178571,320.212723 C559.396435,320.212723 560.423991,319.794089 561.261272,318.956808 C562.098553,318.119527 562.517188,317.117342 562.517188,315.950223 C562.517188,314.783104 562.098553,313.780919 561.261272,312.943638 C560.423991,312.106357 559.396435,311.687723 558.178571,311.687723 C556.960708,311.687723 555.933152,312.106357 555.095871,312.943638 C554.25859,313.780919 553.839955,314.783104 553.839955,315.950223 C553.839955,317.117342 554.245904,318.132213 555.057813,318.994866 Z" id="ion-android-pin---Ionicons" fill="#FFFFFF"></path>
                <g id="Group-22-Copy-2" transform="translate(175.000000, 256.000000)">
                    <path d="M63.675,31.8334301 C63.675,49.4150335 49.4207145,63.6668602 31.8375,63.6668602 C14.2542855,63.6668602 0,49.4150335 0,31.8334301 C0,14.2524633 14.2542855,0 31.8375,0 C49.4207145,0 63.675,14.2524633 63.675,31.8334301" id="Fill-80" fill="#F5EA30"></path>
                    <g id="Group-26" transform="translate(15.000000, 15.000000)">
                        <path d="M16.8046459,32 C16.7191714,32 16.6350603,31.9975223 16.5510541,31.9934287 L16.5508444,31.9934287 C16.4973572,31.99763 16.4412482,32 16.3852441,32 C14.4190162,32 13.1569302,31.0836767 11.9365852,30.1974092 C11.0939012,29.585737 10.2987262,29.0084296 9.36175798,28.8481323 C8.90460055,28.7703536 8.44954066,28.7309256 8.00968788,28.7309256 C7.21744947,28.7309256 6.59248936,28.856535 6.13617094,28.9482104 C5.85887701,29.0039051 5.61965331,29.0518435 5.43790203,29.0518435 C5.24797037,29.0518435 5.04209746,29.0096146 4.95274253,28.695699 C4.87492404,28.4236891 4.81871014,28.1602973 4.76469865,27.9055237 C4.62531755,27.2496836 4.52631397,26.8464625 4.25877357,26.8042337 C1.14016074,26.3094449 0.24755535,25.6347526 0.0486042957,25.1560152 C0.0203924699,25.0876087 0.00434633854,25.0189868 0.000570778216,24.951119 C-0.00960225934,24.7672295 0.117298518,24.6047777 0.29422547,24.5751528 C5.0882432,23.7641863 7.2380053,18.7313027 7.32725535,18.5175729 C7.32966751,18.5116479 7.33228943,18.5059384 7.33491135,18.5000135 C7.62835628,17.8893108 7.6858287,17.35908 7.50627983,16.9245105 C7.1772817,16.128087 6.10428843,15.778083 5.39406358,15.5466861 C5.22028293,15.4902373 5.05552167,15.4368048 4.92557947,15.3840187 C3.50827608,14.8085427 3.39039469,14.2177695 3.44597933,13.9166734 C3.5409976,13.4036789 4.20853764,13.046134 4.74833789,13.046134 C4.89631888,13.046134 5.02668059,13.0730656 5.13627671,13.1256363 C5.77382203,13.4324419 6.34844133,13.5878915 6.84419338,13.5878915 C7.52924783,13.5878915 7.82825123,13.2921817 7.86485319,13.2534001 C7.84744366,12.9200937 7.82583907,12.5720288 7.80371009,12.212868 C7.66097293,9.88467857 7.48404598,6.99189357 8.20108781,5.34065875 C10.3502207,0.390940185 14.9076366,0.00646360184 16.2532043,0.00646360184 C16.2877088,0.00646360184 16.8431356,0.000323180092 16.8431356,0.000323180092 L16.9228419,0 C18.271556,0 22.8389352,0.38523067 24.9892217,5.3376424 C25.7064733,6.98973903 25.5290219,9.88510948 25.386075,12.2114675 L25.3800971,12.3126229 C25.3602754,12.6365571 25.3411878,12.9514422 25.3251417,13.2528615 C25.3594364,13.2887345 25.634423,13.5607444 26.2555027,13.5851984 L26.2562368,13.5851984 C26.7281818,13.5666694 27.270604,13.4120815 27.865884,13.1256363 C28.0403988,13.0419326 28.234106,13.0242654 28.3660409,13.0242654 C28.567509,13.0242654 28.7717039,13.0643398 28.9412895,13.1370553 L28.9515674,13.1413644 C29.4330562,13.3166357 29.7485252,13.6633002 29.7552373,14.0254774 C29.7615299,14.3666478 29.508043,14.8794269 28.2644154,15.3840187 C28.135522,15.4360507 27.9707607,15.4898064 27.7963508,15.5466861 C27.0852869,15.7784062 26.0127132,16.128087 25.6839248,16.9244028 C25.5041662,17.3587568 25.5617435,17.8885567 25.8550835,18.4996903 C25.8577054,18.5056153 25.860642,18.5113248 25.8628444,18.5175729 C25.9520944,18.7310872 28.0999688,23.7625704 32.8961889,24.5743988 C33.0732207,24.6044545 33.199702,24.7666909 33.1899485,24.9506881 C33.1859632,25.0197409 33.1696024,25.0892246 33.1409711,25.1567693 C32.9430688,25.6320595 32.0511975,26.30589 28.9315359,26.8010019 C28.6766856,26.8411839 28.5778918,27.1823544 28.4258206,27.8976596 C28.3705506,28.1580351 28.3145464,28.4136705 28.2374621,28.6826641 C28.1709703,28.9160001 28.0293868,29.025235 27.7912118,29.025235 L27.7524075,29.025235 C27.5872267,29.025235 27.3521981,28.9948561 27.0543483,28.9347446 C26.5261894,28.8286338 25.9340557,28.7309256 25.1806216,28.7309256 C24.740664,28.7309256 24.2853943,28.7703536 23.8279223,28.8481323 C22.8920028,29.0084296 22.0973522,29.5846597 21.2562413,30.1953624 C20.0333793,31.0836767 18.7715031,32 16.8046459,32" id="Fill-4" fill="#FFFFFE"></path>
                        <path d="M17.3288605,0 L17.3274928,0 C17.2981401,0 17.2705759,0 17.2443794,0.000526754174 C17.2443794,0.000526754174 16.6994075,0.00600499758 16.6560622,0.00600499758 C15.2535487,0.00600499758 10.5000894,0.397277998 8.25749854,5.43209974 C7.50327008,7.12593046 7.68412079,10.0027457 7.82909593,12.3144591 C7.84613945,12.587107 7.86434025,12.8700794 7.87991088,13.1434648 C7.76386764,13.2078342 7.55198089,13.2879008 7.21847493,13.2879008 C6.77334443,13.2879008 6.24720459,13.1471521 5.6548896,12.8691312 C5.49760524,12.7953856 5.31633371,12.7585128 5.11601972,12.7585128 C4.42228525,12.7585128 3.59251822,13.2155248 3.46332412,13.8967233 C3.37021599,14.3872367 3.58936201,15.1027796 5.16409929,15.7256138 C5.30623384,15.7818711 5.47708989,15.8360214 5.65751977,15.8931216 C6.30801419,16.1000306 7.29138333,16.4125012 7.5582933,17.0419724 C7.69643,17.3680333 7.64130157,17.787751 7.39469653,18.2890103 C7.38933098,18.3003882 7.38386022,18.3115553 7.3790207,18.3232493 C7.2924354,18.5248908 5.21123199,23.275792 0.590648997,24.0374786 C0.235260001,24.096159 -0.0186043121,24.413581 0.00106938311,24.7735648 C0.00717138483,24.8806013 0.032526254,24.9872163 0.0762923353,25.0906709 C0.423054364,25.9025044 1.88616709,26.4974206 4.54969084,26.911344 C4.6386959,27.0319707 4.73117278,27.4577988 4.78787932,27.7173832 C4.84353378,27.9733857 4.90097676,28.2373949 4.98282775,28.5159425 C5.06310064,28.7897494 5.27162076,29.1170744 5.80775526,29.1170744 C6.02427111,29.1170744 6.27981874,29.0670328 6.57555541,29.0088791 C7.01931822,28.92207 7.62699343,28.8032343 8.3876395,28.8032343 C8.80951928,28.8032343 9.24675926,28.8398964 9.68705025,28.9130098 C10.5464856,29.0563923 11.2768321,29.5733489 12.1223802,30.171847 C13.3334171,31.0292974 14.7048946,32 16.7895698,32 C16.8468024,32 16.9044558,31.9983144 16.9613727,31.9941004 C17.0290208,31.9970502 17.1168686,32 17.2102923,32 C19.2955988,32 20.6668659,31.0291921 21.8770612,30.172163 C22.724503,29.5728221 23.4543234,29.0560763 24.3137588,28.9130098 C24.7533133,28.8398964 25.1906585,28.8032343 25.6126435,28.8032343 C26.3383609,28.8032343 26.9125803,28.895627 27.4247276,28.9958156 C27.7456087,29.05871 28.0038917,29.0907367 28.1925277,29.0907367 L28.2123066,29.0910528 L28.2314543,29.0910528 C28.6274532,29.0910528 28.9067776,28.8815099 29.0176657,28.5012988 C29.0979385,28.2284401 29.1554867,27.9712787 29.2124037,27.7108515 C29.2687946,27.4521098 29.3610611,27.0280727 29.4497505,26.9082888 C32.1140107,26.4940493 33.5767026,25.9000813 33.9227282,25.0917244 C33.9672307,24.9882698 33.992796,24.880812 33.998898,24.7728274 C34.0188873,24.4126329 33.7648126,24.0956322 33.4097392,24.0371625 C28.7869469,23.2742118 26.707532,18.524364 26.6211571,18.3229332 C26.6162124,18.3113446 26.610952,18.299756 26.6052708,18.2885889 C26.3584554,17.7874349 26.303853,17.3680333 26.4418845,17.0419724 C26.708584,16.4125012 27.6915324,16.1000306 28.342132,15.893543 C28.52414,15.8357054 28.6952064,15.7811336 28.8358681,15.7256138 C29.9883048,15.269866 30.5664168,14.7101371 30.5542128,14.0620187 C30.5442182,13.5529635 30.1483245,13.098796 29.5189767,12.8736613 L29.5170829,12.8730292 C29.3054066,12.7850613 29.0541725,12.7370213 28.8080935,12.7370213 C28.6398676,12.7370213 28.3903168,12.7599878 28.1571782,12.8691312 C27.6090501,13.126398 27.1163661,13.2661985 26.6916457,13.285267 C26.4100068,13.2720982 26.2256843,13.2009863 26.1205825,13.1430434 C26.1339438,12.9084271 26.1488832,12.666963 26.1647694,12.4146477 L26.170661,12.3165661 C26.3164778,10.0032725 26.4974337,7.1239288 25.7424688,5.42893922 C23.4989311,0.391799754 18.7353719,0 17.3288605,0 Z M17.3288605,0.705850593 C18.6095445,0.705955944 23.0202396,1.05003177 25.0989181,5.71654699 C25.7830787,7.25277287 25.6081196,10.0363526 25.4672475,12.2727401 C25.4449437,12.6273511 25.423271,12.9710055 25.4057015,13.2998054 L25.3980214,13.4407648 L25.492392,13.5457996 C25.5300561,13.588256 25.8860763,13.9604605 26.6771272,13.991223 L26.6903832,13.991539 L26.7033237,13.991223 C27.2263073,13.9715224 27.8157817,13.8090714 28.4560711,13.5086108 C28.5500209,13.4643634 28.6754275,13.4428719 28.8080935,13.4428719 C28.9595914,13.4428719 29.1201372,13.4713166 29.2526979,13.5272579 L29.272582,13.5352645 C29.6079817,13.6529414 29.8453285,13.8752317 29.8493264,14.0758197 C29.8513253,14.1899146 29.7661077,14.5986759 28.5766382,15.0690673 C28.4604898,15.115211 28.3072033,15.1637777 28.1299296,15.2198244 C27.3559223,15.46624 26.1865473,15.837391 25.792863,16.7656372 C25.5710868,17.2895469 25.6314755,17.9067974 25.9729772,18.6007434 C26.1136389,18.9290166 28.3225635,23.9132699 33.2950637,24.7336369 C33.293696,24.7567087 33.28812,24.7829411 33.2746535,24.8133875 C33.1901724,25.0121845 32.6544587,25.6984398 29.3216085,26.2136054 C28.7998873,26.2941988 28.6719557,26.879212 28.5236139,27.5600944 C28.4706948,27.8034548 28.4157768,28.0490276 28.3409747,28.3034499 C28.3183552,28.380356 28.3140417,28.3848861 28.2314543,28.3848861 C28.2201972,28.3848861 28.2073619,28.3848861 28.1925277,28.3848861 C28.044712,28.3848861 27.81999,28.3541237 27.5598133,28.3031339 C27.0874342,28.2106358 26.4396751,28.0972783 25.6126435,28.0972783 C25.1511007,28.0972783 24.6751446,28.137417 24.1982416,28.2166408 C23.1783656,28.3866771 22.3485986,28.974324 21.4698052,29.595894 C20.2902251,30.4312207 19.070982,31.2942548 17.2102923,31.2942548 C17.1295986,31.2942548 17.049957,31.291621 16.9704205,31.2878284 L16.9494844,31.2867748 L16.9283378,31.2886712 C16.882678,31.2924638 16.8367025,31.2942548 16.7895698,31.2942548 C14.929301,31.2942548 13.7095319,30.4312207 12.5301622,29.59621 C11.6516844,28.974324 10.8217069,28.3866771 9.80204142,28.2166408 C9.32492801,28.137417 8.8492875,28.0972783 8.3876395,28.0972783 C7.56081827,28.0972783 6.91305923,28.2233833 6.44036451,28.3159867 C6.18029299,28.3671872 5.95525537,28.4109078 5.80775526,28.4109078 C5.68718812,28.4109078 5.68466316,28.4039546 5.65920308,28.3167241 C5.58450616,28.0620911 5.52969335,27.8099866 5.47666906,27.5668369 C5.32822209,26.8860598 5.19976443,26.2974647 4.67867453,26.2169766 C1.34550869,25.7016003 0.810110645,25.0136594 0.725524277,24.8152838 C0.71205779,24.7845213 0.706481823,24.7576569 0.705324547,24.734269 C5.67740388,23.913902 7.8863285,18.9302808 8.02699016,18.6010594 C8.36849184,17.9067974 8.42919624,17.2899683 8.20720963,16.7663746 C7.81384093,15.8378124 6.64436074,15.46624 5.87024817,15.2198244 C5.6928693,15.1639885 5.53968801,15.115211 5.42343436,15.0690673 C4.4184978,14.671684 4.10971547,14.2713508 4.15600652,14.0286225 C4.20924122,13.7488107 4.6935087,13.4643634 5.11601972,13.4643634 C5.21112678,13.4643634 5.29413505,13.479534 5.3557863,13.5086108 C6.0422615,13.8302469 6.66929478,13.9939621 7.21847493,13.9939621 C8.08285504,13.9939621 8.46759677,13.5912058 8.50841705,13.5455889 L8.60215643,13.4407648 L8.59447632,13.3002268 C8.57690676,12.972059 8.55533934,12.6285099 8.53293027,12.2741097 C8.39226861,10.0377222 8.21730949,7.25603874 8.90157534,5.71949682 C10.9721529,1.07015378 15.3612806,0.711960941 16.6571143,0.711960941 C16.6890972,0.711960941 17.2522699,0.706377347 17.2522699,0.706377347 C17.2764675,0.705955944 17.3018224,0.705850593 17.3288605,0.705850593 Z" id="Fill-5" fill="#0B0C0A"></path>
                    </g>
                </g>
            </g>
        </g>
    </g>
</svg>