<?xml version="1.0" encoding="UTF-8"?>
<svg width="338px" height="272px" viewBox="0 0 338 272" version="1.1" xmlns="http://www.w3.org/2000/svg" xmlns:xlink="http://www.w3.org/1999/xlink">
    <!-- Generator: Sketch 52.6 (67491) - http://www.bohemiancoding.com/sketch -->
    <title>Home-Hero-M</title>
    <desc>Created with Sketch.</desc>
    <defs>
        <linearGradient x1="92.0266544%" y1="92.9036458%" x2="25.8310355%" y2="34.2050058%" id="linearGradient-1">
            <stop stop-color="#3C74AA" stop-opacity="0" offset="0%"></stop>
            <stop stop-color="#3473B0" offset="100%"></stop>
        </linearGradient>
        <linearGradient x1="92.0266544%" y1="92.9036458%" x2="26.9176553%" y2="35.1685605%" id="linearGradient-2">
            <stop stop-color="#3C74AA" stop-opacity="0" offset="0%"></stop>
            <stop stop-color="#E854BB" offset="100%"></stop>
        </linearGradient>
        <linearGradient x1="0%" y1="100%" x2="79.4556903%" y2="30.5199033%" id="linearGradient-3">
            <stop stop-color="#3C74AA" stop-opacity="0" offset="0%"></stop>
            <stop stop-color="#6FBBE3" offset="100%"></stop>
        </linearGradient>
        <linearGradient x1="31.4012097%" y1="94.3777902%" x2="50%" y2="0%" id="linearGradient-4">
            <stop stop-color="#8CC553" stop-opacity="0" offset="0%"></stop>
            <stop stop-color="#63AE12" offset="100%"></stop>
        </linearGradient>
    </defs>
    <g id="Website" stroke="none" stroke-width="1" fill="none" fill-rule="evenodd">
        <g id="M-Home" transform="translate(-18.000000, -82.000000)">
            <g id="Home-Hero-M" transform="translate(18.000000, 82.000000)">
                <path d="M122.176816,31.1018585 L121.853403,30.5003507 C122.512031,30.0773773 123.183099,29.6575423 123.848426,29.2523526 L124.158763,29.8615319 C123.497902,30.2642806 122.83098,30.6813261 122.176816,31.1018585" id="Fill-4" fill="#54A0E8"></path>
                <path d="M75.1364609,109.705859 L74.3629747,109.673388 C74.4043977,108.910166 74.4547246,108.143527 74.512407,107.393976 L75.285119,107.440802 C75.2274366,108.185225 75.1774968,108.947422 75.1364609,109.705859" id="Fill-5" fill="yellow"></path>
                <path d="M265.980076,136.061317 L265.380062,135.923025 C267.024636,128.790009 267.858621,121.418908 267.858621,114.014543 C267.858621,88.2036784 257.812009,63.9377508 239.569624,45.6867918 C221.32693,27.4355248 197.072401,17.3841916 171.273661,17.3841916 C155.742882,17.3841916 140.34602,21.1282624 126.748276,28.2107655 L126.464124,27.6646782 C140.149299,20.5362828 155.644367,16.7681879 171.273661,16.7681879 C197.236797,16.7681879 221.646178,26.8835854 240.004934,45.2509691 C258.363689,63.6186609 268.474335,88.0392054 268.474335,114.014543 C268.474335,121.465417 267.635116,128.883026 265.980076,136.061317" id="Fill-6" fill="#54A0E8"></path>
                <path d="M82.3013491,75.9523762 L81.7401286,75.7077631 C84.8595487,68.4089026 88.8846859,61.4905514 93.7042741,55.145435 L94.1890757,55.5213115 C89.400055,61.8262767 85.4005946,68.7004617 82.3013491,75.9523762" id="Fill-7" fill="yellow"></path>
                <path d="M171.041921,211.891059 C145.094904,211.891059 120.700678,201.758041 102.353321,183.358664 C84.0062711,164.959287 73.9019026,140.495896 73.9019026,114.475621 C73.9019026,113.963756 73.9059023,113.452816 73.9135939,112.942494 L74.528926,112.95175 C74.5212344,113.458987 74.5172347,113.96715 74.5172347,114.475621 C74.5172347,140.331137 84.5576087,164.639332 102.788668,182.922391 C121.019728,201.205141 145.259506,211.273982 171.041921,211.273982 C196.824644,211.273982 221.064114,201.205141 239.295481,182.922391 C245.030376,177.170927 250.015797,170.753329 254.113294,163.847623 L254.642172,164.163258 C250.518523,171.112776 245.501413,177.571101 239.730521,183.358664 C221.383164,201.758041 196.988938,211.891059 171.041921,211.891059" id="Fill-8" fill="yellow"></path>
                <path d="M133.630491,30.1771056 L133.380205,29.6268244 C140.835737,26.3121647 148.716236,24.008164 156.802512,22.779082 L156.894883,23.3755217 C148.862871,24.596458 141.035722,26.8847709 133.630491,30.1771056" id="Fill-9" fill="#54A0E8"></path>
                <path d="M92.902483,66.2424703 L92.3447872,65.9373661 C92.91295,65.1093511 93.5049907,64.2787085 94.1039003,63.4682115 L94.6501478,63.7896658 C94.0551633,64.5949074 93.4673748,65.4200027 92.902483,66.2424703" id="Fill-10" fill="#54A0E8"></path>
                <path d="M79.3444249,122.6524 C79.098508,119.900648 78.9736959,117.096125 78.9736959,114.317217 C78.9736959,98.065307 83.2528352,82.0809501 91.3486296,68.0919762 L91.8837151,68.4005724 C83.8422943,82.2960416 79.5915775,98.1736242 79.5915775,114.317217 C79.5915775,117.077918 79.7154628,119.863925 79.959835,122.59747 L79.3444249,122.6524" id="Fill-11" fill="#54A0E8"></path>
                <path d="M90.8687825,160.56727 C90.4303495,159.759481 89.9963805,158.932571 89.5783545,158.109015 L90.1405054,157.793012 C90.5559805,158.610864 90.9870797,159.432407 91.422643,160.234494 L90.8687825,160.56727" id="Fill-12" fill="#54A0E8"></path>
                <path d="M105.737559,179.524706 C100.418072,174.198076 95.7570527,168.238058 91.8837151,161.810262 L92.415137,161.492023 C96.2624458,167.876873 100.892479,173.797342 106.176951,179.08875 L105.737559,179.524706" id="Fill-13" fill="#54A0E8"></path>
                <path d="M195.788609,203.568282 L195.624941,202.972006 C219.892328,196.215657 240.532611,179.411381 252.253756,156.868259 L252.797883,157.154954 C240.998435,179.849619 220.219356,196.76647 195.788609,203.568282" id="Fill-14" fill="#54A0E8"></path>
                <path d="M261.310933,133.749435 L260.636109,133.623488 C261.087257,131.834975 261.478344,130.01052 261.79798,128.200917 L262.480398,128.290328 C262.158346,130.11211 261.765188,131.948744 261.310933,133.749435" id="Fill-15" fill="#54A0E8"></path>
                <path d="M262.686853,126.351412 L262.019325,126.277443 C262.110597,125.687683 262.194796,125.095648 262.271922,124.501906 L262.94147,124.563926 C262.86367,125.161651 262.779135,125.757385 262.686853,126.351412" id="Fill-16" fill="#54A0E8"></path>
                <path d="M255.449795,78.726635 C253.313937,73.7114509 250.715477,68.8486029 247.72609,64.2738146 L248.250039,63.930588 C251.259144,68.5364077 253.875132,73.4315409 256.025388,78.4805776 L255.449795,78.726635" id="Fill-17" fill="#54A0E8"></path>
                <path d="M228.914173,43.1236468 C228.426502,42.6740249 227.930086,42.226378 227.438917,41.7928846 L227.797747,41.2741409 C228.292414,41.7102675 228.792036,42.1608767 229.283205,42.6137901 L228.914173,43.1236468" id="Fill-18" fill="#54A0E8"></path>
                <path d="M224.775157,39.8870115 C218.74267,35.4244899 212.192938,31.730926 205.307455,28.9090143 L205.535166,28.3275997 C212.46717,31.1689231 219.060975,34.8872215 225.133556,39.3798 L224.775157,39.8870115" id="Fill-19" fill="#54A0E8"></path>
                <path d="M202.795773,28.3275997 C201.196408,27.7110138 199.559312,27.1356386 197.930301,26.6178323 L198.103983,26.0157173 C199.744073,26.536984 201.392249,27.1161343 203.002095,27.7371244 L202.795773,28.3275997" id="Fill-20" fill="#54A0E8"></path>
                <polyline id="Fill-22" fill="#93D3F5" points="242.654297 91.441988 286.91722 91.441988 242.654297 91.441988"></polyline>
                <polyline id="Fill-24" fill="#93D3F5" points="242.654297 96.0657527 258.791821 96.0657527 242.654297 96.0657527"></polyline>
                <polyline id="Fill-26" fill="#FFFFFF" points="242.654297 101.151894 286.91722 101.151894 242.654297 101.151894"></polyline>
                <polyline id="Fill-28" fill="#FFFFFF" points="242.654297 105.775659 258.791821 105.775659 242.654297 105.775659"></polyline>
                <polyline id="Fill-33" fill="#FFFFFF" points="262.94147 96.0657527 279.078994 96.0657527 262.94147 96.0657527"></polyline>
                <path d="M195.624941,190.621741 L194.12814,194.845175 C187.728237,212.90198 172.707867,226.09209 154.703135,230.417629 L147.16092,243.513678 C134.545288,265.454805 128.888241,250.641226 119.372466,256.082803 C108.819094,262.116281 103.923691,266.887369 93.7328158,263.585974 C88.9590671,262.038928 80.4534787,249.353775 70.2133257,267.376235 C77.5590471,254.443864 93.8794161,225.692952 108.81971,199.532413 L108.81971,190.621741 L195.624941,190.621741" id="Fill-36" fill="#FBEBC9"></path>
                <path d="M8.11733333,24 C15.568,26.5266667 21.4746667,32.432 24,39.884 C26.5266667,32.432 32.432,26.5266667 39.8826667,24 C32.432,21.4733333 26.5266667,15.568 24,8.11733333 C21.4746667,15.568 15.568,21.4733333 8.11733333,24 Z M25.3333333,48 L22.6666667,48 C22.6666667,35.5013333 12.4986667,25.3333333 0,25.3333333 L0,22.6666667 C0.0146666667,22.6666667 0.0293333333,22.6666667 0.044,22.6666667 C12.5226667,22.644 22.6666667,12.484 22.6666667,0 L25.3333333,0 C25.3333333,12.4986667 35.5013333,22.6666667 48,22.6666667 L48,25.3333333 C47.9853333,25.3333333 47.972,25.3333333 47.956,25.3333333 C35.4773333,25.3573333 25.3333333,35.516 25.3333333,48 Z" id="star-1" fill="#54A0E8" opacity="0.201520647"></path>
                <path d="M308.088,224 C313.676,225.895 318.106,230.324 320,235.913 C321.895,230.324 326.324,225.895 331.912,224 C326.324,222.105 321.895,217.676 320,212.088 C318.106,217.676 313.676,222.105 308.088,224 Z M321,242 L319,242 C319,232.626 311.374,225 302,225 L302,223 C302.011,223 302.022,223 302.033,223 C311.392,222.983 319,215.363 319,206 L321,206 C321,215.374 328.626,223 338,223 L338,225 C337.989,225 337.979,225 337.967,225 C328.608,225.018 321,232.637 321,242 Z" id="star-2" fill="#54A0E8"></path>
                <path d="M219.607605,97.9006682 L172.767248,143.921717 L161.966677,132.964105 L208.80765,86.9452081 C211.837784,83.9681441 216.711746,84.0068831 219.694145,87.0319097 C222.676852,90.0569363 222.638048,94.9232968 219.607605,97.9006682" id="Fill-37" fill="#FBEBC9"></path>
                <path d="M151.362018,190.621741 L151.362018,207.64113 C151.362018,207.64113 172.80268,209.979531 181.792777,190.621741 L151.362018,190.621741" id="Fill-38" fill="#F4E3BF"></path>
                <path d="M199.446342,190.621741 L142.468824,190.621741 C139.231695,190.621741 136.60771,187.983372 136.60771,184.728499 L136.60771,60.5763005 C136.60771,57.3214271 139.231695,54.6830585 142.468824,54.6830585 L199.446342,54.6830585 C202.68347,54.6830585 205.307455,57.3214271 205.307455,60.5763005 L205.307455,184.728499 C205.307455,187.983372 202.68347,190.621741 199.446342,190.621741" id="Fill-39" fill="yellow"></path>
                <path d="M142.637399,187.847482 C140.83799,187.847482 139.374143,186.382289 139.374143,184.581226 L139.374143,60.7235732 C139.374143,58.9225104 140.83799,57.4573174 142.637399,57.4573174 L199.738839,57.4573174 C201.538247,57.4573174 203.002095,58.9225104 203.002095,60.7235732 L203.002095,184.581226 C203.002095,186.382289 201.538247,187.847482 199.738839,187.847482 L142.637399,187.847482" id="Fill-40" fill="#FFFFFF"></path>
                <path d="M142.637399,187.847482 L199.738839,187.847482 C201.541018,187.847482 203.002095,186.383074 203.002095,184.576786 L203.002095,173.513812 L139.374143,173.513812 L139.374143,184.576786 C139.374143,186.383074 140.83522,187.847482 142.637399,187.847482" id="Fill-45" fill="#F2F1F3"></path>
                <path d="M142.637399,57.4573174 L199.738839,57.4573174 C201.541018,57.4573174 203.002095,58.9217252 203.002095,60.7280133 L203.002095,71.790988 L139.374143,71.790988 L139.374143,60.7280133 C139.374143,58.9217252 140.83522,57.4573174 142.637399,57.4573174" id="Fill-46" fill="#F2F1F3"></path>
                <path d="M160.58346,163.804062 C160.58346,167.634558 157.486982,170.739553 153.667378,170.739553 C149.847775,170.739553 146.751297,167.634558 146.751297,163.804062 C146.751297,159.973567 149.847775,156.868259 153.667378,156.868259 C157.486982,156.868259 160.58346,159.973567 160.58346,163.804062" id="Fill-47" fill="#A3E060"></path>
                <path d="M153.436842,167.040541 C151.784107,167.040541 150.439874,165.796038 150.439874,164.266282 L151.073348,164.266282 C151.073348,165.472673 152.133468,166.454203 153.436842,166.454203 C154.7399,166.454203 155.800336,165.472673 155.800336,164.266282 L156.433811,164.266282 C156.433811,165.796038 155.089261,167.040541 153.436842,167.040541" id="Fill-48" fill="#FFFFFF"></path>
                <path d="M153.667378,165.191035 C152.90354,165.191035 152.284162,164.595209 152.284162,163.860417 L152.284162,160.973136 C152.284162,160.238343 152.90354,159.642517 153.667378,159.642517 C154.431216,159.642517 155.050595,160.238343 155.050595,160.973136 L155.050595,163.860417 C155.050595,164.595209 154.431216,165.191035 153.667378,165.191035" id="Fill-49" fill="#FFFFFF"></path>
                <polygon id="Fill-50" fill="#FFFFFF" points="153.206306 167.965294 153.667378 167.965294 153.667378 166.578165 153.206306 166.578165"></polygon>
                <path d="M184.917303,62.5434585 L157.920007,62.5434585 C155.316785,62.5434585 153.206306,60.4766381 153.206306,57.9272668 L153.206306,55.6078115 L189.631003,55.6078115 L189.631003,57.9272668 C189.631003,60.4766381 187.520525,62.5434585 184.917303,62.5434585" id="Fill-52" fill="#CCCDCD"></path>
                <path d="M221.906051,92.3667409 C221.906051,96.5805072 218.499937,99.9959527 214.298362,99.9959527 C210.096787,99.9959527 206.690672,96.5805072 206.690672,92.3667409 C206.690672,88.1532799 210.096787,84.7375292 214.298362,84.7375292 C218.499937,84.7375292 221.906051,88.1532799 221.906051,92.3667409" id="Fill-53" fill="#FCE8BD"></path>
                <polyline id="Fill-54" fill="#EDD5A1" points="131.141845 272 130.613773 271.682802 133.774278 265.989106 134.30235 266.306303 131.141845 272"></polyline>
                <polyline id="Fill-55" fill="#EDD5A1" points="137.136206 261.365341 136.60771 261.058489 151.294594 235.472259 151.82309 235.779111 137.136206 261.365341"></polyline>
                <polyline id="Fill-56" fill="#EDD5A1" points="69.3636871 270.150494 68.8301094 269.844488 108.870878 199.406894 109.404455 199.713518 69.3636871 270.150494"></polyline>
                <path d="M196.086013,163.804062 C196.086013,167.634558 192.989535,170.739553 189.169931,170.739553 C185.350328,170.739553 182.25385,167.634558 182.25385,163.804062 C182.25385,159.973567 185.350328,156.868259 189.169931,156.868259 C192.989535,156.868259 196.086013,159.973567 196.086013,163.804062" id="Fill-57" fill="#E6657B"></path>
                <path d="M188.857906,167.86303 C189.021361,168.042603 189.218592,168.185381 189.436934,168.282558 L189.437235,168.282558 C189.928202,168.500814 190.487929,168.471567 190.955675,168.203622 L191.475292,167.9058 L190.386599,165.840549 L189.805762,166.056918 C189.568723,166.144975 189.30816,166.135855 189.077454,166.03113 C188.876604,165.939928 188.710133,165.782054 188.604581,165.581725 L187.706184,163.877507 C187.600632,163.677178 187.561728,163.446028 187.595505,163.220539 L187.595807,163.220225 C187.634408,162.960771 187.766499,162.726477 187.965238,162.565144 L188.45138,162.169516 L187.362989,160.104894 L186.843372,160.402715 C186.375626,160.67066 186.052034,161.14774 185.965482,161.696839 C185.92688,161.941511 185.936832,162.19153 185.994735,162.4318 L185.994735,162.432115 C186.485099,164.469062 187.471255,166.339958 188.857906,167.86303" id="Fill-58" fill="#FFFFFF"></path>
                <path d="M178.104201,163.804062 C178.104201,167.634558 175.007723,170.739553 171.188119,170.739553 C167.368515,170.739553 164.272037,167.634558 164.272037,163.804062 C164.272037,159.973567 167.368515,156.868259 171.188119,156.868259 C175.007723,156.868259 178.104201,159.973567 178.104201,163.804062" id="Fill-60" fill="#93CCF5"></path>
                <polygon id="Fill-61" fill="#FFFFFF" points="167.499542 166.578165 173.032407 166.578165 173.032407 161.492023 167.499542 161.492023"></polygon>
                <polyline id="Fill-62" fill="#FFFFFF" points="172.110263 164.034937 174.876696 166.578165 174.876696 161.492023 172.110263 164.034937"></polyline>
                <polygon id="Path-4" fill="url(#linearGradient-1)" opacity="0.200897507" points="124.763138 28.2218247 167.792079 97.3166369 107.633663 52.7020614"></polygon>
                <polygon id="Path-4-Copy-4" fill="url(#linearGradient-2)" opacity="0.200409226" transform="translate(223.924584, 100.765100) rotate(110.000000) translate(-223.924584, -100.765100) " points="223.864691 53.6510192 250.089299 147.87918 197.759868 70.2595952"></polygon>
                <polygon id="Path-4-Copy" fill="url(#linearGradient-3)" opacity="0.200409226" points="228.920792 38.9266547 172.643564 97.3166369 248.47632 63.2233751"></polygon>
                <g id="Group-5-Copy" transform="translate(151.782178, 76.393560)">
                    <path d="M0,23.3283022 L33.9138978,23.3283022 C36.9858226,23.3283022 39.4761615,20.8197826 39.4761615,17.725024 L39.4761615,5.60327821 C39.4761615,2.50870193 36.9858226,0 33.9138978,0 L8.86624363,0 C5.79431883,0 3.30397993,2.50870193 3.30397993,5.60327821 L3.30397993,18.2076911 C3.30397993,20.4222706 2.00903267,22.4291592 0,23.3283022" id="Fill-21" stroke="#93D3F5" stroke-width="0.51230235" fill="#FFFFFF"></path>
                    <polygon id="Fill-23" fill="#93D3F5" points="8.38192469 6.58681474 34.3388528 6.58681474 34.3388528 6.31236412 8.38192469 6.31236412"></polygon>
                    <polygon id="Fill-25" fill="#93D3F5" points="8.38192469 9.33132088 17.8453881 9.33132088 17.8453881 9.05687026 8.38192469 9.05687026"></polygon>
                    <polygon id="Fill-27" fill="#93D3F5" points="8.38192469 12.3502776 34.3388528 12.3502776 34.3388528 12.075827 8.38192469 12.075827"></polygon>
                    <polygon id="Fill-29" fill="#93D3F5" points="8.38192469 15.0947838 17.8453881 15.0947838 17.8453881 14.8203332 8.38192469 14.8203332"></polygon>
                    <polygon id="Fill-34" fill="yellow" points="20.2788501 9.33132088 29.7423134 9.33132088 29.7423134 9.05687026 20.2788501 9.05687026"></polygon>
                </g>
                <g id="Group-5-Copy-2" transform="translate(176.524752, 113.373882) scale(-1, 1) translate(-176.524752, -113.373882) translate(156.633663, 104.128801)">
                    <path d="M34.1767962,18.490161 C37.2725344,18.490161 39.7821782,16.0048252 39.7821782,12.9386685 L39.7821782,5.55149253 C39.7821782,2.48551642 37.2725344,2.84217094e-14 34.1767962,2.84217094e-14 L8.9349742,2.84217094e-14 C5.83923603,2.84217094e-14 3.32959218,2.48551642 3.32959218,5.55149253 L3.32959218,13.4168748 C3.32959218,15.610987 2.02460656,17.5993279 0,18.490161 L34.1767962,18.490161 Z" id="Fill-21" stroke="#93D3F5" stroke-width="0.5" fill="#93D3F5"></path>
                    <polygon id="Fill-25" fill="#FFFFFF" points="13.0727355 4.62254025 22.6095591 4.62254025 22.6095591 4.35062612 13.0727355 4.35062612"></polygon>
                    <polygon id="Fill-27" fill="#FFFFFF" points="8.44690085 7.61359571 34.6050454 7.61359571 34.6050454 7.34168157 8.44690085 7.34168157"></polygon>
                    <polygon id="Fill-29" fill="#FFFFFF" points="25.0999057 10.332737 34.6367292 10.332737 34.6367292 10.0608229 25.0999057 10.0608229"></polygon>
                    <polygon id="Fill-34" fill="#FFFFFF" points="25.0618851 4.62254025 34.5987087 4.62254025 34.5987087 4.35062612 25.0618851 4.35062612"></polygon>
                </g>
                <polygon id="Path-4-Copy-5" fill="url(#linearGradient-3)" opacity="0.200409226" transform="translate(119.965289, 95.971361) rotate(-120.000000) translate(-119.965289, -95.971361) " points="137.467843 57.7025743 82.8328151 134.240148 157.097763 81.970607"></polygon>
                <path d="M280.188861,101.416454 C280.188861,109.971366 273.273416,116.906066 264.742946,116.906066 C256.212475,116.906066 249.29703,109.971366 249.29703,101.416454 C249.29703,92.8618511 256.212475,85.9268421 264.742946,85.9268421 C273.273416,85.9268421 280.188861,92.8618511 280.188861,101.416454" id="Fill-80-Copy" fill="#E854BB"></path>
                <polygon id="Path-4-Copy-2" fill="url(#linearGradient-4)" opacity="0.200409226" points="156.633663 20.9230769 171.976485 97.3166369 187.319307 21.8962433"></polygon>
                <path d="M188.010644,20.3554436 C188.010644,28.9100464 181.095507,35.8450554 172.564728,35.8450554 C164.034257,35.8450554 157.118812,28.9100464 157.118812,20.3554436 C157.118812,11.8008408 164.034257,4.86583184 172.564728,4.86583184 C181.095507,4.86583184 188.010644,11.8008408 188.010644,20.3554436" id="Fill-93" fill="#00B800"></path>
                <path d="M254.47599,50.5236011 C254.47599,59.0785136 247.560545,66.0132128 239.030074,66.0132128 C230.499604,66.0132128 223.584158,59.0785136 223.584158,50.5236011 C223.584158,41.9689983 230.499604,35.0339893 239.030074,35.0339893 C247.560545,35.0339893 254.47599,41.9689983 254.47599,50.5236011" id="Fill-80" fill="#0091F5"></path>
                <path d="M246.871287,45.6779964 C246.501257,46.2456796 246.00789,46.7525321 245.391173,47.1985689 L245.391173,47.5635063 C245.391173,49.6923183 244.615149,51.623426 243.063077,53.3568873 C241.511005,55.0903486 239.450172,55.9570662 236.880517,55.9570662 C235.235937,55.9570662 233.714724,55.5110361 232.316832,54.6189624 C232.645748,54.6595112 232.882152,54.6797853 233.026053,54.6797853 C234.403388,54.6797853 235.636804,54.2540293 236.726338,53.4025045 C236.089064,53.3822301 235.51347,53.1845576 234.999539,52.8094812 C234.485607,52.4344048 234.13614,51.952895 233.951124,51.3649374 C234.197811,51.4054862 234.382824,51.4257603 234.506167,51.4257603 C234.71174,51.4257603 234.97898,51.3852121 235.307896,51.3041145 C234.629507,51.1621937 234.059052,50.8226026 233.596514,50.2853309 C233.133976,49.7480593 232.90271,49.1246309 232.90271,48.4150268 L232.90271,48.3846154 C233.35497,48.6279082 233.807222,48.7495528 234.259481,48.7495528 C233.37552,48.1818696 232.933546,47.3607686 232.933546,46.2862254 C232.933546,45.7793654 233.067166,45.2927871 233.33441,44.8264758 C234.917318,46.7525439 236.962733,47.7763858 239.470717,47.8980322 C239.429602,47.7561114 239.409045,47.5330963 239.409045,47.2289803 C239.409045,46.3977299 239.696842,45.6982736 240.272445,45.1305903 C240.848048,44.5629071 241.557262,44.2790698 242.400109,44.2790698 C243.242956,44.2790698 243.962449,44.5933183 244.558609,45.2218247 C245.175326,45.1204527 245.812591,44.8771635 246.470423,44.4919499 C246.26485,45.2015539 245.822876,45.7489545 245.144487,46.1341682 C245.781762,46.073345 246.357356,45.9212892 246.871287,45.6779964 Z" id="ion-social-twitter---Ionicons" fill="#FFFFFF"></path>
                <path d="M97.2733892,85.0710071 C97.2733892,93.6256099 90.3582527,100.560619 81.8274734,100.560619 C73.297003,100.560619 66.3815576,93.6256099 66.3815576,85.0710071 C66.3815576,76.5164043 73.297003,69.5813953 81.8274734,69.5813953 C90.3582527,69.5813953 97.2733892,76.5164043 97.2733892,85.0710071" id="Fill-93-Copy" fill="#93D3F5"></path>
                <path d="M129.932392,39.4379628 C129.932392,47.9928754 123.016947,54.9275746 114.486477,54.9275746 C105.956006,54.9275746 99.0405608,47.9928754 99.0405608,39.4379628 C99.0405608,30.88336 105.956006,23.948351 114.486477,23.948351 C123.016947,23.948351 129.932392,30.88336 129.932392,39.4379628" id="Fill-86" fill="#0260AD"></path>
                <path d="M117.23801,32.2077297 L117.23801,34.2590004 L116.021723,34.2590004 C115.068835,34.2590004 114.890652,34.7174283 114.890652,35.3778753 L114.890652,36.8463987 L117.16054,36.8463987 L116.858405,39.1463082 L114.890652,39.1463082 L114.890652,45.0437114 L112.520054,45.0437114 L112.520054,39.1463082 L110.544554,39.1463082 L110.544554,36.8463987 L112.520054,36.8463987 L112.520054,35.1525464 C112.520054,33.1867453 113.720847,32.1144902 115.471682,32.1144902 C116.308364,32.1144902 117.02884,32.1766499 117.23801,32.2077297 Z" id="facebook---FontAwesome" fill="#FFFFFF"></path>
                <g id="Group-3" transform="translate(214.989970, 0.122635)" fill="#A3E060">
                    <polygon id="Fill-99" points="6.45500961 1.84950588 6.91608172 1.84950588 6.91608172 0 6.45500961 0"></polygon>
                    <polygon id="Fill-100" points="6.45500961 13.8712941 6.91608172 13.8712941 6.91608172 12.0217883 6.45500961 12.0217883"></polygon>
                    <polyline id="Fill-101" points="4.12616204 2.77425883 3.2275048 1.20638929 3.71206391 0.924752942 4.61072115 2.49262248 4.12616204 2.77425883"></polyline>
                    <polyline id="Fill-102" points="10.1200995 12.9465412 9.22144229 11.3786717 9.7060014 11.0970353 10.6046586 12.6649048 10.1200995 12.9465412"></polyline>
                    <polyline id="Fill-103" points="2.02456148 4.62376471 0.461072115 3.72228481 0.74187121 3.2366353 2.30536057 4.1381152 2.02456148 4.62376471"></polyline>
                    <polyline id="Fill-104" points="12.6291774 10.6346588 11.0657308 9.73327713 11.3465726 9.24752942 12.9100192 10.1489111 12.6291774 10.6346588"></polyline>
                    <polygon id="Fill-105" points="0 6.93564707 1.84428846 6.93564707 1.84428846 6.4732706 0 6.4732706"></polygon>
                    <polygon id="Fill-106" points="11.5268029 6.93564707 13.3710913 6.93564707 13.3710913 6.4732706 11.5268029 6.4732706"></polygon>
                    <polyline id="Fill-107" points="0.74187121 10.6346588 0.461072115 10.1489111 2.02456148 9.24752942 2.30536057 9.73327713 0.74187121 10.6346588"></polyline>
                    <polyline id="Fill-108" points="11.3465726 4.62376471 11.0657308 4.1381152 12.6291774 3.2366353 12.9100192 3.72228481 11.3465726 4.62376471"></polyline>
                    <polyline id="Fill-109" points="3.71206391 12.9465412 3.2275048 12.6649048 4.12616204 11.0970353 4.61072115 11.3786717 3.71206391 12.9465412"></polyline>
                    <polyline id="Fill-110" points="9.7060014 2.77425883 9.22144229 2.49262248 10.1200995 0.924752942 10.6046586 1.20638929 9.7060014 2.77425883"></polyline>
                </g>
                <g id="Group-3-Copy" transform="translate(283.894636, 130.229123)" fill="#A3E060">
                    <polygon id="Fill-99" points="11.2364982 3.2366353 12.0391052 3.2366353 12.0391052 0 11.2364982 0"></polygon>
                    <polygon id="Fill-100" points="11.2364982 24.2747647 12.0391052 24.2747647 12.0391052 21.0381294 11.2364982 21.0381294"></polygon>
                    <polyline id="Fill-101" points="7.18257836 4.85495295 5.6182491 2.11118125 6.46174089 1.61831765 8.02607014 4.36208934 7.18257836 4.85495295"></polyline>
                    <polyline id="Fill-102" points="17.6164695 22.6564471 16.0521403 19.9126754 16.8956321 19.4198118 18.4599613 22.1635835 17.6164695 22.6564471"></polyline>
                    <polyline id="Fill-103" points="3.52423665 8.09158825 0.802607014 6.51399842 1.29140544 5.66411177 4.01303507 7.2417016 3.52423665 8.09158825"></polyline>
                    <polyline id="Fill-104" points="21.9841235 18.610653 19.2625683 17.033235 19.7514412 16.1831765 22.4729964 17.7605945 21.9841235 18.610653"></polyline>
                    <polygon id="Fill-105" points="0 12.1373824 3.21042806 12.1373824 3.21042806 11.3282235 0 11.3282235"></polygon>
                    <polygon id="Fill-106" points="20.0651754 12.1373824 23.2756034 12.1373824 23.2756034 11.3282235 20.0651754 11.3282235"></polygon>
                    <polyline id="Fill-107" points="1.29140544 18.610653 0.802607014 17.7605945 3.52423665 16.1831765 4.01303507 17.033235 1.29140544 18.610653"></polyline>
                    <polyline id="Fill-108" points="19.7514412 8.09158825 19.2625683 7.2417016 21.9841235 5.66411177 22.4729964 6.51399842 19.7514412 8.09158825"></polyline>
                    <polyline id="Fill-109" points="6.46174089 22.6564471 5.6182491 22.1635835 7.18257836 19.4198118 8.02607014 19.9126754 6.46174089 22.6564471"></polyline>
                    <polyline id="Fill-110" points="16.8956321 4.85495295 16.0521403 4.36208934 17.6164695 1.61831765 18.4599613 2.11118125 16.8956321 4.85495295"></polyline>
                </g>
                <path d="M65.168582,173.051435 C66.8862293,173.635571 68.2476216,175.000814 68.8301094,176.723629 C69.4122897,175.000814 70.7739894,173.635571 72.4916367,173.051435 C70.7739894,172.4673 69.4122897,171.102056 68.8301094,169.379549 C68.2476216,171.102056 66.8862293,172.4673 65.168582,173.051435 Z M69.1374908,178.599953 L68.5227279,178.599953 C68.5227279,175.710716 66.1786373,173.359686 63.297244,173.359686 L63.297244,172.743184 C66.1786373,172.743184 68.5227279,170.392462 68.5227279,167.502918 L69.1374908,167.502918 C69.1374908,170.392462 71.4815814,172.743184 74.3629747,172.743184 L74.3629747,173.359686 C71.4815814,173.359686 69.1374908,175.710716 69.1374908,178.599953 Z" id="Fill-123" fill="#54A0E8"></path>
                <path d="M118.652947,13.9939291 C120.370595,14.5780647 121.732294,15.9433083 122.314475,17.666123 C122.896962,15.9433083 124.258355,14.5780647 125.976002,13.9939291 C124.258355,13.4097935 122.896962,12.0445499 122.314475,10.3220434 C121.732294,12.0445499 120.370595,13.4097935 118.652947,13.9939291 Z M122.621856,19.5424467 L122.007093,19.5424467 C122.007093,16.652902 119.663003,14.3021801 116.781609,14.3021801 L116.781609,13.6856781 C116.78499,13.6856781 116.788372,13.6856781 116.791753,13.6856781 C119.668535,13.6804378 122.007093,11.3315654 122.007093,8.44541142 L122.621856,8.44541142 C122.621856,11.3349561 124.965947,13.6856781 127.84734,13.6856781 L127.84734,14.3021801 C127.843959,14.3021801 127.840885,14.3021801 127.837196,14.3021801 C124.960414,14.3077286 122.621856,16.6562928 122.621856,19.5424467 Z" id="Fill-124" fill="#54A0E8"></path>
                <path d="M75.9767271,51.6145601 C74.416522,51.6145601 73.147421,52.8872514 73.147421,54.4518703 C73.147421,56.0164892 74.416522,57.2891805 75.9767271,57.2891805 C77.5369323,57.2891805 78.8060333,56.0164892 78.8060333,54.4518703 C78.8060333,52.8872514 77.5369323,51.6145601 75.9767271,51.6145601 Z M75.9767271,57.9196938 C74.0697748,57.9196938 72.5186863,56.3639021 72.5186863,54.4518703 C72.5186863,52.5395233 74.0697748,50.9840468 75.9767271,50.9840468 C77.8833651,50.9840468 79.434768,52.5395233 79.434768,54.4518703 C79.434768,56.3639021 77.8833651,57.9196938 75.9767271,57.9196938 Z" id="Fill-125" fill="#54A0E8"></path>
                <polyline id="Fill-128" fill="#FFFFFF" points="63.297244 87.7429762 88.6562103 87.7429762 63.297244 87.7429762"></polyline>
                <polyline id="Fill-132" fill="#FFFFFF" points="93.2669314 87.7429762 106.176951 87.7429762 93.2669314 87.7429762"></polyline>
                <g id="Group-4" transform="translate(103.752475, 106.561717)" fill="#54A0E8">
                    <polygon id="Fill-134" points="2.64007684 5.85774204 3.10114896 5.85774204 3.10114896 0.309224389 2.64007684 0.309224389"></polygon>
                    <polygon id="Fill-135" points="0.33471627 3.08348322 5.86758165 3.08348322 5.86758165 2.62110675 0.33471627 2.62110675"></polygon>
                </g>
                <g id="Group-6" transform="translate(236.342840, 122.960840)" fill="#54A0E8">
                    <polygon id="Fill-136" points="2.56151175 5.78731867 3.02258386 5.78731867 3.02258386 0.23880102 2.56151175 0.23880102"></polygon>
                    <polygon id="Fill-137" points="0.256151175 3.01305985 5.78901655 3.01305985 5.78901655 2.55068338 0.256151175 2.55068338"></polygon>
                </g>
                <path d="M205.537991,174.438565 C201.336416,174.438565 197.930301,171.022814 197.930301,166.809353 C197.930301,162.595892 201.336416,159.180141 205.537991,159.180141 C209.739566,159.180141 213.145681,162.595892 213.145681,166.809353 C213.145681,171.022814 209.739566,174.438565 205.537991,174.438565" id="Fill-150" fill="#FBEBC9"></path>
                <path d="M210.840321,166.809353 C210.840321,169.623302 208.600118,171.932498 205.768527,172.126682 C206.382414,170.467174 206.716676,168.675908 206.716676,166.809353 C206.716676,164.942798 206.382414,163.151532 205.768527,161.492023 C208.600118,161.686522 210.840321,163.998854 210.840321,166.809353" id="Fill-151" fill="#F4E3BF"></path>
                <path d="M205.768527,161.492023 C206.382414,163.151532 206.716676,164.942798 206.716676,166.809353 C206.716676,168.675908 206.382414,170.467174 205.768527,172.126682 C208.600118,171.932184 210.840321,169.623302 210.840321,166.809353 C210.840321,163.99854 208.600118,161.686522 205.768527,161.492023 Z M206.708641,162.287897 C208.728038,162.855393 210.197508,164.683676 210.197508,166.809353 C210.197508,168.935343 208.728038,170.763626 206.708641,171.330808 C207.140933,169.868307 207.359489,168.351849 207.359489,166.809353 C207.359489,165.266857 207.140933,163.750398 206.708641,162.287897 Z" id="Fill-152" fill="#FFFFFF"></path>
                <path d="M147.273851,164.109374 C149.781538,168.42128 151.1689,173.389211 151.1689,178.560417 L151.1689,190.621741 L108.943383,190.621741 L108.943383,167.874284 C108.943383,150.548431 115.873746,133.947595 128.180441,121.794797 L148.381899,101.845459 C151.908621,105.384609 153.667378,110.016828 153.667378,114.649046 C153.667378,119.330235 151.871789,124.012041 148.280609,127.556735 L136.647644,139.045191 L136.647644,153.600644 C141.132014,156.141589 144.763095,159.797469 147.273851,164.109374" id="Fill-153" fill="#FBEBC9"></path>
                <path d="M205.867329,138.835576 L199.675789,138.835576 C195.401459,138.835576 191.936364,135.419826 191.936364,131.206365 C191.936364,126.992903 195.401459,123.577153 199.675789,123.577153 L205.867329,123.577153 C210.141658,123.577153 213.606753,126.992903 213.606753,131.206365 C213.606753,135.419826 210.141658,138.835576 205.867329,138.835576" id="Fill-154" fill="#FBEBC9"></path>
                <path d="M205.867329,156.405882 L199.675789,156.405882 C195.401459,156.405882 191.936364,152.990132 191.936364,148.77667 C191.936364,144.563209 195.401459,141.147459 199.675789,141.147459 L205.867329,141.147459 C210.141658,141.147459 213.606753,144.563209 213.606753,148.77667 C213.606753,152.990132 210.141658,156.405882 205.867329,156.405882" id="Fill-155" fill="#FBEBC9"></path>
                <path d="M206.690672,148.77667 C206.690672,151.710585 204.279741,154.094 201.311954,154.094 L199.77459,154.094 C200.382069,152.436557 200.714284,150.644304 200.714284,148.77667 C200.714284,146.909349 200.382069,145.120224 199.77459,143.459341 L201.311954,143.459341 C204.279741,143.459341 206.690672,145.845884 206.690672,148.77667" id="Fill-156" fill="#F4E3BF"></path>
                <path d="M201.311954,143.459341 L199.77459,143.459341 C200.382069,145.120224 200.714284,146.909349 200.714284,148.77667 C200.714284,150.643991 200.382069,152.436244 199.77459,154.094 L201.311954,154.094 C204.279741,154.094 206.690672,151.710585 206.690672,148.77667 C206.690672,145.845884 204.279741,143.459341 201.311954,143.459341 Z M201.311954,144.084909 C203.928858,144.084909 206.057881,146.189633 206.057881,148.77667 C206.057881,151.363708 203.928858,153.468432 201.311954,153.468432 L200.651005,153.468432 C201.113258,151.952993 201.347074,150.378751 201.347074,148.77667 C201.347074,147.177093 201.112941,145.60285 200.650688,144.084909 L201.311954,144.084909 Z" id="Fill-157" fill="#FFFFFF"></path>
                <path d="M96.9555083,139.991517 C96.9555083,148.54612 90.0400629,155.481129 81.5095925,155.481129 C72.9791221,155.481129 66.0636767,148.54612 66.0636767,139.991517 C66.0636767,131.436915 72.9791221,124.501906 81.5095925,124.501906 C90.0400629,124.501906 96.9555083,131.436915 96.9555083,139.991517" id="Fill-144" fill="#A3E060"></path>
                <path d="M267.089851,156.112152 C267.089851,164.666755 260.174406,171.601764 251.643936,171.601764 C243.113465,171.601764 236.19802,164.666755 236.19802,156.112152 C236.19802,147.557239 243.113465,140.62254 251.643936,140.62254 C260.174406,140.62254 267.089851,147.557239 267.089851,156.112152" id="Fill-138" fill="#115579"></path>
                <path d="M206.690672,131.206365 C206.690672,134.140279 204.279741,136.523694 201.311954,136.523694 L199.77459,136.523694 C200.382069,134.865938 200.714284,133.073685 200.714284,131.206365 C200.714284,129.339044 200.382069,127.549919 199.77459,125.889035 L201.311954,125.889035 C204.279741,125.889035 206.690672,128.275578 206.690672,131.206365" id="Fill-158" fill="#F4E3BF"></path>
                <path d="M201.311954,125.889035 L199.77459,125.889035 C200.382069,127.549919 200.714284,129.339044 200.714284,131.206365 C200.714284,133.073685 200.382069,134.865938 199.77459,136.523694 L201.311954,136.523694 C204.279741,136.523694 206.690672,134.140279 206.690672,131.206365 C206.690672,128.275578 204.279741,125.889035 201.311954,125.889035 Z M201.311954,126.514603 C203.928858,126.514603 206.057881,128.619327 206.057881,131.206365 C206.057881,133.793402 203.928858,135.898126 201.311954,135.898126 L200.651005,135.898126 C201.113258,134.382687 201.347074,132.808445 201.347074,131.206365 C201.347074,129.606787 201.112941,128.032544 200.650688,126.514603 L201.311954,126.514603 Z" id="Fill-159" fill="#FFFFFF"></path>
                <polygon id="Fill-160" fill="#EDD5A1" points="150.900946 202.643529 151.362018 202.643529 151.362018 184.14847 150.900946 184.14847"></polygon>
                <path d="M139.898103,114.329623 C139.887907,114.329623 139.877712,114.329623 139.867826,114.329623 C138.80629,114.321527 137.812104,113.897389 137.068782,113.13475 L137.509029,112.698155 C138.136806,113.341836 138.975901,113.699956 139.87246,113.706807 C139.880802,113.706807 139.889143,113.706807 139.898103,113.706807 C140.784466,113.706807 141.619854,113.362389 142.253192,112.734901 L148.735171,106.303074 C148.145704,105.366046 147.441309,104.48227 146.63836,103.673231 L147.075209,103.232588 C147.972077,104.136606 148.750927,105.13031 149.391062,106.186607 L149.517729,106.395874 L149.225467,106.690466 L142.686333,113.17897 C141.936523,113.921678 140.94728,114.329623 139.898103,114.329623" id="Fill-161" fill="#FFFFFF"></path>
                <path d="M109.098533,190.621741 L108.482311,190.621741 L108.482311,167.81215 C108.482311,159.124944 110.180311,150.65732 113.528861,142.644917 C116.877411,134.632206 121.707666,127.479907 127.884983,121.386602 L148.163306,101.383082 L148.595585,101.823171 L128.316954,121.826692 C116.103744,133.874635 109.098533,150.635701 109.098533,167.81215 L109.098533,190.621741" id="Fill-162" fill="#EDD5A1"></path>
                <g id="whatsapp-logo" transform="translate(164.605124, 11.336654)" fill="#FFFFFF" fill-rule="nonzero">
                    <path d="M16.009901,7.82184091 C16.009901,12.1417751 12.4914584,15.6436818 8.15046271,15.6436818 C6.77236601,15.6436818 5.47769868,15.2904224 4.3513132,14.6704343 L0,16.0572451 L1.41865512,11.8605949 C0.703012541,10.6819931 0.290846535,9.2996427 0.290846535,7.82184091 C0.290846535,3.50190674 3.80964488,0 8.15046271,0 C12.4918142,0 16.009901,3.50190674 16.009901,7.82184091 Z M8.15046271,1.24568539 C4.50660924,1.24568539 1.5426429,4.19575814 1.5426429,7.82184091 C1.5426429,9.26074848 2.0103099,10.5933214 2.8013769,11.6773639 L1.97579967,14.1196708 L4.51514785,13.3102073 C5.55845974,13.997279 6.80829934,14.3979964 8.15064059,14.3979964 C11.7939604,14.3979964 14.7584604,11.4482805 14.7584604,7.82219773 C14.7584604,4.19611497 11.7941383,1.24568539 8.15046271,1.24568539 Z M12.1193172,9.62328539 C12.0707538,9.54353441 11.9424967,9.49536267 11.7500221,9.39955444 C11.5571917,9.30374621 10.6097614,8.83969183 10.4336525,8.77599809 C10.2570099,8.71212594 10.1282191,8.68001145 9.99996205,8.87180632 C9.87170495,9.06377961 9.5024099,9.49536267 9.38980693,9.62328539 C9.27738185,9.75156494 9.16513465,9.76762218 8.97230429,9.67163554 C8.7798297,9.57582731 8.15917921,9.37314919 7.42325743,8.72015456 C6.85063663,8.21203196 6.46390858,7.58472892 6.3514835,7.39257722 C6.2392363,7.20078235 6.3397429,7.09712391 6.4359802,7.00167251 C6.52278944,6.91567704 6.62881056,6.77776315 6.72504785,6.66589767 C6.82164092,6.55385379 6.85366073,6.4741028 6.91752244,6.34600167 C6.98209571,6.21807895 6.94989802,6.10621348 6.90151254,6.01004842 C6.85348284,5.91424019 6.46782211,4.97078784 6.30736733,4.58684126 C6.14691254,4.20325152 5.98663564,4.26712367 5.87403267,4.26712367 C5.76178548,4.26712367 5.63317261,4.25106643 5.50473762,4.25106643 C5.37630264,4.25106643 5.16746238,4.29905975 4.9908198,4.49085462 C4.81435512,4.68282791 4.31680297,5.14670388 4.31680297,6.08997782 C4.31680297,7.03343017 5.0068297,7.94494645 5.10342277,8.07269076 C5.19966007,8.20043506 6.43580231,10.1993837 8.39434686,10.9670984 C10.3530693,11.7344563 10.3530693,11.4784324 10.7063545,11.4463179 C11.0592838,11.4143819 11.8459036,10.9826204 12.00707,10.5351585 C12.167169,10.0869829 12.167169,9.70321479 12.1193172,9.62328539 Z" id="WhatsApp"></path>
                </g>
                <path d="M81.0078469,86.4962681 L80.677652,86.4962681 C80.5675865,86.4962681 80.4600241,86.49376 80.3549616,86.4887437 C80.2498991,86.4837275 80.127328,86.471187 79.9872446,86.451122 C79.9172029,86.5313821 79.7646144,86.6668192 79.5294744,86.8574371 C79.2943345,87.048055 79.0166734,87.2487025 78.6964828,87.4593855 C78.3762922,87.6700684 78.0385963,87.8606835 77.6833849,88.0312364 C77.3281735,88.2017893 76.9954805,88.3121454 76.6852958,88.362308 L76.670287,88.362308 L76.6402693,88.3698323 C76.6202574,88.3748486 76.6002457,88.3773567 76.5802338,88.3773567 C76.4801743,88.3773567 76.3976264,88.3422434 76.3325877,88.2720157 C76.267549,88.2017881 76.2350301,88.1165129 76.2350301,88.0161877 C76.2350301,87.9860901 76.2375316,87.9610092 76.2425345,87.9409441 C76.2475375,87.9208791 76.2550419,87.9008143 76.2650478,87.8807493 L76.250039,87.8807493 C76.3701104,87.6800988 76.5377077,87.3716034 76.7528357,86.9552537 C76.9679637,86.538904 77.0755261,86.1551658 77.0755261,85.8040275 L77.0755261,85.7739301 C76.665282,85.5632471 76.305073,85.3024054 75.9948884,84.9913972 C75.6847038,84.680389 75.4295557,84.3392883 75.2294366,83.968085 C75.0293175,83.5968817 74.8792304,83.2056191 74.7791709,82.7942857 C74.6791113,82.3829523 74.6290823,81.9766412 74.6290823,81.5753403 C74.6290823,80.9232263 74.7916766,80.3112516 75.1168702,79.7393978 C75.4420637,79.167544 75.8898235,78.6709416 76.460163,78.2495756 C77.0305024,77.8282097 77.6958885,77.4946333 78.4563411,77.2488365 C79.2167937,77.0030397 80.0322668,76.8801431 80.9027849,76.8801431 C81.7632971,76.8801431 82.5712658,77.0030397 83.3267155,77.2488365 C84.0821651,77.4946333 84.7400468,77.8282097 85.3003803,78.2495756 C85.8607138,78.6709416 86.3034707,79.167544 86.6286642,79.7393978 C86.9538577,80.3112516 87.1164521,80.9232263 87.1164521,81.5753403 C87.126458,82.3077144 86.976371,82.9773753 86.6661863,83.5843429 C86.3560017,84.1913105 85.9257521,84.7104858 85.3754246,85.1418843 C84.825097,85.5732828 84.1747197,85.9068591 83.424273,86.1426234 C82.6738264,86.3783877 81.8683591,86.4962681 81.0078469,86.4962681 Z M79.5970143,85.4579072 L80.1223243,85.5030533 C80.3524613,85.5331509 80.5625832,85.5481994 80.7526963,85.5481994 L81.0378646,85.5481994 C81.7682994,85.5481994 82.4461927,85.4503838 83.0715649,85.2547496 C83.6969371,85.0591154 84.2372506,84.7832252 84.6925215,84.4270706 C85.1477925,84.0709161 85.5055,83.6495564 85.7656549,83.1629791 C86.0258097,82.6764017 86.1558852,82.1471941 86.1558852,81.5753403 C86.1558852,81.0536491 86.0183054,80.567079 85.7431416,80.1156155 C85.4679778,79.664152 85.0952616,79.2703814 84.6249817,78.9342919 C84.1547018,78.5982024 83.5993796,78.3323445 82.9589984,78.1367103 C82.3186173,77.9410761 81.6332196,77.8432605 80.9027849,77.8432605 C80.1723502,77.8432605 79.4844511,77.9410761 78.839067,78.1367103 C78.1936828,78.3323445 77.6283548,78.5982024 77.143066,78.9342919 C76.6577772,79.2703814 76.2775566,79.664152 76.0023928,80.1156155 C75.727229,80.567079 75.5896492,81.0536491 75.5896492,81.5753403 C75.5896492,82.1973567 75.7447392,82.82438 76.0549238,83.4564289 C76.3651084,84.0884778 76.85039,84.5750479 77.510783,84.9161537 L78.0360931,85.1870304 L77.9910665,85.7739301 L77.9610488,86.0372825 C77.9410369,86.2128516 77.8459817,86.5313794 77.6758805,86.9928755 C77.9460413,86.8323551 78.2136965,86.6442481 78.4788544,86.4285489 C78.7440122,86.2128497 78.9116094,86.059856 78.9816511,85.9695633 L79.5970143,85.4579072 Z M89.9981528,85.4579072 C89.9981528,86.1601838 89.8280541,86.7796828 89.4878516,87.3164227 C89.1476492,87.8531627 88.6223444,88.3021113 87.9119216,88.6632822 C87.9119216,88.6733147 87.9119216,88.680839 87.9119216,88.6858552 C87.9119216,88.6908715 87.9119216,88.6933796 87.9119216,88.6933796 C87.9119216,89.0043878 87.9719564,89.3655532 88.0920278,89.7768866 C88.2120993,90.1882201 88.3221632,90.4791588 88.4222227,90.6497117 C88.4322287,90.6697768 88.439733,90.6898415 88.444736,90.7099066 C88.449739,90.7299716 88.4522404,90.7500364 88.4522404,90.7701014 C88.4522404,90.8603941 88.422223,90.9356369 88.3621873,90.995832 C88.3021516,91.0560272 88.227108,91.0861243 88.1370544,91.0861243 C88.1270485,91.0861243 88.1120398,91.0861243 88.0920278,91.0861243 C88.0720159,91.0861243 88.0620101,91.0861243 88.0620101,91.0861243 C88.0520042,91.0861243 88.0470013,91.0861243 88.0470013,91.0861243 C87.5166856,90.9958316 86.9813751,90.7249575 86.4410535,90.273494 C85.9007319,89.8220305 85.5755432,89.5260755 85.4654777,89.3856202 C85.3454063,89.3956527 85.2403453,89.403177 85.1502917,89.4081933 C85.0602381,89.4132095 84.965183,89.4157176 84.8651234,89.4157176 C84.8150936,89.4157176 84.767566,89.4157176 84.7225392,89.4157176 C84.6775124,89.4157176 84.6299849,89.4157176 84.5799551,89.4157176 C84.0896633,89.4157176 83.6268948,89.37308 83.1916357,89.2878036 C82.7563767,89.2025271 82.3486401,89.0771225 81.9684138,88.9115859 C81.5881875,88.7460492 81.2429872,88.5454018 80.9328026,88.3096375 C80.622618,88.0738732 80.3474584,87.8105234 80.1073154,87.5195803 C80.1273274,87.4995152 80.3899797,87.4894829 80.8952805,87.4894829 C81.4005812,87.4894829 81.5981959,87.4944991 81.4881304,87.5045316 C81.8983745,87.8255723 82.3536387,88.0638411 82.8539364,88.2193452 C83.3542342,88.3748494 83.929568,88.4526002 84.5799551,88.4526002 C84.5799551,88.4526002 84.6775117,88.4526002 84.8726278,88.4526002 C85.067744,88.4526002 85.2153296,88.4425679 85.3153891,88.4225028 L85.8256903,88.3472593 C85.8256903,88.3472593 85.918244,88.4726639 86.1033542,88.723477 C86.2884643,88.9742901 86.6161545,89.270245 87.0864344,89.6113508 C87.0464105,89.460863 87.0163931,89.164908 86.9963812,88.723477 C86.9763693,88.282046 86.9663635,88.0613338 86.9663635,88.0613338 L87.4316381,87.8356032 C88.0019776,87.54466 88.4122156,87.2060675 88.6623644,86.8198153 C88.9125133,86.4335632 89.0375859,85.9795984 89.0375859,85.4579072 C89.0375859,85.0365412 88.9650438,84.6703596 88.8199575,84.3593514 C88.6748711,84.0483432 88.39721,83.7473721 87.9869658,83.4564289 C88.0369956,83.2959085 88.0845232,83.1253582 88.12955,82.9447728 C88.1745768,82.7641874 88.2070957,82.5886209 88.2271076,82.418068 C88.8574828,82.7892713 89.3102454,83.2256795 89.5854092,83.7273057 C89.860573,84.2289318 89.9981528,84.8057932 89.9981528,85.4579072 Z" id="Bubbles---simple-line-icons-Copy" fill="#FFFFFF"></path>
                <path d="M88.3817303,133.058884 C88.6418851,133.058884 88.8670157,133.154192 89.0571289,133.34481 C89.247242,133.535428 89.3422972,133.761156 89.3422972,134.022002 L89.3422972,145.097851 C89.3422972,145.358697 89.247242,145.584425 89.0571289,145.775043 C88.8670157,145.965661 88.6418851,146.060969 88.3817303,146.060969 L74.9337936,146.060969 C74.6736388,146.060969 74.4485081,145.965661 74.258395,145.775043 C74.0682818,145.584425 73.9732267,145.358697 73.9732267,145.097851 L73.9732267,134.022002 C73.9732267,133.761156 74.0682818,133.535428 74.258395,133.34481 C74.4485081,133.154192 74.6736388,133.058884 74.9337936,133.058884 L88.3817303,133.058884 Z M88.3817303,145.097851 L88.3817303,144.209978 L88.359217,144.187405 C88.354214,144.182388 88.3467097,144.17988 88.3367037,144.17988 L85.1848435,140.91431 L83.4288072,142.509474 C83.3187417,142.589734 83.2011734,142.632371 83.076099,142.637388 C82.9510246,142.642404 82.8484651,142.59475 82.7684174,142.494425 L78.7910701,138.521566 L74.9337936,142.268694 L74.9337936,145.097851 L88.3817303,145.097851 Z M88.3817303,142.840545 L88.3817303,134.022002 L74.9337936,134.022002 L74.9337936,140.91431 L78.4458663,137.498253 C78.4958961,137.448091 78.550928,137.412978 78.6109638,137.392913 C78.6709995,137.372847 78.7360372,137.362815 78.8060789,137.362815 C78.8661147,137.362815 78.9261495,137.377864 78.9861852,137.407961 C79.046221,137.438059 79.1012529,137.483204 79.1512827,137.5434 L83.1136211,141.486161 L84.929693,139.906047 C85.0297525,139.825787 85.1373149,139.790673 85.2523834,139.800706 C85.3674519,139.810738 85.4700114,139.855884 85.560065,139.936144 L88.3817303,142.840545 Z M85.0197461,137.874471 C84.7595913,137.874471 84.5344606,137.781672 84.3443475,137.59607 C84.1542343,137.410468 84.0591792,137.182232 84.0591792,136.911354 C84.0591792,136.650508 84.1542343,136.42478 84.3443475,136.234162 C84.5344606,136.043544 84.7595913,135.948236 85.0197461,135.948236 C85.2799009,135.948236 85.5050316,136.043544 85.6951447,136.234162 C85.8852579,136.42478 85.980313,136.650508 85.980313,136.911354 C85.980313,137.182232 85.8852579,137.410468 85.6951447,137.59607 C85.5050316,137.781672 85.2799009,137.874471 85.0197461,137.874471 Z" id="Picture---simple-line-icons-Copy" fill="#FFFFFF"></path>
                <path d="M267.396876,101.174075 C267.396876,99.9299727 266.399444,98.9152795 265.176506,98.9152795 C263.953567,98.9152795 262.956135,99.9299727 262.956135,101.174075 C262.956135,102.418177 263.953567,103.43287 265.176506,103.43287 C266.399444,103.43287 267.396876,102.418177 267.396876,101.174075 Z M268.593795,101.174075 C268.593795,103.09758 267.06729,104.650502 265.176506,104.650502 C263.285721,104.650502 261.759216,103.09758 261.759216,101.174075 C261.759216,99.2505694 263.285721,97.6976478 265.176506,97.6976478 C267.06729,97.6976478 268.593795,99.2505694 268.593795,101.174075 Z M269.530514,97.5564731 C269.530514,98.0064674 269.174907,98.3682276 268.732568,98.3682276 C268.290229,98.3682276 267.934622,98.0064674 267.934622,97.5564731 C267.934622,97.1064787 268.290229,96.7447186 268.732568,96.7447186 C269.174907,96.7447186 269.530514,97.1064787 269.530514,97.5564731 Z M265.176506,95.615321 C264.205093,95.615321 262.123496,95.5359102 261.24749,95.8888469 C260.943924,96.0123748 260.718418,96.1623729 260.484238,96.4006052 C260.250058,96.6388375 260.102612,96.8682464 259.981185,97.1770661 C259.634252,98.0682313 259.712312,100.185852 259.712312,101.174075 C259.712312,102.162298 259.634252,104.279918 259.981185,105.171083 C260.102612,105.479903 260.250058,105.709312 260.484238,105.947544 C260.718418,106.185776 260.943924,106.335775 261.24749,106.459302 C262.123496,106.812239 264.205093,106.732828 265.176506,106.732828 C266.147918,106.732828 268.229515,106.812239 269.105521,106.459302 C269.409087,106.335775 269.634594,106.185776 269.868773,105.947544 C270.102953,105.709312 270.2504,105.479903 270.371826,105.171083 C270.718759,104.279918 270.640699,102.162298 270.640699,101.174075 C270.640699,100.185852 270.718759,98.0682313 270.371826,97.1770661 C270.2504,96.8682464 270.102953,96.6388375 269.868773,96.4006052 C269.634594,96.1623729 269.409087,96.0123748 269.105521,95.8888469 C268.229515,95.5359102 266.147918,95.615321 265.176506,95.615321 Z M271.837618,101.174075 C271.837618,102.109357 271.846291,103.035816 271.794251,103.971098 C271.742211,105.056379 271.499358,106.018131 270.718759,106.812239 C269.93816,107.606347 268.992768,107.853403 267.925949,107.906343 C267.006577,107.959284 266.095878,107.95046 265.176506,107.95046 C264.257133,107.95046 263.346434,107.959284 262.427062,107.906343 C261.360243,107.853403 260.414851,107.606347 259.634252,106.812239 C258.853653,106.018131 258.6108,105.056379 258.55876,103.971098 C258.50672,103.035816 258.515394,102.109357 258.515394,101.174075 C258.515394,100.238792 258.50672,99.3123334 258.55876,98.377051 C258.6108,97.2917705 258.853653,96.3300179 259.634252,95.5359102 C260.414851,94.7418025 261.360243,94.4947468 262.427062,94.4418063 C263.346434,94.3888658 264.257133,94.3976892 265.176506,94.3976892 C266.095878,94.3976892 267.006577,94.3888658 267.925949,94.4418063 C268.992768,94.4947468 269.93816,94.7418025 270.718759,95.5359102 C271.499358,96.3300179 271.742211,97.2917705 271.794251,98.377051 C271.846291,99.3123334 271.837618,100.238792 271.837618,101.174075 Z" id="instagram---FontAwesome" fill="#FFFFFF"></path>
                <path d="M247.636587,149.624981 C248.793658,148.48918 250.184583,147.921288 251.809406,147.921288 C253.434228,147.921288 254.825154,148.48918 255.982225,149.624981 C257.139295,150.760782 257.717822,152.13113 257.717822,153.736066 C257.717822,155.020015 257.225459,156.563199 256.240718,158.365666 C255.255977,160.168132 254.271251,161.64959 253.28651,162.810082 L251.809406,164.513775 C251.637076,164.340935 251.421667,164.100199 251.163173,163.791557 C250.904679,163.482916 250.436934,162.88416 249.759924,161.995272 C249.082915,161.106385 248.485925,160.242201 247.968936,159.402696 C247.451947,158.563191 246.978047,157.612589 246.547223,156.550863 C246.116399,155.489136 245.90099,154.550879 245.90099,153.736066 C245.90099,152.13113 246.479517,150.760782 247.636587,149.624981 Z M250.295374,155.217538 C250.713889,155.612599 251.218561,155.810127 251.809406,155.810127 C252.400251,155.810127 252.898768,155.606426 253.304974,155.199019 C253.711179,154.791612 253.914279,154.303966 253.914279,153.736066 C253.914279,153.168165 253.711179,152.680519 253.304974,152.273112 C252.898768,151.865705 252.400251,151.662005 251.809406,151.662005 C251.218561,151.662005 250.720044,151.865705 250.313838,152.273112 C249.907633,152.680519 249.704533,153.168165 249.704533,153.736066 C249.704533,154.303966 249.901478,154.797785 250.295374,155.217538 Z" id="ion-android-pin---Ionicons" fill="#FFFFFF"></path>
                <g id="Group-22-Copy-2" transform="translate(65.910891, 124.565295)">
                    <path d="M30.8918317,15.4896118 C30.8918317,24.0445244 23.9763862,30.9792236 15.4459158,30.9792236 C6.91544544,30.9792236 0,24.0445244 0,15.4896118 C0,6.93500899 6.91544544,0 15.4459158,0 C23.9763862,0 30.8918317,6.93500899 30.8918317,15.4896118" id="Fill-80" fill="#F5EA30"></path>
                    <g id="Group-26" transform="translate(7.277228, 7.298748)">
                        <path d="M8.15274901,15.5706619 C8.11128118,15.5706619 8.07047481,15.5694563 8.02971932,15.5674644 L8.02961756,15.5674644 C8.00366837,15.5695087 7.97644716,15.5706619 7.94927683,15.5706619 C6.99536428,15.5706619 6.38306517,15.1247944 5.79101661,14.6935515 C5.38218967,14.3959221 4.99641172,14.1150141 4.54184298,14.0370161 C4.32005373,13.9991703 4.0992821,13.9799853 3.88588818,13.9799853 C3.50153489,13.9799853 3.19833642,14.0411047 2.97695422,14.0857124 C2.84242548,14.1128125 2.72636646,14.1361385 2.6381901,14.1361385 C2.54604503,14.1361385 2.44616609,14.1155906 2.40281568,13.9628446 C2.36506216,13.8304892 2.33779007,13.7023271 2.31158648,13.5783586 C2.24396594,13.2592378 2.1959345,13.0630372 2.06613767,13.0424894 C0.553147288,12.8017335 0.12010111,12.4734396 0.0235803019,12.240494 C0.00989337651,12.2072085 0.00210861969,12.1738183 0.000276912204,12.1407949 C-0.00465852186,12.0513174 0.056907202,11.9722711 0.14274305,11.9578561 C2.46855363,11.5632534 3.51150752,9.11433691 3.55480705,9.01033959 C3.55597731,9.0074566 3.55724933,9.00467845 3.55852135,9.00179546 C3.70088572,8.70463782 3.72876838,8.44663643 3.64166051,8.23518222 C3.48204756,7.84765595 2.96148647,7.67734987 2.61692194,7.56475601 C2.53261251,7.53728897 2.45267883,7.51128965 2.38963757,7.48560483 C1.70203493,7.20558787 1.64484495,6.91812757 1.67181175,6.77161926 C1.71790973,6.52200474 2.04176579,6.3480294 2.30364908,6.3480294 C2.37544183,6.3480294 2.43868662,6.3611339 2.49185702,6.38671389 C2.80116118,6.53600035 3.07993688,6.61163952 3.32045025,6.61163952 C3.6528034,6.61163952 3.79786446,6.46775211 3.81562184,6.44888163 C3.80717564,6.28670034 3.7966942,6.11733779 3.78595836,5.94257618 C3.71670964,4.80971837 3.63087379,3.40213784 3.97874557,2.59867474 C5.02139418,0.19022492 7.23241776,0.00314507997 7.88521795,0.00314507997 C7.90195772,0.00314507997 8.17142225,0.000157253998 8.17142225,0.000157253998 L8.21009163,0 C8.86441824,0 11.0802755,0.187446766 12.1234838,2.59720704 C12.4714573,3.40108948 12.3853671,4.80992805 12.3160166,5.94189474 L12.3131164,5.99111525 C12.3034999,6.14873617 12.2942396,6.30195398 12.2864549,6.44861954 C12.3030929,6.46607474 12.4365022,6.59843019 12.7378181,6.61032907 L12.7381743,6.61032907 C12.9671377,6.60131318 13.230293,6.52609335 13.5190923,6.38671389 C13.6037578,6.3459851 13.6977346,6.33738855 13.7617426,6.33738855 C13.8594846,6.33738855 13.9585494,6.35688805 14.0408236,6.3922702 L14.0458099,6.39436692 C14.2794035,6.479651 14.4324528,6.64833212 14.4357092,6.82456144 C14.4387621,6.99056924 14.3157832,7.24007892 13.7124392,7.48560483 C13.6499067,7.51092272 13.569973,7.5370793 13.4853583,7.56475601 C13.1403867,7.67750712 12.6200292,7.84765595 12.460518,8.2351298 C12.3733083,8.44647917 12.4012419,8.7042709 12.5435554,9.00163821 C12.5448274,9.0045212 12.5462521,9.00729935 12.5473205,9.01033959 C12.5906201,9.11423207 13.6326581,11.5624672 15.9595372,11.9574892 C16.0454239,11.9721138 16.1067861,12.0510553 16.1020542,12.1405853 C16.1001207,12.1741852 16.0921833,12.2079948 16.0782929,12.2408609 C15.9822809,12.4721291 15.5495909,12.8000037 14.0360917,13.0409168 C13.9124514,13.0604687 13.8645218,13.2264765 13.7907446,13.5745321 C13.7639305,13.7012264 13.7367602,13.8256143 13.6993628,13.956502 C13.6671044,14.0700394 13.5984154,14.1231913 13.4828651,14.1231913 L13.4640393,14.1231913 C13.3839021,14.1231913 13.2698783,14.1084094 13.1253769,14.0791601 C12.8691414,14.0275284 12.5818686,13.9799853 12.2163412,13.9799853 C12.0028964,13.9799853 11.782023,13.9991703 11.5600811,14.0370161 C11.1060212,14.1150141 10.7204976,14.3953979 10.3124339,14.6925556 C9.71916419,15.1247944 9.10696684,15.5706619 8.15274901,15.5706619" id="Fill-4" fill="#FFFFFE"></path>
                        <path d="M8.40707095,0 L8.40640742,0 C8.39216699,0 8.37879425,0 8.36608504,0.000256309723 C8.36608504,0.000256309723 8.10169275,0.00292193084 8.08066386,0.00292193084 C7.4002365,0.00292193084 5.09410277,0.193308793 4.00611315,2.64316839 C3.64020034,3.46735793 3.72793979,4.86716786 3.79827426,5.99200871 C3.8065429,6.12467462 3.81537299,6.2623642 3.82292706,6.39538895 C3.76662885,6.42671 3.66383231,6.46566908 3.50203239,6.46566908 C3.28607799,6.46566908 3.03082203,6.39718312 2.74346129,6.26190285 C2.66715502,6.22601949 2.5792114,6.2080778 2.48202937,6.2080778 C2.14546512,6.2080778 1.74290488,6.43045212 1.68022655,6.76191185 C1.63505528,7.00058747 1.74137365,7.3487586 2.5053551,7.65181921 C2.57431147,7.67919309 2.65720203,7.70554173 2.74473731,7.73332571 C3.06032372,7.83400416 3.5374038,7.98604709 3.66689477,8.29233721 C3.73391158,8.45099293 3.70716611,8.65522052 3.58752604,8.89912485 C3.58492295,8.90466114 3.58226882,8.91009491 3.57992093,8.91578498 C3.5379142,9.01390034 2.52822146,11.325609 0.286552484,11.6962329 C0.11413604,11.7247858 -0.00902585438,11.879238 0.000518809628,12.0544001 C0.0034791867,12.1064822 0.0157800638,12.1583593 0.0370131132,12.2086985 C0.205244196,12.6037231 0.915071161,12.8931993 2.20727575,13.0946074 C2.25045642,13.1533024 2.29532145,13.3605032 2.32283254,13.4868126 C2.34983322,13.6113791 2.3777016,13.7398415 2.41741148,13.8753781 C2.45635575,14.0086079 2.55751898,14.1678788 2.81762384,14.1678788 C2.92266618,14.1678788 3.04664473,14.1435294 3.19012094,14.1152328 C3.40541181,14.0729929 3.70022453,14.0151694 4.06925085,14.0151694 C4.27392519,14.0151694 4.48605152,14.0330086 4.69965804,14.0685844 C5.11661184,14.1383519 5.47093835,14.3898943 5.88115474,14.6811134 C6.46868751,15.0983343 7.13405777,15.5706619 8.14543487,15.5706619 C8.17320117,15.5706619 8.20117163,15.5698417 8.2287848,15.5677912 C8.26160415,15.5692266 8.30422337,15.5706619 8.34954777,15.5706619 C9.36123111,15.5706619 10.0264993,15.0982831 10.6136237,14.6812672 C11.0247589,14.389638 11.3788302,14.1381981 11.795784,14.0685844 C12.0090332,14.0330086 12.2212106,14.0151694 12.425936,14.0151694 C12.7780167,14.0151694 13.0565984,14.0601262 13.3050659,14.1088763 C13.4607409,14.1394797 13.5860465,14.1550633 13.677563,14.1550633 L13.6871587,14.1552171 L13.6964481,14.1552171 C13.8885664,14.1552171 14.0240802,14.0532571 14.0778774,13.8682527 C14.1168217,13.7354843 14.1447411,13.6103539 14.1723543,13.4836343 C14.1997122,13.357735 14.2444752,13.1514057 14.2875027,13.0931209 C15.5800646,12.8915589 16.2896874,12.602544 16.4575612,12.2092111 C16.4791515,12.1588719 16.4915545,12.1065847 16.4945149,12.0540412 C16.5042127,11.8787766 16.3809487,11.7245295 16.2086854,11.6960791 C13.9659445,11.3248401 12.9571195,9.01364403 12.9152148,8.9156312 C12.9128159,8.90999238 12.9102638,8.90435357 12.9075076,8.8989198 C12.7877655,8.65506673 12.7612752,8.45099293 12.828241,8.29233721 C12.9576299,7.98604709 13.4345058,7.83400416 13.7501432,7.73353075 C13.8384441,7.70538795 13.9214368,7.67883426 13.9896786,7.65181921 C14.5487815,7.43006004 14.8292517,7.15770533 14.823331,6.84234185 C14.8184821,6.59464413 14.6264149,6.37365389 14.3210877,6.26410711 L14.3201689,6.26379954 C14.2174745,6.22099581 14.0955886,6.19762037 13.9762038,6.19762037 C13.8945892,6.19762037 13.77352,6.20879547 13.6604132,6.26190285 C13.3944897,6.38708452 13.1554647,6.45510912 12.9494123,6.46438753 C12.8127756,6.45797978 12.7233518,6.42337797 12.6723618,6.3951839 C12.678844,6.28102355 12.6860918,6.16353117 12.693799,6.04075882 L12.6966573,5.99303395 C12.7674001,4.86742417 12.8551906,3.46638396 12.4889205,2.64163053 C11.4004715,0.190643172 9.08943787,0 8.40707095,0 Z M8.40707095,0.343455029 C9.02839285,0.343506291 11.1682351,0.510927802 12.1767028,2.78157564 C12.5086223,3.52907732 12.4237412,4.88352042 12.3553973,5.97170898 C12.3445766,6.14425668 12.3340622,6.31147315 12.3255383,6.47146168 L12.3218123,6.54005016 L12.3675961,6.59115832 C12.3858688,6.61181688 12.5585915,6.79292533 12.9423686,6.80789382 L12.9487998,6.8080476 L12.9550778,6.80789382 C13.2088026,6.79830784 13.4947852,6.71926192 13.8054206,6.57306285 C13.8510002,6.55153283 13.9118411,6.5410754 13.9762038,6.5410754 C14.0497028,6.5410754 14.1275913,6.55491612 14.191903,6.58213621 L14.2015497,6.58603212 C14.3642684,6.64329171 14.4794168,6.75145442 14.4813564,6.84905716 C14.4823262,6.90457385 14.440983,7.10347019 13.8639136,7.33235477 C13.8075643,7.35480751 13.7331976,7.37843926 13.6471936,7.40571062 C13.2716851,7.52561231 12.7043645,7.70620814 12.5133692,8.15787713 C12.4057748,8.41280278 12.4350723,8.71314651 12.6007513,9.05080894 C12.6689931,9.21054116 13.7406496,11.635795 16.1530507,12.0349718 C16.1523872,12.0461982 16.149682,12.0589624 16.1431487,12.0737771 C16.1021628,12.1705084 15.8422621,12.5044287 14.2253348,12.7550996 C13.9722226,12.794315 13.9101567,13.0789726 13.8381889,13.4102785 C13.8125153,13.5286936 13.7858719,13.6481852 13.7495818,13.7719828 C13.738608,13.809404 13.7365153,13.8116083 13.6964481,13.8116083 C13.6909867,13.8116083 13.6847597,13.8116083 13.677563,13.8116083 C13.6058504,13.8116083 13.4968268,13.7966398 13.3706025,13.771829 C13.1414285,13.726821 12.8271691,13.6716632 12.425936,13.6716632 C12.2020192,13.6716632 11.9711097,13.691194 11.739741,13.7297429 C11.2449497,13.8124797 10.8423894,14.0984188 10.4160441,14.4008643 C9.84377257,14.8073203 9.25225861,15.2272581 8.34954777,15.2272581 C8.31039933,15.2272581 8.27176131,15.2259766 8.23317432,15.2241312 L8.22301717,15.2236185 L8.21275793,15.2245412 C8.19060614,15.2263867 8.16830123,15.2272581 8.14543487,15.2272581 C7.24292819,15.2272581 6.65115902,14.8073203 6.07898959,14.4010181 C5.65279738,14.0984188 5.25013505,13.8124797 4.75544584,13.7297429 C4.52397497,13.691194 4.29321869,13.6716632 4.06925085,13.6716632 C3.66811976,13.6716632 3.35386042,13.7330237 3.12453328,13.778083 C2.99835996,13.8029963 2.8891833,13.82427 2.81762384,13.82427 C2.75913087,13.82427 2.75790589,13.8208867 2.74555397,13.7784418 C2.70931487,13.6545417 2.68272252,13.5318718 2.65699786,13.4135593 C2.58497903,13.0823046 2.52265799,12.7959041 2.269852,12.75674 C0.652771544,12.5059665 0.393023977,12.171226 0.351987025,12.0746998 C0.345453779,12.0597313 0.342748607,12.0466595 0.342187156,12.0352794 C2.75438406,11.6361026 3.82604056,9.21115631 3.89428236,9.05096273 C4.05996139,8.71314651 4.08941204,8.41300783 3.98171556,8.15823596 C3.79087332,7.70641318 3.22350174,7.52561231 2.84794218,7.40571062 C2.76188708,7.37854179 2.68757141,7.35480751 2.63117112,7.33235477 C2.14362765,7.13899472 1.99382236,6.94419933 2.01628039,6.82609181 C2.04210713,6.68994008 2.27704878,6.55153283 2.48202937,6.55153283 C2.52817042,6.55153283 2.56844176,6.55891455 2.59835177,6.57306285 C2.93139419,6.72956557 3.23559846,6.80922663 3.50203239,6.80922663 C3.92138512,6.80922663 4.108042,6.61325222 4.1278459,6.59105579 L4.17332341,6.54005016 L4.16959742,6.47166672 C4.16107358,6.31198577 4.15061018,6.14482057 4.13973845,5.97237538 C4.07149665,4.88418682 3.9866155,3.53066644 4.31858606,2.78301097 C5.32312366,0.520718834 7.45250247,0.346428222 8.08117427,0.346428222 C8.09669073,0.346428222 8.36991312,0.343711339 8.36991312,0.343711339 C8.38165254,0.343506291 8.39395342,0.343455029 8.40707095,0.343455029 Z" id="Fill-5" fill="#0B0C0A"></path>
                    </g>
                </g>
            </g>
        </g>
    </g>
</svg>