<?xml version="1.0" standalone="no"?>
<!DOCTYPE svg PUBLIC "-//W3C//DTD SVG 20010904//EN"
 "http://www.w3.org/TR/2001/REC-SVG-20010904/DTD/svg10.dtd">
<svg version="1.0" xmlns="http://www.w3.org/2000/svg"
 width="1146.000000pt" height="1156.000000pt" viewBox="0 0 1146.000000 1156.000000"
 preserveAspectRatio="xMidYMid meet">


<g transform="translate(0.000000,1156.000000) scale(0.100000,-0.100000)"
fill="white" stroke="none">
<path d="M5290 11320 c-80 -4 -163 -10 -185 -14 -22 -4 -74 -11 -115 -17 -448
-61 -902 -172 -1234 -303 -36 -14 -96 -38 -134 -52 -441 -173 -969 -480 -1347
-783 -314 -251 -657 -595 -906 -906 -609 -761 -1008 -1709 -1139 -2705 -6 -47
-15 -107 -21 -134 -5 -27 -12 -209 -15 -405 -8 -448 6 -699 55 -1001 139 -873
454 -1645 964 -2364 67 -95 222 -292 331 -421 66 -78 395 -410 449 -453 23
-19 65 -55 92 -81 116 -109 486 -385 637 -476 9 -5 72 -44 140 -85 180 -109
305 -175 563 -295 232 -108 579 -231 860 -303 294 -76 454 -107 735 -142 111
-14 402 -31 409 -24 3 3 6 991 6 2196 l0 2191 -657 376 -658 376 0 863 c0 474
3 862 8 861 4 0 113 -60 242 -132 l235 -132 3 -565 2 -565 401 -230 c221 -127
408 -231 415 -233 12 -3 14 158 12 1030 l-3 1033 -175 98 c-391 220 -1936
1076 -1952 1083 -17 6 -18 -84 -18 -1804 l0 -1810 660 -377 660 -378 0 -1464
c0 -812 -4 -1463 -9 -1463 -13 0 -275 75 -384 110 l-97 31 0 1302 0 1302 -408
233 c-224 127 -411 232 -415 232 -4 0 -7 -601 -7 -1335 0 -734 -2 -1335 -5
-1335 -15 0 -280 177 -400 268 -254 192 -530 450 -728 681 -619 723 -991 1577
-1102 2526 -35 303 -30 796 11 1115 176 1342 922 2533 2059 3285 1197 792
2704 980 4077 509 1660 -570 2871 -2058 3092 -3799 42 -330 47 -820 11 -1115
-131 -1078 -583 -2017 -1335 -2770 -577 -578 -1276 -986 -2058 -1200 -80 -22
-149 -40 -154 -40 -4 0 -8 429 -8 953 l0 952 656 375 c361 206 658 380 660
385 2 6 3 1060 2 2342 l-3 2333 -1073 -596 -1073 -596 3 -3543 c2 -2438 6
-3547 13 -3554 20 -20 364 8 630 50 290 46 784 175 995 260 25 10 99 39 165
65 135 53 389 169 480 218 33 18 96 53 140 76 44 24 91 51 105 60 14 9 30 19
36 21 5 2 67 40 138 84 202 127 462 321 681 510 89 76 431 415 468 463 16 20
47 57 70 82 78 84 239 291 353 455 483 698 805 1513 925 2350 15 105 26 221
39 410 14 192 7 860 -9 941 -6 27 -15 90 -22 139 -6 50 -18 128 -26 175 -8 47
-18 110 -23 140 -20 134 -109 477 -177 685 -226 691 -566 1296 -1052 1870
-173 205 -534 552 -766 736 -533 424 -1195 768 -1835 953 -205 59 -490 129
-575 140 -22 3 -98 14 -170 26 -71 12 -164 26 -205 31 -201 25 -676 34 -1010
19z m1946 -7206 c-2 -6 -98 -64 -212 -129 -115 -65 -224 -127 -241 -138 l-33
-19 0 1579 0 1579 243 135 242 135 3 -1565 c1 -861 0 -1571 -2 -1577z"/>
</g>
</svg>

