<?xml version="1.0" standalone="no"?>
<!DOCTYPE svg PUBLIC "-//W3C//DTD SVG 20010904//EN"
 "http://www.w3.org/TR/2001/REC-SVG-20010904/DTD/svg10.dtd">
<svg version="1.0" xmlns="http://www.w3.org/2000/svg"
 width="1156.000000pt" height="1156.000000pt" viewBox="0 0 1156.000000 1156.000000"
 preserveAspectRatio="xMidYMid meet">
<metadata>
Created by potrace 1.14, written by Peter Selinger 2001-2017
</metadata>
<g transform="translate(0.000000,1156.000000) scale(0.100000,-0.100000)"
fill="#000000" stroke="none">
<path d="M5215 11319 c-4 -5 -13 -8 -21 -5 -8 3 -14 2 -14 -3 0 -4 -24 -8 -52
-10 -29 -1 -69 -6 -88 -11 -19 -5 -44 -9 -55 -9 -31 1 -91 -7 -102 -14 -5 -3
-32 -7 -61 -9 -29 -2 -52 -7 -52 -12 0 -5 -3 -7 -6 -3 -3 3 -17 2 -30 -3 -15
-6 -26 -6 -30 1 -4 7 -10 6 -19 -1 -8 -7 -19 -9 -25 -5 -5 3 -10 1 -10 -4 0
-6 -12 -11 -27 -11 -16 0 -52 -7 -82 -15 -30 -8 -58 -12 -63 -9 -4 3 -8 0 -8
-5 0 -6 -11 -11 -24 -11 -13 0 -42 -7 -65 -15 -23 -8 -45 -14 -49 -13 -4 1
-27 -5 -52 -12 -66 -20 -72 -21 -102 -22 -16 -1 -26 -4 -23 -6 5 -5 -121 -49
-155 -55 -8 -2 -25 -8 -37 -15 -12 -7 -26 -11 -30 -11 -4 1 -21 -3 -38 -10
-37 -15 -55 -21 -58 -20 -1 0 -15 -6 -31 -15 -16 -8 -33 -13 -38 -10 -4 3 -8
1 -8 -4 0 -8 -6 -10 -49 -14 -11 -1 -17 -6 -15 -10 3 -4 -8 -10 -23 -14 -15
-4 -33 -11 -40 -16 -7 -5 -17 -7 -23 -3 -5 3 -13 -1 -16 -10 -4 -11 -13 -14
-28 -9 -11 4 -18 3 -14 -1 9 -9 -61 -46 -73 -39 -5 3 -9 0 -9 -5 0 -6 -9 -11
-19 -11 -11 0 -27 -7 -35 -16 -9 -8 -20 -13 -25 -9 -5 3 -13 0 -16 -5 -7 -11
-59 -35 -61 -28 0 2 -9 -5 -19 -15 -9 -10 -24 -16 -32 -13 -8 3 -11 1 -8 -4 3
-6 -3 -10 -14 -10 -10 0 -21 -4 -23 -9 -1 -5 -10 -11 -18 -13 -8 -2 -21 -9
-28 -16 -8 -7 -17 -10 -22 -7 -4 3 -11 -2 -14 -11 -4 -9 -13 -14 -21 -10 -8 3
-15 1 -15 -4 0 -6 -7 -10 -15 -10 -8 0 -15 -5 -15 -11 0 -6 -7 -9 -15 -6 -8 4
-17 1 -21 -5 -5 -7 -2 -8 7 -3 11 6 11 5 3 -4 -6 -7 -18 -13 -26 -14 -7 -2
-28 -12 -44 -24 -17 -13 -34 -20 -38 -16 -3 3 -6 2 -6 -3 0 -5 -17 -18 -37
-29 -21 -11 -47 -28 -57 -37 -10 -10 -23 -15 -28 -12 -4 3 -11 -2 -14 -11 -4
-9 -13 -14 -20 -11 -8 3 -14 2 -14 -2 0 -10 -54 -50 -71 -54 -7 -2 -24 -13
-37 -26 -13 -12 -29 -19 -35 -16 -7 4 -9 4 -5 -1 4 -4 -15 -22 -42 -40 -27
-18 -47 -35 -43 -38 3 -4 -3 -7 -15 -7 -11 0 -26 -8 -31 -17 -6 -10 -11 -15
-11 -11 0 4 -11 -3 -24 -15 -34 -32 -80 -62 -88 -59 -5 1 -8 -4 -8 -10 -1 -13
-66 -63 -84 -65 -5 -1 -13 -8 -18 -17 -5 -9 -15 -13 -21 -10 -7 4 -9 3 -4 -1
8 -9 -30 -55 -46 -55 -6 0 -23 -14 -39 -32 -15 -17 -28 -28 -28 -23 0 4 -9 -4
-21 -19 -11 -14 -25 -24 -30 -20 -5 3 -8 2 -7 -3 4 -12 -44 -63 -54 -57 -4 3
-8 1 -8 -3 0 -5 -87 -97 -192 -205 -106 -108 -206 -213 -223 -233 -16 -21 -45
-53 -62 -73 -18 -21 -33 -41 -33 -45 0 -5 -5 -5 -10 -2 -6 3 -10 -3 -10 -15 0
-12 -4 -18 -10 -15 -5 3 -12 -5 -16 -19 -3 -14 -11 -24 -18 -23 -6 1 -10 -4
-9 -10 2 -7 -4 -13 -13 -13 -8 0 -12 -4 -9 -10 3 -5 1 -10 -4 -10 -6 0 -11 -7
-11 -15 0 -8 -3 -15 -7 -15 -5 0 -21 -20 -38 -45 -16 -24 -35 -45 -42 -45 -7
0 -10 -6 -7 -13 2 -7 -12 -31 -33 -52 -21 -22 -31 -35 -23 -30 13 8 13 7 0
-11 -8 -10 -21 -23 -27 -27 -7 -4 -13 -14 -13 -21 0 -7 -11 -25 -24 -39 -13
-14 -22 -28 -20 -30 2 -2 -6 -15 -18 -29 -13 -14 -24 -32 -26 -39 -2 -8 -10
-18 -18 -22 -8 -5 -12 -12 -9 -18 4 -5 1 -9 -5 -9 -6 0 -8 -5 -5 -10 3 -6 -1
-13 -9 -16 -9 -3 -14 -10 -11 -14 3 -4 -2 -13 -10 -20 -8 -7 -12 -17 -8 -23 4
-6 0 -8 -10 -4 -11 4 -14 2 -11 -7 3 -7 -2 -21 -11 -30 -9 -9 -13 -16 -8 -16
4 0 1 -6 -7 -13 -8 -7 -16 -21 -18 -31 -2 -11 -13 -28 -25 -38 -12 -11 -15
-16 -7 -12 13 7 13 6 0 -12 -8 -10 -19 -22 -25 -26 -5 -4 -7 -8 -3 -8 8 0 -34
-83 -53 -106 -6 -8 -8 -14 -4 -14 5 0 0 -9 -10 -20 -10 -11 -14 -20 -10 -20 4
0 0 -9 -10 -20 -10 -11 -14 -20 -10 -20 4 0 0 -9 -11 -21 -10 -12 -18 -23 -16
-25 6 -10 1 -25 -7 -20 -5 4 -8 -2 -7 -11 2 -10 -2 -21 -8 -25 -6 -4 -12 -12
-12 -18 -1 -5 -2 -15 -3 -21 0 -5 -5 -8 -10 -4 -6 3 -8 -4 -6 -15 2 -11 -2
-26 -8 -33 -7 -7 -13 -18 -15 -25 -1 -7 -11 -32 -21 -55 -11 -23 -25 -59 -32
-79 -7 -20 -15 -35 -18 -33 -3 1 -7 -11 -8 -28 -2 -18 -7 -33 -13 -35 -5 -2
-10 -13 -10 -23 0 -11 -4 -18 -9 -15 -5 3 -9 0 -8 -7 1 -36 -4 -58 -12 -52 -6
3 -8 -4 -6 -15 2 -11 -2 -26 -9 -32 -7 -7 -11 -20 -8 -30 2 -10 -1 -18 -9 -18
-7 0 -9 -3 -6 -7 4 -3 2 -12 -4 -20 -6 -7 -9 -13 -5 -13 5 0 0 -17 -30 -95 -4
-11 -9 -33 -11 -50 -3 -16 -10 -33 -16 -37 -7 -4 -9 -8 -5 -8 4 0 -2 -30 -13
-67 -11 -38 -22 -79 -25 -92 -3 -14 -8 -29 -11 -35 -4 -6 -8 -19 -9 -31 -3
-26 -9 -58 -24 -120 -6 -27 -13 -58 -15 -68 -2 -9 -7 -22 -10 -27 -4 -6 -9
-34 -11 -63 -3 -29 -8 -59 -11 -67 -11 -27 -14 -45 -14 -82 0 -21 -3 -38 -7
-38 -4 0 -8 -24 -10 -52 -2 -48 -7 -84 -12 -98 -5 -13 -7 -29 -8 -83 -1 -32
-6 -56 -10 -53 -11 7 -17 -195 -16 -589 0 -397 4 -535 14 -535 4 0 8 -35 10
-77 1 -43 3 -86 4 -95 0 -9 4 -14 8 -12 5 3 8 -7 7 -23 0 -15 2 -39 5 -53 4
-14 9 -47 12 -73 9 -78 11 -91 17 -107 3 -8 8 -31 11 -50 5 -29 22 -119 25
-127 2 -6 3 -8 7 -28 5 -21 7 -31 22 -102 5 -24 7 -43 4 -43 -2 0 0 -6 6 -13
5 -6 13 -25 16 -42 3 -16 9 -47 15 -67 5 -21 6 -38 2 -38 -3 0 0 -4 6 -8 7 -5
14 -20 15 -35 1 -15 5 -27 9 -27 3 0 6 -6 7 -12 1 -15 7 -37 15 -58 11 -29 89
-265 91 -275 1 -5 9 -25 18 -43 10 -19 12 -30 5 -25 -7 3 -5 -2 4 -13 18 -21
42 -84 32 -84 -3 0 2 -9 11 -19 10 -11 15 -24 12 -29 -3 -6 1 -13 9 -16 8 -3
14 -9 13 -13 0 -4 4 -21 10 -36 7 -16 9 -33 6 -39 -4 -7 -2 -8 4 -4 11 6 16
-6 13 -26 0 -5 3 -8 9 -8 5 0 10 -9 10 -19 0 -11 5 -21 11 -23 5 -2 11 -11 12
-20 2 -9 8 -22 14 -29 6 -8 11 -16 12 -19 0 -14 16 -48 35 -75 12 -16 19 -30
18 -30 -7 0 18 -54 28 -60 5 -3 8 -11 5 -16 -4 -5 -1 -9 6 -9 7 0 10 -3 6 -6
-3 -3 5 -23 18 -44 13 -21 21 -41 18 -44 -4 -3 -1 -6 5 -6 7 0 12 -7 12 -15 0
-8 3 -15 8 -15 4 0 13 -15 21 -32 8 -18 21 -41 29 -50 8 -10 11 -18 6 -18 -5
0 -4 -4 1 -8 19 -13 55 -71 55 -87 0 -9 5 -13 10 -10 6 3 10 0 10 -8 0 -8 7
-20 15 -27 9 -7 13 -15 11 -17 -3 -3 4 -14 15 -26 10 -11 19 -27 19 -34 0 -7
5 -13 10 -13 6 0 10 -7 10 -15 0 -8 5 -15 10 -15 6 0 10 -5 10 -11 0 -6 7 -17
15 -26 8 -8 13 -18 10 -23 -3 -5 4 -12 16 -15 11 -4 18 -9 15 -12 -3 -3 8 -22
24 -41 16 -19 26 -40 23 -46 -3 -6 -3 -8 1 -4 5 4 14 1 21 -5 10 -9 10 -15 1
-26 -7 -10 -7 -13 0 -8 11 6 54 -35 54 -52 0 -5 7 -12 16 -15 8 -3 13 -9 11
-13 -3 -5 1 -14 9 -21 8 -7 14 -10 14 -6 0 4 11 -10 25 -30 14 -20 25 -39 25
-41 0 -3 14 -18 30 -33 17 -16 30 -32 30 -35 0 -3 10 -17 23 -30 82 -89 95
-105 90 -111 -4 -3 -1 -6 6 -6 7 0 9 -5 6 -10 -3 -6 1 -10 10 -10 9 0 13 -4
10 -10 -3 -5 1 -10 10 -10 9 0 13 -4 10 -10 -3 -5 1 -10 10 -10 9 0 13 -4 10
-10 -3 -5 1 -10 10 -10 8 0 20 -11 25 -25 5 -14 21 -30 35 -37 23 -10 30 -20
26 -41 -1 -5 3 -6 9 -2 5 3 10 2 10 -4 0 -5 9 -13 20 -16 11 -3 20 -13 20 -21
0 -8 8 -14 17 -14 9 0 14 -3 10 -6 -8 -8 18 -34 33 -34 6 0 8 -5 5 -10 -3 -6
1 -10 9 -10 8 0 18 -9 21 -20 3 -11 13 -20 21 -20 8 0 12 -5 9 -10 -3 -6 2
-10 11 -10 10 0 15 -3 11 -6 -8 -8 16 -33 25 -27 5 2 8 -1 8 -8 0 -7 3 -10 6
-6 3 3 24 -12 46 -34 22 -21 45 -39 51 -39 6 0 8 -3 4 -6 -6 -7 16 -34 28 -34
13 0 34 -28 27 -35 -4 -5 -2 -5 4 -2 7 4 17 0 24 -8 7 -8 19 -15 27 -15 8 0
12 -4 8 -9 -3 -5 3 -12 13 -15 10 -3 34 -21 54 -40 20 -19 39 -32 42 -29 3 4
6 -2 6 -12 0 -10 3 -16 6 -12 4 3 12 1 20 -6 33 -29 44 -37 53 -37 5 0 13 -5
17 -12 5 -7 3 -8 -6 -3 -9 5 -11 4 -6 -4 4 -6 11 -9 15 -6 10 6 53 -30 45 -38
-3 -3 3 -3 14 0 14 3 22 -1 27 -16 3 -12 11 -18 17 -15 5 3 16 -3 24 -15 9
-12 19 -19 24 -16 5 3 15 -4 23 -15 7 -11 17 -17 20 -13 4 3 7 2 7 -4 0 -6 11
-14 25 -17 14 -4 23 -11 20 -16 -6 -9 8 -14 28 -11 4 0 7 -3 7 -8 0 -5 14 -14
30 -21 17 -7 30 -16 30 -21 0 -5 6 -9 13 -9 7 0 23 -9 35 -20 12 -11 28 -20
36 -20 7 0 17 -7 20 -16 3 -8 10 -13 14 -10 5 3 20 -5 33 -17 13 -12 30 -22
39 -22 8 0 14 -5 13 -12 -2 -7 6 -10 16 -8 11 2 22 -3 25 -11 3 -9 10 -12 16
-9 6 3 13 -1 16 -9 3 -9 10 -14 14 -11 5 3 32 -8 60 -25 28 -16 55 -30 60 -30
6 0 10 -5 10 -11 0 -5 4 -8 9 -5 5 3 14 -1 21 -9 7 -8 18 -15 24 -15 16 0 210
-93 218 -105 4 -5 8 -6 8 -2 0 4 10 2 23 -5 12 -7 25 -12 29 -13 3 0 10 -3 14
-8 4 -4 16 -7 26 -7 10 0 21 -7 24 -15 4 -8 10 -13 14 -10 5 3 34 -6 66 -20
31 -14 62 -25 68 -25 6 0 28 -9 49 -20 20 -11 37 -18 37 -15 0 3 24 -4 53 -16
61 -24 62 -24 105 -34 17 -4 32 -11 32 -15 0 -3 6 -7 13 -8 21 -1 65 -12 92
-22 14 -5 25 -7 25 -4 0 2 10 -1 23 -8 21 -12 28 -14 72 -23 11 -2 29 -6 40
-9 11 -2 26 -5 33 -5 7 -1 10 -6 6 -13 -5 -7 -2 -9 8 -6 8 3 34 2 59 -3 24 -5
58 -12 74 -15 17 -3 34 -9 39 -14 5 -5 15 -6 22 -3 8 3 14 1 14 -3 0 -5 21
-10 47 -11 25 -1 49 -6 52 -10 3 -4 20 -9 36 -11 17 -1 37 -5 45 -9 8 -3 30
-5 48 -4 17 2 32 -1 32 -6 0 -8 42 -13 108 -13 17 0 32 -5 32 -10 0 -6 5 -10
11 -10 5 0 7 6 3 13 -6 9 -5 9 7 0 8 -7 24 -12 34 -12 11 0 47 -2 80 -6 33 -3
66 -7 73 -7 6 -1 12 -5 12 -10 0 -5 8 -4 19 1 10 6 21 8 24 5 3 -3 60 -7 126
-9 89 -3 121 -1 123 8 4 38 4 4368 -1 4376 -5 8 -113 71 -311 183 -25 14 -133
76 -240 138 -107 62 -220 127 -251 144 -30 17 -157 89 -282 161 l-227 129 0
863 c0 794 1 862 16 856 16 -6 112 -59 364 -199 l105 -59 3 -565 2 -565 401
-230 c221 -127 407 -231 414 -233 9 -2 11 234 11 1030 l-1 1032 -95 54 c-52
29 -122 68 -155 86 -33 19 -152 85 -265 148 -113 63 -232 130 -265 148 -33 18
-89 49 -125 70 -36 20 -94 53 -130 72 -36 20 -121 67 -190 105 -69 39 -156 87
-195 109 -38 21 -107 59 -153 86 -46 26 -85 48 -87 48 -1 0 -108 59 -236 130
-128 72 -236 130 -240 130 -4 0 -8 -814 -7 -1809 l0 -1810 659 -377 659 -377
0 -1463 c0 -805 -3 -1464 -7 -1464 -23 1 -253 67 -390 111 l-93 31 0 1302 0
1302 -42 22 c-24 13 -61 33 -83 46 -137 81 -691 396 -697 396 -4 0 -7 -599 -6
-1331 0 -732 -2 -1333 -5 -1336 -6 -5 -17 2 -177 106 -293 192 -637 488 -884
761 -407 450 -742 1014 -936 1575 -72 206 -153 504 -175 635 -3 19 -10 58 -15
85 -5 28 -12 68 -15 90 -3 22 -8 51 -10 65 -5 26 -7 42 -24 200 -21 199 -30
597 -17 745 3 28 7 84 11 125 7 89 12 133 31 265 86 607 301 1211 619 1734
395 653 935 1191 1590 1588 55 33 123 72 150 87 28 15 73 39 100 54 407 221
987 405 1500 477 248 34 341 40 645 40 218 0 463 -10 480 -20 3 -1 37 -6 76
-9 39 -4 80 -8 90 -10 11 -2 55 -9 99 -16 492 -73 1050 -267 1510 -522 252
-140 568 -361 780 -543 130 -113 426 -413 527 -535 283 -342 506 -695 686
-1090 63 -139 174 -436 209 -560 34 -124 84 -317 89 -350 3 -19 7 -37 9 -40 2
-3 11 -48 20 -100 9 -52 18 -106 20 -120 3 -14 9 -61 15 -105 6 -44 12 -93 15
-110 2 -16 6 -68 10 -115 3 -47 8 -109 11 -139 15 -149 3 -586 -21 -771 -2
-19 -7 -57 -10 -85 -3 -27 -10 -77 -15 -110 -5 -33 -12 -78 -16 -100 -3 -22
-17 -94 -31 -160 -161 -773 -535 -1517 -1062 -2115 -164 -185 -374 -387 -566
-541 -414 -334 -847 -578 -1343 -759 -122 -44 -396 -127 -478 -144 l-31 -7 0
951 0 951 24 16 c14 9 309 179 657 378 l631 362 2 2329 c1 1281 0 2335 -3
2343 -3 9 -8 10 -17 3 -6 -5 -113 -66 -237 -134 -124 -69 -245 -136 -270 -150
-25 -14 -229 -128 -455 -253 -225 -125 -468 -260 -540 -300 -71 -40 -241 -134
-376 -209 l-245 -136 0 -3544 c1 -1949 5 -3548 9 -3553 11 -10 187 -11 187 -1
0 4 10 4 23 -1 13 -5 30 -5 39 0 11 6 19 5 23 -1 4 -7 12 -7 25 0 10 5 42 12
72 15 29 3 64 8 78 11 22 5 57 8 165 17 17 1 32 5 35 9 3 4 29 8 58 10 28 2
52 5 52 8 0 3 8 6 18 7 9 1 31 5 47 8 62 14 115 22 115 17 0 -2 7 1 15 8 8 7
15 10 15 7 0 -4 18 0 39 8 35 12 60 18 121 29 8 2 33 8 55 14 22 6 43 12 47
12 4 1 23 7 43 16 19 8 37 14 40 14 3 0 6 0 8 1 1 0 10 2 20 5 9 2 25 6 35 8
9 3 18 5 20 6 1 2 5 3 10 4 4 1 13 5 20 9 6 5 12 6 12 3 0 -3 16 2 35 10 20 8
40 12 45 9 4 -3 10 0 12 6 2 7 13 13 24 14 10 1 29 7 42 14 12 6 27 9 32 6 6
-3 10 -1 10 5 0 6 5 8 10 5 6 -3 10 -1 10 6 0 7 3 9 7 6 3 -4 12 -2 18 3 7 6
24 11 38 12 14 1 23 6 21 10 -3 4 -1 8 5 8 5 0 22 5 38 12 15 6 30 12 33 13 3
0 14 6 25 11 11 6 33 14 50 18 16 4 32 12 36 17 3 6 16 11 27 12 12 1 22 5 22
9 0 4 12 8 26 8 14 0 23 4 19 10 -3 5 -1 10 4 10 6 0 34 11 62 25 29 13 55 22
60 20 4 -3 9 -2 11 2 6 16 68 44 80 37 6 -4 8 -3 5 2 -3 6 3 16 15 23 16 10
19 10 13 -1 -3 -7 -1 -6 7 3 15 18 79 54 91 51 4 -1 7 2 7 8 0 5 9 10 20 10
11 0 20 5 20 10 0 6 6 10 14 10 8 0 17 6 19 13 4 9 6 9 6 -2 1 -9 7 -7 19 7
21 25 108 73 116 65 3 -4 6 2 6 13 0 16 2 17 10 4 8 -13 13 -8 12 10 0 3 17
15 39 27 22 12 37 16 33 10 -3 -7 6 0 20 15 14 16 29 28 34 28 5 0 19 9 31 19
13 11 29 17 37 14 10 -4 12 0 7 13 -4 11 -3 15 5 10 6 -3 15 2 21 11 6 10 11
14 11 10 0 -5 6 -2 14 5 32 30 80 63 88 60 5 -1 11 5 14 13 4 8 12 15 20 15 8
0 14 5 14 12 0 6 3 9 6 6 3 -3 19 7 35 23 17 16 34 27 40 24 5 -4 9 2 9 11 0
10 3 15 6 11 3 -3 17 6 30 20 13 14 30 23 38 20 10 -4 13 -1 9 9 -3 8 1 14 9
14 7 0 19 9 26 20 7 12 18 18 24 14 7 -4 8 -3 4 5 -4 6 0 14 11 18 10 4 24 15
31 25 7 10 17 16 22 13 5 -3 12 4 15 16 4 11 9 18 12 16 2 -3 23 12 45 33 64
60 77 70 90 70 6 0 9 3 5 6 -8 8 16 33 26 27 4 -2 7 0 7 4 0 5 7 18 16 29 8
10 12 12 8 4 -5 -8 12 5 37 30 25 25 45 50 45 55 -1 6 7 9 16 9 10 -1 16 1 13
5 -2 4 16 26 41 49 24 23 44 47 44 53 0 5 4 8 9 5 4 -3 13 6 19 19 7 14 19 25
28 25 10 0 15 3 11 6 -8 9 16 33 27 26 5 -3 6 3 3 12 -6 14 -3 17 9 12 12 -4
15 -2 10 9 -3 9 0 15 10 15 8 0 13 4 10 9 -3 5 10 22 29 38 19 17 31 34 27 38
-4 5 1 5 11 2 11 -4 16 -3 12 4 -8 13 14 41 26 33 5 -3 9 -2 8 3 -4 13 23 63
31 58 4 -3 14 3 21 12 12 14 12 16 -1 8 -8 -5 0 8 19 30 18 21 38 45 45 52 6
8 19 23 28 34 10 10 15 19 12 19 -4 0 -1 7 6 15 7 8 17 12 23 8 5 -3 7 -1 4 4
-4 6 0 14 9 17 8 3 12 11 8 17 -3 6 5 21 20 34 14 12 23 24 21 27 -3 3 8 19
24 37 16 17 26 31 23 31 -4 0 2 7 12 15 11 8 16 15 10 15 -5 0 2 10 16 21 14
11 18 17 11 13 -9 -4 -5 6 8 24 12 18 27 32 33 32 5 0 8 7 4 15 -3 8 -2 15 2
15 5 0 16 16 25 35 9 19 22 35 27 35 6 0 9 4 6 9 -3 4 6 23 20 42 14 19 30 44
35 57 5 12 12 22 17 22 4 0 8 10 9 22 1 12 9 26 18 30 8 5 13 13 10 19 -4 5
-1 9 4 9 6 0 11 7 11 15 0 8 5 15 11 15 5 0 7 5 4 10 -3 6 0 13 8 16 8 3 14
13 12 22 -1 9 1 19 5 22 7 4 93 168 95 180 0 3 9 21 20 40 11 19 20 37 20 40
7 27 33 69 39 63 4 -4 4 0 1 9 -3 8 0 22 7 29 7 8 15 25 17 39 1 14 13 38 24
55 12 16 21 31 19 33 -8 8 0 22 10 16 7 -4 8 -3 4 4 -4 6 0 27 8 47 8 19 12
35 8 35 -4 0 1 5 11 11 9 6 15 14 12 19 -3 5 0 20 7 32 6 13 13 29 14 36 1 8
6 21 10 30 4 9 9 26 11 37 2 10 7 22 11 25 4 3 9 16 11 30 1 14 6 27 10 30 4
3 6 12 6 20 -1 8 4 25 12 37 7 12 13 34 13 48 0 18 4 24 13 19 6 -4 9 -4 5 0
-3 4 0 31 9 59 13 45 18 62 26 102 2 6 7 17 12 25 5 8 10 28 12 45 2 16 6 37
9 45 4 8 8 28 10 44 1 16 6 32 11 35 5 3 8 13 8 21 -1 8 3 29 8 45 5 17 11 48
14 70 3 22 8 42 12 45 6 5 11 35 12 83 0 15 5 27 10 27 6 0 8 9 4 19 -3 11 -1
22 4 25 6 4 8 13 4 21 -3 8 -2 23 2 33 8 19 11 43 16 115 1 26 5 50 9 52 4 2
8 33 9 67 4 93 6 112 13 123 10 17 13 184 12 632 -1 352 -4 436 -15 450 -11
14 -11 15 -1 9 11 -7 12 -4 4 11 -6 10 -11 43 -13 73 -1 30 -6 64 -10 76 -4
12 -9 45 -10 75 -1 30 -6 61 -10 69 -7 13 -30 165 -33 215 0 11 -4 22 -8 25
-3 3 -8 19 -11 35 -2 17 -7 37 -11 45 -3 9 -8 29 -9 45 -1 17 -5 33 -10 36 -4
3 -8 26 -10 52 -1 26 -5 47 -9 47 -6 0 -33 102 -33 125 0 6 -3 12 -6 15 -4 3
-9 19 -10 35 -2 17 -7 32 -11 35 -4 3 -9 17 -11 30 -3 14 -10 37 -16 53 -6 15
-8 27 -5 27 4 0 2 6 -4 13 -8 9 -29 72 -37 107 0 3 -7 16 -14 28 -7 13 -10 26
-8 29 3 2 -1 16 -8 30 -8 15 -12 30 -9 35 3 4 1 8 -5 8 -5 0 -12 14 -16 30 -4
17 -10 30 -15 30 -4 0 -7 8 -6 17 2 10 -5 31 -15 48 -10 16 -19 39 -21 50 -2
11 -7 23 -11 26 -5 3 -10 12 -12 20 -9 38 -18 59 -27 59 -5 0 -7 3 -4 8 2 4
-4 25 -14 47 -10 22 -16 44 -13 49 4 5 1 6 -5 2 -6 -3 -15 9 -23 31 -6 21 -18
44 -26 52 -8 7 -12 19 -9 26 3 8 -2 16 -10 19 -9 3 -12 10 -9 16 3 5 1 10 -4
10 -6 0 -11 7 -11 16 0 8 -7 22 -15 31 -8 8 -13 19 -10 24 4 5 2 9 -2 9 -8 0
-28 43 -30 64 -1 5 -5 12 -10 15 -4 3 -15 15 -23 25 -13 18 -13 19 0 12 8 -4
5 1 -7 12 -13 11 -23 27 -23 36 0 8 -4 17 -9 20 -14 9 -52 78 -39 70 7 -4 0 5
-15 21 -15 16 -26 33 -24 38 2 6 -8 21 -21 34 -12 13 -20 28 -16 35 4 6 3 8
-3 5 -13 -8 -26 20 -16 35 3 7 1 8 -6 4 -6 -4 -14 0 -18 11 -4 10 -12 23 -17
30 -6 7 -15 18 -21 25 -5 7 -17 22 -25 33 -13 17 -13 18 0 11 8 -4 4 2 -10 13
-14 11 -20 21 -15 21 6 0 2 5 -7 11 -10 5 -18 16 -18 23 0 8 -7 17 -16 20 -9
4 -14 9 -11 12 3 3 -3 14 -14 25 -10 10 -19 26 -19 35 0 8 -4 12 -10 9 -9 -6
-14 8 -11 28 1 5 -3 6 -9 2 -5 -3 -10 -2 -10 2 0 5 -15 26 -34 48 -19 22 -32
43 -30 47 3 4 -3 8 -12 8 -10 0 -15 3 -11 6 3 3 -5 17 -19 31 -13 13 -22 28
-19 33 3 5 0 12 -6 16 -8 5 -9 3 -4 -6 6 -9 4 -11 -4 -6 -7 5 -10 15 -7 23 3
8 2 12 -3 9 -9 -6 -41 28 -76 80 -13 18 -25 30 -29 27 -3 -4 -6 1 -6 10 0 9
-7 17 -16 17 -8 0 -12 5 -9 10 3 6 -1 10 -10 10 -12 0 -15 5 -11 17 4 10 4 15
1 12 -3 -4 -99 88 -214 202 -114 115 -211 206 -214 202 -4 -3 -7 -1 -7 6 0 16
-26 42 -34 34 -3 -4 -6 1 -6 10 0 9 -5 19 -12 23 -7 5 -8 2 -3 -7 7 -14 -2 -5
-76 65 -21 19 -40 32 -43 29 -3 -4 -6 1 -6 11 0 9 -4 15 -8 12 -5 -3 -24 10
-43 28 -20 18 -43 35 -53 39 -9 4 -14 11 -11 17 4 6 -1 7 -11 3 -12 -4 -15 -3
-10 5 4 7 1 12 -7 12 -18 0 -49 34 -40 44 4 4 0 4 -9 1 -12 -5 -26 3 -44 22
-15 15 -24 21 -19 13 4 -8 -4 -2 -19 14 -14 16 -26 25 -26 21 0 -5 -7 0 -16
11 -8 10 -13 12 -9 4 4 -8 -4 -3 -17 11 -13 14 -30 23 -38 21 -9 -3 -11 1 -7
11 4 10 2 14 -6 11 -7 -2 -23 5 -35 16 -12 11 -22 18 -22 15 0 -5 -66 41 -80
55 -3 3 -24 14 -48 25 -24 10 -50 28 -58 39 -8 12 -17 20 -19 19 -11 -6 -24
-2 -37 10 -7 6 -33 23 -58 36 -25 13 -52 30 -61 38 -9 7 -19 10 -22 6 -4 -3
-7 -1 -7 5 0 7 -9 12 -21 12 -11 0 -18 4 -15 9 3 5 -8 11 -25 15 -20 4 -28 10
-23 17 4 7 3 9 -3 6 -11 -7 -63 14 -63 26 0 4 -5 7 -12 7 -20 0 -118 50 -118
61 0 6 -4 8 -9 5 -5 -3 -22 1 -37 9 -16 8 -35 15 -41 15 -7 0 -13 5 -13 12 0
6 -3 9 -6 6 -6 -7 -95 32 -118 51 -8 7 -19 10 -25 7 -5 -4 -15 -1 -23 6 -7 7
-19 13 -25 14 -29 2 -34 4 -29 13 4 5 -2 8 -11 7 -10 -2 -31 3 -48 10 -46 19
-69 27 -77 26 -3 -1 -11 5 -18 13 -6 7 -18 11 -26 8 -8 -3 -14 0 -14 6 0 6 -3
10 -7 9 -15 -3 -133 35 -133 43 0 5 -7 6 -15 3 -8 -4 -21 -2 -28 4 -6 5 -31
13 -54 17 -24 4 -43 12 -43 18 0 5 -3 8 -6 4 -3 -3 -27 1 -52 9 -26 8 -56 17
-67 19 -52 9 -69 16 -77 27 -6 10 -8 9 -8 -2 0 -13 -1 -13 -10 0 -5 8 -10 12
-10 9 0 -7 -39 0 -155 28 -16 4 -32 7 -35 8 -3 0 -30 7 -60 15 -30 8 -59 13
-63 12 -5 -2 -34 2 -65 8 -32 6 -70 13 -87 15 -16 1 -43 5 -60 8 -16 3 -50 9
-75 12 -25 4 -53 11 -62 17 -10 5 -18 5 -18 0 0 -5 -23 -5 -52 -1 -29 5 -62
10 -73 12 -11 1 -25 6 -32 10 -6 4 -14 3 -18 -3 -4 -7 -12 -7 -26 0 -13 8 -19
7 -19 0 0 -7 -5 -8 -12 -3 -14 9 -838 13 -838 4 0 -8 -64 -6 -78 3 -6 3 -14 1
-17 -5z m2071 -7205 c-2 -6 -94 -62 -203 -124 -109 -62 -217 -124 -239 -137
l-41 -23 0 1581 0 1581 21 8 c12 5 120 65 241 132 l220 124 3 -1566 c1 -861 0
-1570 -2 -1576z"/>
</g>
</svg>
